<?xml version="1.0" encoding="utf-8" standalone="no"?>
<!DOCTYPE svg PUBLIC "-//W3C//DTD SVG 1.1//EN"
  "http://www.w3.org/Graphics/SVG/1.1/DTD/svg11.dtd">
<svg height="262.19625pt" version="1.1" viewBox="0 0 404.86875 262.19625" width="404.86875pt" xmlns="http://www.w3.org/2000/svg" xmlns:xlink="http://www.w3.org/1999/xlink">
 <metadata>
  <rdf:RDF xmlns:cc="http://creativecommons.org/ns#" xmlns:dc="http://purl.org/dc/elements/1.1/" xmlns:rdf="http://www.w3.org/1999/02/22-rdf-syntax-ns#">
   <cc:Work>
    <dc:type rdf:resource="http://purl.org/dc/dcmitype/StillImage"/>
    <dc:date>2021-07-02T01:18:58.274138</dc:date>
    <dc:format>image/svg+xml</dc:format>
    <dc:creator>
     <cc:Agent>
      <dc:title>Matplotlib v3.4.2, https://matplotlib.org/</dc:title>
     </cc:Agent>
    </dc:creator>
   </cc:Work>
  </rdf:RDF>
 </metadata>
 <defs>
  <style type="text/css">*{stroke-linecap:butt;stroke-linejoin:round;}</style>
 </defs>
 <g id="figure_1">
  <g id="patch_1">
   <path d="M 0 262.19625 
L 404.86875 262.19625 
L 404.86875 0 
L 0 0 
z
" style="fill:none;"/>
  </g>
  <g id="axes_1">
   <g id="patch_2">
    <path d="M 62.86875 224.64 
L 397.66875 224.64 
L 397.66875 7.2 
L 62.86875 7.2 
z
" style="fill:#ffffff;"/>
   </g>
   <g id="PolyCollection_1">
    <defs>
     <path d="M 87.439997 -37.701876 
L 87.439997 -37.55625 
L 88.017914 -37.55625 
L 88.595831 -37.55625 
L 89.173747 -37.55625 
L 89.751664 -37.55625 
L 90.32958 -37.55625 
L 90.907497 -37.55625 
L 91.485414 -37.55625 
L 92.06333 -37.55625 
L 92.641247 -37.55625 
L 93.219163 -37.55625 
L 93.79708 -37.55625 
L 94.374997 -37.55625 
L 94.952913 -37.55625 
L 95.53083 -37.55625 
L 96.108746 -37.55625 
L 96.686663 -37.55625 
L 97.26458 -37.55625 
L 97.842496 -37.55625 
L 98.420413 -37.55625 
L 98.99833 -37.55625 
L 99.576246 -37.55625 
L 100.154163 -37.55625 
L 100.732079 -37.55625 
L 101.309996 -37.55625 
L 101.887913 -37.55625 
L 102.465829 -37.55625 
L 103.043746 -37.55625 
L 103.621662 -37.55625 
L 104.199579 -37.55625 
L 104.777496 -37.55625 
L 105.355412 -37.55625 
L 105.933329 -37.55625 
L 106.511245 -37.55625 
L 107.089162 -37.55625 
L 107.667079 -37.55625 
L 108.244995 -37.55625 
L 108.822912 -37.55625 
L 109.400828 -37.55625 
L 109.978745 -37.55625 
L 110.556662 -37.55625 
L 111.134578 -37.55625 
L 111.712495 -37.55625 
L 112.290411 -37.55625 
L 112.868328 -37.55625 
L 113.446245 -37.55625 
L 114.024161 -37.55625 
L 114.602078 -37.55625 
L 115.179994 -37.55625 
L 115.757911 -37.55625 
L 116.335828 -37.55625 
L 116.913744 -37.55625 
L 117.491661 -37.55625 
L 118.069577 -37.55625 
L 118.647494 -37.55625 
L 119.225411 -37.55625 
L 119.803327 -37.55625 
L 120.381244 -37.55625 
L 120.95916 -37.55625 
L 121.537077 -37.55625 
L 122.114994 -37.55625 
L 122.69291 -37.55625 
L 123.270827 -37.55625 
L 123.848743 -37.55625 
L 124.42666 -37.55625 
L 125.004577 -37.55625 
L 125.582493 -37.55625 
L 126.16041 -37.55625 
L 126.738326 -37.55625 
L 127.316243 -37.55625 
L 127.89416 -37.55625 
L 128.472076 -37.55625 
L 129.049993 -37.55625 
L 129.62791 -37.55625 
L 130.205826 -37.55625 
L 130.783743 -37.55625 
L 131.361659 -37.55625 
L 131.939576 -37.55625 
L 132.517493 -37.55625 
L 133.095409 -37.55625 
L 133.673326 -37.55625 
L 134.251242 -37.55625 
L 134.829159 -37.55625 
L 135.407076 -37.55625 
L 135.984992 -37.55625 
L 136.562909 -37.55625 
L 137.140825 -37.55625 
L 137.718742 -37.55625 
L 138.296659 -37.55625 
L 138.874575 -37.55625 
L 139.452492 -37.55625 
L 140.030408 -37.55625 
L 140.608325 -37.55625 
L 141.186242 -37.55625 
L 141.764158 -37.55625 
L 142.342075 -37.55625 
L 142.919991 -37.55625 
L 143.497908 -37.55625 
L 144.075825 -37.55625 
L 144.653741 -37.55625 
L 145.231658 -37.55625 
L 145.809574 -37.55625 
L 146.387491 -37.55625 
L 146.965408 -37.55625 
L 147.543324 -37.55625 
L 148.121241 -37.55625 
L 148.699157 -37.55625 
L 149.277074 -37.55625 
L 149.854991 -37.55625 
L 150.432907 -37.55625 
L 151.010824 -37.55625 
L 151.58874 -37.55625 
L 152.166657 -37.55625 
L 152.744574 -37.55625 
L 153.32249 -37.55625 
L 153.900407 -37.55625 
L 154.478323 -37.55625 
L 155.05624 -37.55625 
L 155.634157 -37.55625 
L 156.212073 -37.55625 
L 156.78999 -37.55625 
L 157.367906 -37.55625 
L 157.945823 -37.55625 
L 158.52374 -37.55625 
L 159.101656 -37.55625 
L 159.679573 -37.55625 
L 160.257489 -37.55625 
L 160.835406 -37.55625 
L 161.413323 -37.55625 
L 161.991239 -37.55625 
L 162.569156 -37.55625 
L 163.147073 -37.55625 
L 163.724989 -37.55625 
L 164.302906 -37.55625 
L 164.880822 -37.55625 
L 165.458739 -37.55625 
L 166.036656 -37.55625 
L 166.614572 -37.55625 
L 167.192489 -37.55625 
L 167.770405 -37.55625 
L 168.348322 -37.55625 
L 168.926239 -37.55625 
L 169.504155 -37.55625 
L 170.082072 -37.55625 
L 170.659988 -37.55625 
L 171.237905 -37.55625 
L 171.815822 -37.55625 
L 172.393738 -37.55625 
L 172.971655 -37.55625 
L 173.549571 -37.55625 
L 174.127488 -37.55625 
L 174.705405 -37.55625 
L 175.283321 -37.55625 
L 175.861238 -37.55625 
L 176.439154 -37.55625 
L 177.017071 -37.55625 
L 177.594988 -37.55625 
L 178.172904 -37.55625 
L 178.750821 -37.55625 
L 179.328737 -37.55625 
L 179.906654 -37.55625 
L 180.484571 -37.55625 
L 181.062487 -37.55625 
L 181.640404 -37.55625 
L 182.21832 -37.55625 
L 182.796237 -37.55625 
L 183.374154 -37.55625 
L 183.95207 -37.55625 
L 184.529987 -37.55625 
L 185.107903 -37.55625 
L 185.68582 -37.55625 
L 186.263737 -37.55625 
L 186.841653 -37.55625 
L 187.41957 -37.55625 
L 187.997486 -37.55625 
L 188.575403 -37.55625 
L 189.15332 -37.55625 
L 189.731236 -37.55625 
L 190.309153 -37.55625 
L 190.887069 -37.55625 
L 191.464986 -37.55625 
L 192.042903 -37.55625 
L 192.620819 -37.55625 
L 193.198736 -37.55625 
L 193.776652 -37.55625 
L 194.354569 -37.55625 
L 194.932486 -37.55625 
L 195.510402 -37.55625 
L 196.088319 -37.55625 
L 196.666236 -37.55625 
L 197.244152 -37.55625 
L 197.822069 -37.55625 
L 198.399985 -37.55625 
L 198.977902 -37.55625 
L 199.555819 -37.55625 
L 200.133735 -37.55625 
L 200.711652 -37.55625 
L 201.289568 -37.55625 
L 201.867485 -37.55625 
L 202.445402 -37.55625 
L 202.445402 -37.681793 
L 202.445402 -37.681793 
L 201.867485 -37.717819 
L 201.289568 -37.762697 
L 200.711652 -37.818157 
L 200.133735 -37.886148 
L 199.555819 -37.968833 
L 198.977902 -38.06858 
L 198.399985 -38.187938 
L 197.822069 -38.329606 
L 197.244152 -38.496387 
L 196.666236 -38.69113 
L 196.088319 -38.916658 
L 195.510402 -39.175692 
L 194.932486 -39.470757 
L 194.354569 -39.804086 
L 193.776652 -40.177525 
L 193.198736 -40.592437 
L 192.620819 -41.049611 
L 192.042903 -41.549196 
L 191.464986 -42.09064 
L 190.887069 -42.672669 
L 190.309153 -43.293284 
L 189.731236 -43.949798 
L 189.15332 -44.638904 
L 188.575403 -45.356788 
L 187.997486 -46.099259 
L 187.41957 -46.86192 
L 186.841653 -47.640358 
L 186.263737 -48.43034 
L 185.68582 -49.228019 
L 185.107903 -50.030127 
L 184.529987 -50.834141 
L 183.95207 -51.638431 
L 183.374154 -52.442346 
L 182.796237 -53.246269 
L 182.21832 -54.051608 
L 181.640404 -54.860728 
L 181.062487 -55.676839 
L 180.484571 -56.503835 
L 179.906654 -57.346085 
L 179.328737 -58.208218 
L 178.750821 -59.094877 
L 178.172904 -60.010495 
L 177.594988 -60.959077 
L 177.017071 -61.94402 
L 176.439154 -62.967978 
L 175.861238 -64.032779 
L 175.283321 -65.13939 
L 174.705405 -66.287947 
L 174.127488 -67.477827 
L 173.549571 -68.707767 
L 172.971655 -69.976006 
L 172.393738 -71.280454 
L 171.815822 -72.618852 
L 171.237905 -73.988929 
L 170.659988 -75.388531 
L 170.082072 -76.815718 
L 169.504155 -78.268825 
L 168.926239 -79.746477 
L 168.348322 -81.247579 
L 167.770405 -82.771267 
L 167.192489 -84.316841 
L 166.614572 -85.883706 
L 166.036656 -87.471305 
L 165.458739 -89.079094 
L 164.880822 -90.706551 
L 164.302906 -92.353234 
L 163.724989 -94.018901 
L 163.147073 -95.703693 
L 162.569156 -97.408376 
L 161.991239 -99.134631 
L 161.413323 -100.885387 
L 160.835406 -102.665166 
L 160.257489 -104.480428 
L 159.679573 -106.339882 
L 159.101656 -108.254736 
L 158.52374 -110.238855 
L 157.945823 -112.308809 
L 157.367906 -114.483774 
L 156.78999 -116.785275 
L 156.212073 -119.236756 
L 155.634157 -121.862977 
L 155.05624 -124.689236 
L 154.478323 -127.740436 
L 153.900407 -131.040024 
L 153.32249 -134.608828 
L 152.744574 -138.463846 
L 152.166657 -142.617028 
L 151.58874 -147.074121 
L 151.010824 -151.833616 
L 150.432907 -156.885877 
L 149.854991 -162.212486 
L 149.277074 -167.785876 
L 148.699157 -173.569264 
L 148.121241 -179.516931 
L 147.543324 -185.574849 
L 146.965408 -191.681653 
L 146.387491 -197.769927 
L 145.809574 -203.767784 
L 145.231658 -209.600658 
L 144.653741 -215.193267 
L 144.075825 -220.471649 
L 143.497908 -225.365204 
L 142.919991 -229.808647 
L 142.342075 -233.743801 
L 141.764158 -237.121148 
L 141.186242 -239.901083 
L 140.608325 -242.054822 
L 140.030408 -243.564944 
L 139.452492 -244.425534 
L 138.874575 -244.641964 
L 138.296659 -244.230313 
L 137.718742 -243.216481 
L 137.140825 -241.635045 
L 136.562909 -239.527918 
L 135.984992 -236.942879 
L 135.407076 -233.932047 
L 134.829159 -230.550347 
L 134.251242 -226.85405 
L 133.673326 -222.899418 
L 133.095409 -218.741497 
L 132.517493 -214.433091 
L 131.939576 -210.023917 
L 131.361659 -205.559958 
L 130.783743 -201.082998 
L 130.205826 -196.63032 
L 129.62791 -192.234557 
L 129.049993 -187.923656 
L 128.472076 -183.720934 
L 127.89416 -179.645207 
L 127.316243 -175.710956 
L 126.738326 -171.92853 
L 126.16041 -168.304349 
L 125.582493 -164.841123 
L 125.004577 -161.538071 
L 124.42666 -158.391149 
L 123.848743 -155.393281 
L 123.270827 -152.534622 
L 122.69291 -149.802831 
L 122.114994 -147.183393 
L 121.537077 -144.659972 
L 120.95916 -142.214802 
L 120.381244 -139.829119 
L 119.803327 -137.483632 
L 119.225411 -135.159005 
L 118.647494 -132.836358 
L 118.069577 -130.497764 
L 117.491661 -128.126718 
L 116.913744 -125.708576 
L 116.335828 -123.230933 
L 115.757911 -120.683943 
L 115.179994 -118.060545 
L 114.602078 -115.356622 
L 114.024161 -112.571049 
L 113.446245 -109.705671 
L 112.868328 -106.765179 
L 112.290411 -103.756919 
L 111.712495 -100.69063 
L 111.134578 -97.57812 
L 110.556662 -94.432915 
L 109.978745 -91.269867 
L 109.400828 -88.104757 
L 108.822912 -84.953894 
L 108.244995 -81.83373 
L 107.667079 -78.760493 
L 107.089162 -75.749848 
L 106.511245 -72.816606 
L 105.933329 -69.974457 
L 105.355412 -67.235761 
L 104.777496 -64.611374 
L 104.199579 -62.110525 
L 103.621662 -59.740732 
L 103.043746 -57.507763 
L 102.465829 -55.415633 
L 101.887913 -53.466639 
L 101.309996 -51.661427 
L 100.732079 -49.999085 
L 100.154163 -48.477269 
L 99.576246 -47.092333 
L 98.99833 -45.839494 
L 98.420413 -44.712994 
L 97.842496 -43.706271 
L 97.26458 -42.812137 
L 96.686663 -42.022952 
L 96.108746 -41.330785 
L 95.53083 -40.727572 
L 94.952913 -40.205262 
L 94.374997 -39.755938 
L 93.79708 -39.371935 
L 93.219163 -39.045925 
L 92.641247 -38.770995 
L 92.06333 -38.540699 
L 91.485414 -38.349097 
L 90.907497 -38.190774 
L 90.32958 -38.060847 
L 89.751664 -37.95496 
L 89.173747 -37.869263 
L 88.595831 -37.800391 
L 88.017914 -37.745429 
L 87.439997 -37.701876 
z
" id="m5ec11c761c" style="stroke:#1f77b4;"/>
    </defs>
    <g clip-path="url(#p77528d407c)">
     <use style="fill:#1f77b4;fill-opacity:0.25;stroke:#1f77b4;" x="0" xlink:href="#m5ec11c761c" y="262.19625"/>
    </g>
   </g>
   <g id="PolyCollection_2">
    <defs>
     <path d="M 117.616235 -37.612011 
L 117.616235 -37.55625 
L 118.94706 -37.55625 
L 120.277886 -37.55625 
L 121.608712 -37.55625 
L 122.939538 -37.55625 
L 124.270364 -37.55625 
L 125.601189 -37.55625 
L 126.932015 -37.55625 
L 128.262841 -37.55625 
L 129.593667 -37.55625 
L 130.924493 -37.55625 
L 132.255318 -37.55625 
L 133.586144 -37.55625 
L 134.91697 -37.55625 
L 136.247796 -37.55625 
L 137.578622 -37.55625 
L 138.909447 -37.55625 
L 140.240273 -37.55625 
L 141.571099 -37.55625 
L 142.901925 -37.55625 
L 144.232751 -37.55625 
L 145.563576 -37.55625 
L 146.894402 -37.55625 
L 148.225228 -37.55625 
L 149.556054 -37.55625 
L 150.88688 -37.55625 
L 152.217705 -37.55625 
L 153.548531 -37.55625 
L 154.879357 -37.55625 
L 156.210183 -37.55625 
L 157.541009 -37.55625 
L 158.871834 -37.55625 
L 160.20266 -37.55625 
L 161.533486 -37.55625 
L 162.864312 -37.55625 
L 164.195138 -37.55625 
L 165.525963 -37.55625 
L 166.856789 -37.55625 
L 168.187615 -37.55625 
L 169.518441 -37.55625 
L 170.849267 -37.55625 
L 172.180092 -37.55625 
L 173.510918 -37.55625 
L 174.841744 -37.55625 
L 176.17257 -37.55625 
L 177.503396 -37.55625 
L 178.834221 -37.55625 
L 180.165047 -37.55625 
L 181.495873 -37.55625 
L 182.826699 -37.55625 
L 184.157525 -37.55625 
L 185.48835 -37.55625 
L 186.819176 -37.55625 
L 188.150002 -37.55625 
L 189.480828 -37.55625 
L 190.811653 -37.55625 
L 192.142479 -37.55625 
L 193.473305 -37.55625 
L 194.804131 -37.55625 
L 196.134957 -37.55625 
L 197.465782 -37.55625 
L 198.796608 -37.55625 
L 200.127434 -37.55625 
L 201.45826 -37.55625 
L 202.789086 -37.55625 
L 204.119911 -37.55625 
L 205.450737 -37.55625 
L 206.781563 -37.55625 
L 208.112389 -37.55625 
L 209.443215 -37.55625 
L 210.77404 -37.55625 
L 212.104866 -37.55625 
L 213.435692 -37.55625 
L 214.766518 -37.55625 
L 216.097344 -37.55625 
L 217.428169 -37.55625 
L 218.758995 -37.55625 
L 220.089821 -37.55625 
L 221.420647 -37.55625 
L 222.751473 -37.55625 
L 224.082298 -37.55625 
L 225.413124 -37.55625 
L 226.74395 -37.55625 
L 228.074776 -37.55625 
L 229.405602 -37.55625 
L 230.736427 -37.55625 
L 232.067253 -37.55625 
L 233.398079 -37.55625 
L 234.728905 -37.55625 
L 236.059731 -37.55625 
L 237.390556 -37.55625 
L 238.721382 -37.55625 
L 240.052208 -37.55625 
L 241.383034 -37.55625 
L 242.71386 -37.55625 
L 244.044685 -37.55625 
L 245.375511 -37.55625 
L 246.706337 -37.55625 
L 248.037163 -37.55625 
L 249.367989 -37.55625 
L 250.698814 -37.55625 
L 252.02964 -37.55625 
L 253.360466 -37.55625 
L 254.691292 -37.55625 
L 256.022118 -37.55625 
L 257.352943 -37.55625 
L 258.683769 -37.55625 
L 260.014595 -37.55625 
L 261.345421 -37.55625 
L 262.676247 -37.55625 
L 264.007072 -37.55625 
L 265.337898 -37.55625 
L 266.668724 -37.55625 
L 267.99955 -37.55625 
L 269.330375 -37.55625 
L 270.661201 -37.55625 
L 271.992027 -37.55625 
L 273.322853 -37.55625 
L 274.653679 -37.55625 
L 275.984504 -37.55625 
L 277.31533 -37.55625 
L 278.646156 -37.55625 
L 279.976982 -37.55625 
L 281.307808 -37.55625 
L 282.638633 -37.55625 
L 283.969459 -37.55625 
L 285.300285 -37.55625 
L 286.631111 -37.55625 
L 287.961937 -37.55625 
L 289.292762 -37.55625 
L 290.623588 -37.55625 
L 291.954414 -37.55625 
L 293.28524 -37.55625 
L 294.616066 -37.55625 
L 295.946891 -37.55625 
L 297.277717 -37.55625 
L 298.608543 -37.55625 
L 299.939369 -37.55625 
L 301.270195 -37.55625 
L 302.60102 -37.55625 
L 303.931846 -37.55625 
L 305.262672 -37.55625 
L 306.593498 -37.55625 
L 307.924324 -37.55625 
L 309.255149 -37.55625 
L 310.585975 -37.55625 
L 311.916801 -37.55625 
L 313.247627 -37.55625 
L 314.578453 -37.55625 
L 315.909278 -37.55625 
L 317.240104 -37.55625 
L 318.57093 -37.55625 
L 319.901756 -37.55625 
L 321.232582 -37.55625 
L 322.563407 -37.55625 
L 323.894233 -37.55625 
L 325.225059 -37.55625 
L 326.555885 -37.55625 
L 327.886711 -37.55625 
L 329.217536 -37.55625 
L 330.548362 -37.55625 
L 331.879188 -37.55625 
L 333.210014 -37.55625 
L 334.54084 -37.55625 
L 335.871665 -37.55625 
L 337.202491 -37.55625 
L 338.533317 -37.55625 
L 339.864143 -37.55625 
L 341.194968 -37.55625 
L 342.525794 -37.55625 
L 343.85662 -37.55625 
L 345.187446 -37.55625 
L 346.518272 -37.55625 
L 347.849097 -37.55625 
L 349.179923 -37.55625 
L 350.510749 -37.55625 
L 351.841575 -37.55625 
L 353.172401 -37.55625 
L 354.503226 -37.55625 
L 355.834052 -37.55625 
L 357.164878 -37.55625 
L 358.495704 -37.55625 
L 359.82653 -37.55625 
L 361.157355 -37.55625 
L 362.488181 -37.55625 
L 363.819007 -37.55625 
L 365.149833 -37.55625 
L 366.480659 -37.55625 
L 367.811484 -37.55625 
L 369.14231 -37.55625 
L 370.473136 -37.55625 
L 371.803962 -37.55625 
L 373.134788 -37.55625 
L 374.465613 -37.55625 
L 375.796439 -37.55625 
L 377.127265 -37.55625 
L 378.458091 -37.55625 
L 379.788917 -37.55625 
L 381.119742 -37.55625 
L 382.450568 -37.55625 
L 382.450568 -37.648126 
L 382.450568 -37.648126 
L 381.119742 -37.676704 
L 379.788917 -37.713011 
L 378.458091 -37.758766 
L 377.127265 -37.815958 
L 375.796439 -37.886862 
L 374.465613 -37.974046 
L 373.134788 -38.080362 
L 371.803962 -38.208935 
L 370.473136 -38.363128 
L 369.14231 -38.546492 
L 367.811484 -38.762702 
L 366.480659 -39.015471 
L 365.149833 -39.308442 
L 363.819007 -39.64507 
L 362.488181 -40.028478 
L 361.157355 -40.461314 
L 359.82653 -40.945593 
L 358.495704 -41.482544 
L 357.164878 -42.072466 
L 355.834052 -42.714599 
L 354.503226 -43.407028 
L 353.172401 -44.146612 
L 351.841575 -44.928971 
L 350.510749 -45.748512 
L 349.179923 -46.598517 
L 347.849097 -47.471286 
L 346.518272 -48.358344 
L 345.187446 -49.250689 
L 343.85662 -50.1391 
L 342.525794 -51.014469 
L 341.194968 -51.868162 
L 339.864143 -52.692382 
L 338.533317 -53.48052 
L 337.202491 -54.227482 
L 335.871665 -54.929967 
L 334.54084 -55.58668 
L 333.210014 -56.198481 
L 331.879188 -56.768446 
L 330.548362 -57.301843 
L 329.217536 -57.806024 
L 327.886711 -58.290237 
L 326.555885 -58.765366 
L 325.225059 -59.243615 
L 323.894233 -59.738153 
L 322.563407 -60.26273 
L 321.232582 -60.831298 
L 319.901756 -61.45764 
L 318.57093 -62.155029 
L 317.240104 -62.935929 
L 315.909278 -63.811753 
L 314.578453 -64.792666 
L 313.247627 -65.88745 
L 311.916801 -67.103419 
L 310.585975 -68.446373 
L 309.255149 -69.920587 
L 307.924324 -71.528808 
L 306.593498 -73.272266 
L 305.262672 -75.150668 
L 303.931846 -77.162172 
L 302.60102 -79.303337 
L 301.270195 -81.569033 
L 299.939369 -83.952328 
L 298.608543 -86.444348 
L 297.277717 -89.03412 
L 295.946891 -91.70842 
L 294.616066 -94.451644 
L 293.28524 -97.24571 
L 291.954414 -100.070032 
L 290.623588 -102.901561 
L 289.292762 -105.714929 
L 287.961937 -108.482704 
L 286.631111 -111.175748 
L 285.300285 -113.763696 
L 283.969459 -116.215543 
L 282.638633 -118.50032 
L 281.307808 -120.587843 
L 279.976982 -122.449512 
L 278.646156 -124.059128 
L 277.31533 -125.393691 
L 275.984504 -126.434156 
L 274.653679 -127.166102 
L 273.322853 -127.580292 
L 271.992027 -127.673097 
L 270.661201 -127.446763 
L 269.330375 -126.909493 
L 267.99955 -126.07537 
L 266.668724 -124.964075 
L 265.337898 -123.600449 
L 264.007072 -122.013891 
L 262.676247 -120.237609 
L 261.345421 -118.307764 
L 260.014595 -116.262531 
L 258.683769 -114.141102 
L 257.352943 -111.982671 
L 256.022118 -109.825436 
L 254.691292 -107.705646 
L 253.360466 -105.656727 
L 252.02964 -103.708505 
L 250.698814 -101.886556 
L 249.367989 -100.211699 
L 248.037163 -98.699628 
L 246.706337 -97.360711 
L 245.375511 -96.19994 
L 244.044685 -95.217021 
L 242.71386 -94.406613 
L 241.383034 -93.758683 
L 240.052208 -93.258969 
L 238.721382 -92.889531 
L 237.390556 -92.629359 
L 236.059731 -92.455042 
L 234.728905 -92.341442 
L 233.398079 -92.26239 
L 232.067253 -92.191365 
L 230.736427 -92.102142 
L 229.405602 -91.969412 
L 228.074776 -91.769346 
L 226.74395 -91.4801 
L 225.413124 -91.082267 
L 224.082298 -90.559248 
L 222.751473 -89.897562 
L 221.420647 -89.087073 
L 220.089821 -88.121153 
L 218.758995 -86.996754 
L 217.428169 -85.714416 
L 216.097344 -84.278191 
L 214.766518 -82.695497 
L 213.435692 -80.9769 
L 212.104866 -79.135826 
L 210.77404 -77.18822 
L 209.443215 -75.152141 
L 208.112389 -73.047324 
L 206.781563 -70.894707 
L 205.450737 -68.715936 
L 204.119911 -66.532867 
L 202.789086 -64.367079 
L 201.45826 -62.239402 
L 200.127434 -60.169486 
L 198.796608 -58.175416 
L 197.465782 -56.273381 
L 196.134957 -54.477407 
L 194.804131 -52.799159 
L 193.473305 -51.24781 
L 192.142479 -49.82998 
L 190.811653 -48.549741 
L 189.480828 -47.40868 
L 188.150002 -46.406014 
L 186.819176 -45.538757 
L 185.48835 -44.801913 
L 184.157525 -44.188704 
L 182.826699 -43.69082 
L 181.495873 -43.298676 
L 180.165047 -43.00168 
L 178.834221 -42.788503 
L 177.503396 -42.647342 
L 176.17257 -42.56618 
L 174.841744 -42.533033 
L 173.510918 -42.536181 
L 172.180092 -42.564391 
L 170.849267 -42.607113 
L 169.518441 -42.654653 
L 168.187615 -42.698329 
L 166.856789 -42.730593 
L 165.525963 -42.74512 
L 164.195138 -42.736872 
L 162.864312 -42.702119 
L 161.533486 -42.638433 
L 160.20266 -42.544643 
L 158.871834 -42.420756 
L 157.541009 -42.267856 
L 156.210183 -42.087968 
L 154.879357 -41.883911 
L 153.548531 -41.65913 
L 152.217705 -41.417525 
L 150.88688 -41.163277 
L 149.556054 -40.900683 
L 148.225228 -40.633998 
L 146.894402 -40.367298 
L 145.563576 -40.10436 
L 144.232751 -39.848571 
L 142.901925 -39.602858 
L 141.571099 -39.369641 
L 140.240273 -39.150816 
L 138.909447 -38.947757 
L 137.578622 -38.761337 
L 136.247796 -38.591964 
L 134.91697 -38.439633 
L 133.586144 -38.30398 
L 132.255318 -38.184347 
L 130.924493 -38.079844 
L 129.593667 -37.989409 
L 128.262841 -37.91187 
L 126.932015 -37.84599 
L 125.601189 -37.79052 
L 124.270364 -37.744228 
L 122.939538 -37.705937 
L 121.608712 -37.674539 
L 120.277886 -37.649016 
L 118.94706 -37.628447 
L 117.616235 -37.612011 
z
" id="mffec715099" style="stroke:#ff7f0e;"/>
    </defs>
    <g clip-path="url(#p77528d407c)">
     <use style="fill:#ff7f0e;fill-opacity:0.25;stroke:#ff7f0e;" x="0" xlink:href="#mffec715099" y="262.19625"/>
    </g>
   </g>
   <g id="PolyCollection_3">
    <defs>
     <path d="M 81.841164 -37.860987 
L 81.841164 -37.55625 
L 82.403571 -37.55625 
L 82.965977 -37.55625 
L 83.528384 -37.55625 
L 84.09079 -37.55625 
L 84.653197 -37.55625 
L 85.215603 -37.55625 
L 85.77801 -37.55625 
L 86.340416 -37.55625 
L 86.902823 -37.55625 
L 87.465229 -37.55625 
L 88.027636 -37.55625 
L 88.590042 -37.55625 
L 89.152449 -37.55625 
L 89.714855 -37.55625 
L 90.277262 -37.55625 
L 90.839669 -37.55625 
L 91.402075 -37.55625 
L 91.964482 -37.55625 
L 92.526888 -37.55625 
L 93.089295 -37.55625 
L 93.651701 -37.55625 
L 94.214108 -37.55625 
L 94.776514 -37.55625 
L 95.338921 -37.55625 
L 95.901327 -37.55625 
L 96.463734 -37.55625 
L 97.02614 -37.55625 
L 97.588547 -37.55625 
L 98.150953 -37.55625 
L 98.71336 -37.55625 
L 99.275766 -37.55625 
L 99.838173 -37.55625 
L 100.400579 -37.55625 
L 100.962986 -37.55625 
L 101.525392 -37.55625 
L 102.087799 -37.55625 
L 102.650205 -37.55625 
L 103.212612 -37.55625 
L 103.775018 -37.55625 
L 104.337425 -37.55625 
L 104.899832 -37.55625 
L 105.462238 -37.55625 
L 106.024645 -37.55625 
L 106.587051 -37.55625 
L 107.149458 -37.55625 
L 107.711864 -37.55625 
L 108.274271 -37.55625 
L 108.836677 -37.55625 
L 109.399084 -37.55625 
L 109.96149 -37.55625 
L 110.523897 -37.55625 
L 111.086303 -37.55625 
L 111.64871 -37.55625 
L 112.211116 -37.55625 
L 112.773523 -37.55625 
L 113.335929 -37.55625 
L 113.898336 -37.55625 
L 114.460742 -37.55625 
L 115.023149 -37.55625 
L 115.585555 -37.55625 
L 116.147962 -37.55625 
L 116.710368 -37.55625 
L 117.272775 -37.55625 
L 117.835181 -37.55625 
L 118.397588 -37.55625 
L 118.959995 -37.55625 
L 119.522401 -37.55625 
L 120.084808 -37.55625 
L 120.647214 -37.55625 
L 121.209621 -37.55625 
L 121.772027 -37.55625 
L 122.334434 -37.55625 
L 122.89684 -37.55625 
L 123.459247 -37.55625 
L 124.021653 -37.55625 
L 124.58406 -37.55625 
L 125.146466 -37.55625 
L 125.708873 -37.55625 
L 126.271279 -37.55625 
L 126.833686 -37.55625 
L 127.396092 -37.55625 
L 127.958499 -37.55625 
L 128.520905 -37.55625 
L 129.083312 -37.55625 
L 129.645718 -37.55625 
L 130.208125 -37.55625 
L 130.770531 -37.55625 
L 131.332938 -37.55625 
L 131.895344 -37.55625 
L 132.457751 -37.55625 
L 133.020158 -37.55625 
L 133.582564 -37.55625 
L 134.144971 -37.55625 
L 134.707377 -37.55625 
L 135.269784 -37.55625 
L 135.83219 -37.55625 
L 136.394597 -37.55625 
L 136.957003 -37.55625 
L 137.51941 -37.55625 
L 138.081816 -37.55625 
L 138.644223 -37.55625 
L 139.206629 -37.55625 
L 139.769036 -37.55625 
L 140.331442 -37.55625 
L 140.893849 -37.55625 
L 141.456255 -37.55625 
L 142.018662 -37.55625 
L 142.581068 -37.55625 
L 143.143475 -37.55625 
L 143.705881 -37.55625 
L 144.268288 -37.55625 
L 144.830694 -37.55625 
L 145.393101 -37.55625 
L 145.955507 -37.55625 
L 146.517914 -37.55625 
L 147.080321 -37.55625 
L 147.642727 -37.55625 
L 148.205134 -37.55625 
L 148.76754 -37.55625 
L 149.329947 -37.55625 
L 149.892353 -37.55625 
L 150.45476 -37.55625 
L 151.017166 -37.55625 
L 151.579573 -37.55625 
L 152.141979 -37.55625 
L 152.704386 -37.55625 
L 153.266792 -37.55625 
L 153.829199 -37.55625 
L 154.391605 -37.55625 
L 154.954012 -37.55625 
L 155.516418 -37.55625 
L 156.078825 -37.55625 
L 156.641231 -37.55625 
L 157.203638 -37.55625 
L 157.766044 -37.55625 
L 158.328451 -37.55625 
L 158.890857 -37.55625 
L 159.453264 -37.55625 
L 160.015671 -37.55625 
L 160.578077 -37.55625 
L 161.140484 -37.55625 
L 161.70289 -37.55625 
L 162.265297 -37.55625 
L 162.827703 -37.55625 
L 163.39011 -37.55625 
L 163.952516 -37.55625 
L 164.514923 -37.55625 
L 165.077329 -37.55625 
L 165.639736 -37.55625 
L 166.202142 -37.55625 
L 166.764549 -37.55625 
L 167.326955 -37.55625 
L 167.889362 -37.55625 
L 168.451768 -37.55625 
L 169.014175 -37.55625 
L 169.576581 -37.55625 
L 170.138988 -37.55625 
L 170.701394 -37.55625 
L 171.263801 -37.55625 
L 171.826207 -37.55625 
L 172.388614 -37.55625 
L 172.95102 -37.55625 
L 173.513427 -37.55625 
L 174.075834 -37.55625 
L 174.63824 -37.55625 
L 175.200647 -37.55625 
L 175.763053 -37.55625 
L 176.32546 -37.55625 
L 176.887866 -37.55625 
L 177.450273 -37.55625 
L 178.012679 -37.55625 
L 178.575086 -37.55625 
L 179.137492 -37.55625 
L 179.699899 -37.55625 
L 180.262305 -37.55625 
L 180.824712 -37.55625 
L 181.387118 -37.55625 
L 181.949525 -37.55625 
L 182.511931 -37.55625 
L 183.074338 -37.55625 
L 183.636744 -37.55625 
L 184.199151 -37.55625 
L 184.761557 -37.55625 
L 185.323964 -37.55625 
L 185.88637 -37.55625 
L 186.448777 -37.55625 
L 187.011183 -37.55625 
L 187.57359 -37.55625 
L 188.135997 -37.55625 
L 188.698403 -37.55625 
L 189.26081 -37.55625 
L 189.823216 -37.55625 
L 190.385623 -37.55625 
L 190.948029 -37.55625 
L 191.510436 -37.55625 
L 192.072842 -37.55625 
L 192.635249 -37.55625 
L 193.197655 -37.55625 
L 193.760062 -37.55625 
L 193.760062 -37.67112 
L 193.760062 -37.67112 
L 193.197655 -37.69986 
L 192.635249 -37.734823 
L 192.072842 -37.777105 
L 191.510436 -37.827936 
L 190.948029 -37.888687 
L 190.385623 -37.960867 
L 189.823216 -38.046125 
L 189.26081 -38.146244 
L 188.698403 -38.263133 
L 188.135997 -38.398813 
L 187.57359 -38.555406 
L 187.011183 -38.73511 
L 186.448777 -38.940178 
L 185.88637 -39.172894 
L 185.323964 -39.435545 
L 184.761557 -39.730393 
L 184.199151 -40.059648 
L 183.636744 -40.425444 
L 183.074338 -40.829817 
L 182.511931 -41.274693 
L 181.949525 -41.761873 
L 181.387118 -42.29304 
L 180.824712 -42.869762 
L 180.262305 -43.493515 
L 179.699899 -44.165706 
L 179.137492 -44.887716 
L 178.575086 -45.660938 
L 178.012679 -46.486833 
L 177.450273 -47.366978 
L 176.887866 -48.303121 
L 176.32546 -49.297223 
L 175.763053 -50.3515 
L 175.200647 -51.46844 
L 174.63824 -52.65081 
L 174.075834 -53.901632 
L 173.513427 -55.22414 
L 172.95102 -56.621699 
L 172.388614 -58.097698 
L 171.826207 -59.655408 
L 171.263801 -61.297811 
L 170.701394 -63.027404 
L 170.138988 -64.845977 
L 169.576581 -66.754376 
L 169.014175 -68.752263 
L 168.451768 -70.837873 
L 167.889362 -73.007787 
L 167.326955 -75.25673 
L 166.764549 -77.5774 
L 166.202142 -79.960343 
L 165.639736 -82.393894 
L 165.077329 -84.864164 
L 164.514923 -87.355116 
L 163.952516 -89.848705 
L 163.39011 -92.325097 
L 162.827703 -94.762966 
L 162.265297 -97.139864 
L 161.70289 -99.432649 
L 161.140484 -101.617978 
L 160.578077 -103.67284 
L 160.015671 -105.575119 
L 159.453264 -107.304172 
L 158.890857 -108.84141 
L 158.328451 -110.170854 
L 157.766044 -111.279663 
L 157.203638 -112.15861 
L 156.641231 -112.802483 
L 156.078825 -113.210425 
L 155.516418 -113.386162 
L 154.954012 -113.338151 
L 154.391605 -113.079606 
L 153.829199 -112.62843 
L 153.266792 -112.007024 
L 152.704386 -111.241999 
L 152.141979 -110.363776 
L 151.579573 -109.406103 
L 151.017166 -108.405478 
L 150.45476 -107.400503 
L 149.892353 -106.431181 
L 149.329947 -105.538169 
L 148.76754 -104.762002 
L 148.205134 -104.142309 
L 147.642727 -103.717038 
L 147.080321 -103.521696 
L 146.517914 -103.58864 
L 145.955507 -103.94641 
L 145.393101 -104.619141 
L 144.830694 -105.626044 
L 144.268288 -106.980987 
L 143.705881 -108.692164 
L 143.143475 -110.761872 
L 142.581068 -113.186399 
L 142.018662 -115.956013 
L 141.456255 -119.055064 
L 140.893849 -122.462196 
L 140.331442 -126.150651 
L 139.769036 -130.088682 
L 139.206629 -134.240046 
L 138.644223 -138.564584 
L 138.081816 -143.018876 
L 137.51941 -147.556951 
L 136.957003 -152.131058 
L 136.394597 -156.692476 
L 135.83219 -161.192349 
L 135.269784 -165.582543 
L 134.707377 -169.816506 
L 134.144971 -173.850112 
L 133.582564 -177.642488 
L 133.020158 -181.156797 
L 132.457751 -184.36096 
L 131.895344 -187.228311 
L 131.332938 -189.738165 
L 130.770531 -191.876274 
L 130.208125 -193.635167 
L 129.645718 -195.014354 
L 129.083312 -196.020388 
L 128.520905 -196.666759 
L 127.958499 -196.97364 
L 127.396092 -196.967455 
L 126.833686 -196.680292 
L 126.271279 -196.149149 
L 125.708873 -195.415044 
L 125.146466 -194.521987 
L 124.58406 -193.515851 
L 124.021653 -192.443155 
L 123.459247 -191.349803 
L 122.89684 -190.279805 
L 122.334434 -189.274013 
L 121.772027 -188.368922 
L 121.209621 -187.595564 
L 120.647214 -186.978534 
L 120.084808 -186.535178 
L 119.522401 -186.274988 
L 118.959995 -186.199198 
L 118.397588 -186.300637 
L 117.835181 -186.563808 
L 117.272775 -186.965233 
L 116.710368 -187.474028 
L 116.147962 -188.052717 
L 115.585555 -188.65824 
L 115.023149 -189.243146 
L 114.460742 -189.756922 
L 113.898336 -190.147419 
L 113.335929 -190.36234 
L 112.773523 -190.350722 
L 112.211116 -190.064393 
L 111.64871 -189.459337 
L 111.086303 -188.49693 
L 110.523897 -187.145021 
L 109.96149 -185.378804 
L 109.399084 -183.181483 
L 108.836677 -180.54469 
L 108.274271 -177.468667 
L 107.711864 -173.962197 
L 107.149458 -170.042303 
L 106.587051 -165.733731 
L 106.024645 -161.068231 
L 105.462238 -156.08368 
L 104.899832 -150.823067 
L 104.337425 -145.333383 
L 103.775018 -139.664454 
L 103.212612 -133.867759 
L 102.650205 -127.995252 
L 102.087799 -122.098252 
L 101.525392 -116.226401 
L 100.962986 -110.426734 
L 100.400579 -104.742875 
L 99.838173 -99.214377 
L 99.275766 -93.876206 
L 98.71336 -88.758383 
L 98.150953 -83.885774 
L 97.588547 -79.278026 
L 97.02614 -74.949631 
L 96.463734 -70.910114 
L 95.901327 -67.164315 
L 95.338921 -63.71276 
L 94.776514 -60.552089 
L 94.214108 -57.675537 
L 93.651701 -55.073429 
L 93.089295 -52.733693 
L 92.526888 -50.642365 
L 91.964482 -48.784072 
L 91.402075 -47.142484 
L 90.839669 -45.700732 
L 90.277262 -44.441775 
L 89.714855 -43.348726 
L 89.152449 -42.405117 
L 88.590042 -41.595127 
L 88.027636 -40.903752 
L 87.465229 -40.316931 
L 86.902823 -39.821637 
L 86.340416 -39.405923 
L 85.77801 -39.058939 
L 85.215603 -38.770927 
L 84.653197 -38.533184 
L 84.09079 -38.338018 
L 83.528384 -38.178686 
L 82.965977 -38.049323 
L 82.403571 -37.944868 
L 81.841164 -37.860987 
z
" id="m20aa0027df" style="stroke:#2ca02c;"/>
    </defs>
    <g clip-path="url(#p77528d407c)">
     <use style="fill:#2ca02c;fill-opacity:0.25;stroke:#2ca02c;" x="0" xlink:href="#m20aa0027df" y="262.19625"/>
    </g>
   </g>
   <g id="PolyCollection_4">
    <defs>
     <path d="M 78.086932 -37.822788 
L 78.086932 -37.55625 
L 78.74381 -37.55625 
L 79.400687 -37.55625 
L 80.057565 -37.55625 
L 80.714443 -37.55625 
L 81.37132 -37.55625 
L 82.028198 -37.55625 
L 82.685076 -37.55625 
L 83.341953 -37.55625 
L 83.998831 -37.55625 
L 84.655709 -37.55625 
L 85.312586 -37.55625 
L 85.969464 -37.55625 
L 86.626342 -37.55625 
L 87.28322 -37.55625 
L 87.940097 -37.55625 
L 88.596975 -37.55625 
L 89.253853 -37.55625 
L 89.91073 -37.55625 
L 90.567608 -37.55625 
L 91.224486 -37.55625 
L 91.881363 -37.55625 
L 92.538241 -37.55625 
L 93.195119 -37.55625 
L 93.851996 -37.55625 
L 94.508874 -37.55625 
L 95.165752 -37.55625 
L 95.82263 -37.55625 
L 96.479507 -37.55625 
L 97.136385 -37.55625 
L 97.793263 -37.55625 
L 98.45014 -37.55625 
L 99.107018 -37.55625 
L 99.763896 -37.55625 
L 100.420773 -37.55625 
L 101.077651 -37.55625 
L 101.734529 -37.55625 
L 102.391406 -37.55625 
L 103.048284 -37.55625 
L 103.705162 -37.55625 
L 104.36204 -37.55625 
L 105.018917 -37.55625 
L 105.675795 -37.55625 
L 106.332673 -37.55625 
L 106.98955 -37.55625 
L 107.646428 -37.55625 
L 108.303306 -37.55625 
L 108.960183 -37.55625 
L 109.617061 -37.55625 
L 110.273939 -37.55625 
L 110.930816 -37.55625 
L 111.587694 -37.55625 
L 112.244572 -37.55625 
L 112.90145 -37.55625 
L 113.558327 -37.55625 
L 114.215205 -37.55625 
L 114.872083 -37.55625 
L 115.52896 -37.55625 
L 116.185838 -37.55625 
L 116.842716 -37.55625 
L 117.499593 -37.55625 
L 118.156471 -37.55625 
L 118.813349 -37.55625 
L 119.470227 -37.55625 
L 120.127104 -37.55625 
L 120.783982 -37.55625 
L 121.44086 -37.55625 
L 122.097737 -37.55625 
L 122.754615 -37.55625 
L 123.411493 -37.55625 
L 124.06837 -37.55625 
L 124.725248 -37.55625 
L 125.382126 -37.55625 
L 126.039003 -37.55625 
L 126.695881 -37.55625 
L 127.352759 -37.55625 
L 128.009637 -37.55625 
L 128.666514 -37.55625 
L 129.323392 -37.55625 
L 129.98027 -37.55625 
L 130.637147 -37.55625 
L 131.294025 -37.55625 
L 131.950903 -37.55625 
L 132.60778 -37.55625 
L 133.264658 -37.55625 
L 133.921536 -37.55625 
L 134.578413 -37.55625 
L 135.235291 -37.55625 
L 135.892169 -37.55625 
L 136.549047 -37.55625 
L 137.205924 -37.55625 
L 137.862802 -37.55625 
L 138.51968 -37.55625 
L 139.176557 -37.55625 
L 139.833435 -37.55625 
L 140.490313 -37.55625 
L 141.14719 -37.55625 
L 141.804068 -37.55625 
L 142.460946 -37.55625 
L 143.117823 -37.55625 
L 143.774701 -37.55625 
L 144.431579 -37.55625 
L 145.088457 -37.55625 
L 145.745334 -37.55625 
L 146.402212 -37.55625 
L 147.05909 -37.55625 
L 147.715967 -37.55625 
L 148.372845 -37.55625 
L 149.029723 -37.55625 
L 149.6866 -37.55625 
L 150.343478 -37.55625 
L 151.000356 -37.55625 
L 151.657233 -37.55625 
L 152.314111 -37.55625 
L 152.970989 -37.55625 
L 153.627867 -37.55625 
L 154.284744 -37.55625 
L 154.941622 -37.55625 
L 155.5985 -37.55625 
L 156.255377 -37.55625 
L 156.912255 -37.55625 
L 157.569133 -37.55625 
L 158.22601 -37.55625 
L 158.882888 -37.55625 
L 159.539766 -37.55625 
L 160.196643 -37.55625 
L 160.853521 -37.55625 
L 161.510399 -37.55625 
L 162.167277 -37.55625 
L 162.824154 -37.55625 
L 163.481032 -37.55625 
L 164.13791 -37.55625 
L 164.794787 -37.55625 
L 165.451665 -37.55625 
L 166.108543 -37.55625 
L 166.76542 -37.55625 
L 167.422298 -37.55625 
L 168.079176 -37.55625 
L 168.736054 -37.55625 
L 169.392931 -37.55625 
L 170.049809 -37.55625 
L 170.706687 -37.55625 
L 171.363564 -37.55625 
L 172.020442 -37.55625 
L 172.67732 -37.55625 
L 173.334197 -37.55625 
L 173.991075 -37.55625 
L 174.647953 -37.55625 
L 175.30483 -37.55625 
L 175.961708 -37.55625 
L 176.618586 -37.55625 
L 177.275464 -37.55625 
L 177.932341 -37.55625 
L 178.589219 -37.55625 
L 179.246097 -37.55625 
L 179.902974 -37.55625 
L 180.559852 -37.55625 
L 181.21673 -37.55625 
L 181.873607 -37.55625 
L 182.530485 -37.55625 
L 183.187363 -37.55625 
L 183.84424 -37.55625 
L 184.501118 -37.55625 
L 185.157996 -37.55625 
L 185.814874 -37.55625 
L 186.471751 -37.55625 
L 187.128629 -37.55625 
L 187.785507 -37.55625 
L 188.442384 -37.55625 
L 189.099262 -37.55625 
L 189.75614 -37.55625 
L 190.413017 -37.55625 
L 191.069895 -37.55625 
L 191.726773 -37.55625 
L 192.38365 -37.55625 
L 193.040528 -37.55625 
L 193.697406 -37.55625 
L 194.354284 -37.55625 
L 195.011161 -37.55625 
L 195.668039 -37.55625 
L 196.324917 -37.55625 
L 196.981794 -37.55625 
L 197.638672 -37.55625 
L 198.29555 -37.55625 
L 198.952427 -37.55625 
L 199.609305 -37.55625 
L 200.266183 -37.55625 
L 200.92306 -37.55625 
L 201.579938 -37.55625 
L 202.236816 -37.55625 
L 202.893694 -37.55625 
L 203.550571 -37.55625 
L 204.207449 -37.55625 
L 204.864327 -37.55625 
L 205.521204 -37.55625 
L 206.178082 -37.55625 
L 206.83496 -37.55625 
L 207.491837 -37.55625 
L 208.148715 -37.55625 
L 208.805593 -37.55625 
L 208.805593 -37.673633 
L 208.805593 -37.673633 
L 208.148715 -37.705994 
L 207.491837 -37.746099 
L 206.83496 -37.795466 
L 206.178082 -37.855818 
L 205.521204 -37.929099 
L 204.864327 -38.017469 
L 204.207449 -38.123301 
L 203.550571 -38.249173 
L 202.893694 -38.397841 
L 202.236816 -38.572211 
L 201.579938 -38.775293 
L 200.92306 -39.010149 
L 200.266183 -39.279824 
L 199.609305 -39.587266 
L 198.952427 -39.935243 
L 198.29555 -40.326238 
L 197.638672 -40.762349 
L 196.981794 -41.245176 
L 196.324917 -41.775723 
L 195.668039 -42.354284 
L 195.011161 -42.980355 
L 194.354284 -43.652557 
L 193.697406 -44.368573 
L 193.040528 -45.125112 
L 192.38365 -45.917907 
L 191.726773 -46.741741 
L 191.069895 -47.590506 
L 190.413017 -48.457306 
L 189.75614 -49.33459 
L 189.099262 -50.214324 
L 188.442384 -51.088192 
L 187.785507 -51.947828 
L 187.128629 -52.785065 
L 186.471751 -53.592194 
L 185.814874 -54.362236 
L 185.157996 -55.089195 
L 184.501118 -55.768307 
L 183.84424 -56.396256 
L 183.187363 -56.971359 
L 182.530485 -57.493704 
L 181.873607 -57.965246 
L 181.21673 -58.389846 
L 180.559852 -58.77325 
L 179.902974 -59.12302 
L 179.246097 -59.448406 
L 178.589219 -59.760171 
L 177.932341 -60.070366 
L 177.275464 -60.39208 
L 176.618586 -60.739153 
L 175.961708 -61.125878 
L 175.30483 -61.566692 
L 174.647953 -62.07587 
L 173.991075 -62.667232 
L 173.334197 -63.353866 
L 172.67732 -64.147875 
L 172.020442 -65.060162 
L 171.363564 -66.10024 
L 170.706687 -67.276084 
L 170.049809 -68.594016 
L 169.392931 -70.058628 
L 168.736054 -71.67274 
L 168.079176 -73.437388 
L 167.422298 -75.351845 
L 166.76542 -77.413667 
L 166.108543 -79.618763 
L 165.451665 -81.961488 
L 164.794787 -84.434752 
L 164.13791 -87.030143 
L 163.481032 -89.738069 
L 162.824154 -92.547899 
L 162.167277 -95.448114 
L 161.510399 -98.426462 
L 160.853521 -101.470104 
L 160.196643 -104.565756 
L 159.539766 -107.699821 
L 158.882888 -110.858501 
L 158.22601 -114.027902 
L 157.569133 -117.19411 
L 156.912255 -120.343255 
L 156.255377 -123.461555 
L 155.5985 -126.535353 
L 154.941622 -129.55114 
L 154.284744 -132.495586 
L 153.627867 -135.35558 
L 152.970989 -138.118282 
L 152.314111 -140.771216 
L 151.657233 -143.302385 
L 151.000356 -145.700442 
L 150.343478 -147.9549 
L 149.6866 -150.05638 
L 149.029723 -151.996914 
L 148.372845 -153.770264 
L 147.715967 -155.372261 
L 147.05909 -156.801149 
L 146.402212 -158.057893 
L 145.745334 -159.146453 
L 145.088457 -160.073981 
L 144.431579 -160.850931 
L 143.774701 -161.49105 
L 143.117823 -162.011249 
L 142.460946 -162.431336 
L 141.804068 -162.773597 
L 141.14719 -163.06226 
L 140.490313 -163.322813 
L 139.833435 -163.58124 
L 139.176557 -163.863156 
L 138.51968 -164.192914 
L 137.862802 -164.592693 
L 137.205924 -165.081615 
L 136.549047 -165.674935 
L 135.892169 -166.383331 
L 135.235291 -167.212337 
L 134.578413 -168.161939 
L 133.921536 -169.226365 
L 133.264658 -170.394073 
L 132.60778 -171.64795 
L 131.950903 -172.965708 
L 131.294025 -174.320478 
L 130.637147 -175.681561 
L 129.98027 -177.015332 
L 129.323392 -178.286241 
L 128.666514 -179.457889 
L 128.009637 -180.494127 
L 127.352759 -181.360143 
L 126.695881 -182.023505 
L 126.039003 -182.455098 
L 125.382126 -182.629958 
L 124.725248 -182.527936 
L 124.06837 -182.134211 
L 123.411493 -181.439606 
L 122.754615 -180.440718 
L 122.097737 -179.139859 
L 121.44086 -177.544817 
L 120.783982 -175.668448 
L 120.127104 -173.528123 
L 119.470227 -171.145057 
L 118.813349 -168.543542 
L 118.156471 -165.750122 
L 117.499593 -162.792735 
L 116.842716 -159.699859 
L 116.185838 -156.499688 
L 115.52896 -153.219374 
L 114.872083 -149.884341 
L 114.215205 -146.517716 
L 113.558327 -143.139871 
L 112.90145 -139.768093 
L 112.244572 -136.4164 
L 111.587694 -133.095475 
L 110.930816 -129.812746 
L 110.273939 -126.572573 
L 109.617061 -123.376549 
L 108.960183 -120.223885 
L 108.303306 -117.111868 
L 107.646428 -114.036362 
L 106.98955 -110.992341 
L 106.332673 -107.97441 
L 105.675795 -104.977323 
L 105.018917 -101.996447 
L 104.36204 -99.028173 
L 103.705162 -96.070257 
L 103.048284 -93.122064 
L 102.391406 -90.184738 
L 101.734529 -87.261264 
L 101.077651 -84.35644 
L 100.420773 -81.476768 
L 99.763896 -78.630258 
L 99.107018 -75.826167 
L 98.45014 -73.074691 
L 97.793263 -70.38662 
L 97.136385 -67.772968 
L 96.479507 -65.244608 
L 95.82263 -62.811921 
L 95.165752 -60.484472 
L 94.508874 -58.270726 
L 93.851996 -56.177816 
L 93.195119 -54.211368 
L 92.538241 -52.375385 
L 91.881363 -50.672194 
L 91.224486 -49.102451 
L 90.567608 -47.665197 
L 89.91073 -46.357962 
L 89.253853 -45.176914 
L 88.596975 -44.117026 
L 87.940097 -43.172275 
L 87.28322 -42.335842 
L 86.626342 -41.600327 
L 85.969464 -40.957942 
L 85.312586 -40.400709 
L 84.655709 -39.920627 
L 83.998831 -39.509829 
L 83.341953 -39.160709 
L 82.685076 -38.866025 
L 82.028198 -38.61898 
L 81.37132 -38.413283 
L 80.714443 -38.243175 
L 80.057565 -38.103454 
L 79.400687 -37.989471 
L 78.74381 -37.897115 
L 78.086932 -37.822788 
z
" id="mbae1c7129e" style="stroke:#d62728;"/>
    </defs>
    <g clip-path="url(#p77528d407c)">
     <use style="fill:#d62728;fill-opacity:0.25;stroke:#d62728;" x="0" xlink:href="#mbae1c7129e" y="262.19625"/>
    </g>
   </g>
   <g id="matplotlib.axis_1">
    <g id="xtick_1">
     <g id="line2d_1">
      <defs>
       <path d="M 0 0 
L 0 3.5 
" id="m2b31856527" style="stroke:#000000;stroke-width:0.8;"/>
      </defs>
      <g>
       <use style="stroke:#000000;stroke-width:0.8;" x="88.350166" xlink:href="#m2b31856527" y="224.64"/>
      </g>
     </g>
     <g id="text_1">
      <!-- 0 -->
      <g transform="translate(85.168916 239.238437)scale(0.1 -0.1)">
       <defs>
        <path d="M 2034 4250 
Q 1547 4250 1301 3770 
Q 1056 3291 1056 2328 
Q 1056 1369 1301 889 
Q 1547 409 2034 409 
Q 2525 409 2770 889 
Q 3016 1369 3016 2328 
Q 3016 3291 2770 3770 
Q 2525 4250 2034 4250 
z
M 2034 4750 
Q 2819 4750 3233 4129 
Q 3647 3509 3647 2328 
Q 3647 1150 3233 529 
Q 2819 -91 2034 -91 
Q 1250 -91 836 529 
Q 422 1150 422 2328 
Q 422 3509 836 4129 
Q 1250 4750 2034 4750 
z
" id="DejaVuSans-30" transform="scale(0.015625)"/>
       </defs>
       <use xlink:href="#DejaVuSans-30"/>
      </g>
     </g>
    </g>
    <g id="xtick_2">
     <g id="line2d_2">
      <g>
       <use style="stroke:#000000;stroke-width:0.8;" x="156.370038" xlink:href="#m2b31856527" y="224.64"/>
      </g>
     </g>
     <g id="text_2">
      <!-- 500 -->
      <g transform="translate(146.826288 239.238437)scale(0.1 -0.1)">
       <defs>
        <path d="M 691 4666 
L 3169 4666 
L 3169 4134 
L 1269 4134 
L 1269 2991 
Q 1406 3038 1543 3061 
Q 1681 3084 1819 3084 
Q 2600 3084 3056 2656 
Q 3513 2228 3513 1497 
Q 3513 744 3044 326 
Q 2575 -91 1722 -91 
Q 1428 -91 1123 -41 
Q 819 9 494 109 
L 494 744 
Q 775 591 1075 516 
Q 1375 441 1709 441 
Q 2250 441 2565 725 
Q 2881 1009 2881 1497 
Q 2881 1984 2565 2268 
Q 2250 2553 1709 2553 
Q 1456 2553 1204 2497 
Q 953 2441 691 2322 
L 691 4666 
z
" id="DejaVuSans-35" transform="scale(0.015625)"/>
       </defs>
       <use xlink:href="#DejaVuSans-35"/>
       <use x="63.623047" xlink:href="#DejaVuSans-30"/>
       <use x="127.246094" xlink:href="#DejaVuSans-30"/>
      </g>
     </g>
    </g>
    <g id="xtick_3">
     <g id="line2d_3">
      <g>
       <use style="stroke:#000000;stroke-width:0.8;" x="224.38991" xlink:href="#m2b31856527" y="224.64"/>
      </g>
     </g>
     <g id="text_3">
      <!-- 1000 -->
      <g transform="translate(211.66491 239.238437)scale(0.1 -0.1)">
       <defs>
        <path d="M 794 531 
L 1825 531 
L 1825 4091 
L 703 3866 
L 703 4441 
L 1819 4666 
L 2450 4666 
L 2450 531 
L 3481 531 
L 3481 0 
L 794 0 
L 794 531 
z
" id="DejaVuSans-31" transform="scale(0.015625)"/>
       </defs>
       <use xlink:href="#DejaVuSans-31"/>
       <use x="63.623047" xlink:href="#DejaVuSans-30"/>
       <use x="127.246094" xlink:href="#DejaVuSans-30"/>
       <use x="190.869141" xlink:href="#DejaVuSans-30"/>
      </g>
     </g>
    </g>
    <g id="xtick_4">
     <g id="line2d_4">
      <g>
       <use style="stroke:#000000;stroke-width:0.8;" x="292.409782" xlink:href="#m2b31856527" y="224.64"/>
      </g>
     </g>
     <g id="text_4">
      <!-- 1500 -->
      <g transform="translate(279.684782 239.238437)scale(0.1 -0.1)">
       <use xlink:href="#DejaVuSans-31"/>
       <use x="63.623047" xlink:href="#DejaVuSans-35"/>
       <use x="127.246094" xlink:href="#DejaVuSans-30"/>
       <use x="190.869141" xlink:href="#DejaVuSans-30"/>
      </g>
     </g>
    </g>
    <g id="xtick_5">
     <g id="line2d_5">
      <g>
       <use style="stroke:#000000;stroke-width:0.8;" x="360.429653" xlink:href="#m2b31856527" y="224.64"/>
      </g>
     </g>
     <g id="text_5">
      <!-- 2000 -->
      <g transform="translate(347.704653 239.238437)scale(0.1 -0.1)">
       <defs>
        <path d="M 1228 531 
L 3431 531 
L 3431 0 
L 469 0 
L 469 531 
Q 828 903 1448 1529 
Q 2069 2156 2228 2338 
Q 2531 2678 2651 2914 
Q 2772 3150 2772 3378 
Q 2772 3750 2511 3984 
Q 2250 4219 1831 4219 
Q 1534 4219 1204 4116 
Q 875 4013 500 3803 
L 500 4441 
Q 881 4594 1212 4672 
Q 1544 4750 1819 4750 
Q 2544 4750 2975 4387 
Q 3406 4025 3406 3419 
Q 3406 3131 3298 2873 
Q 3191 2616 2906 2266 
Q 2828 2175 2409 1742 
Q 1991 1309 1228 531 
z
" id="DejaVuSans-32" transform="scale(0.015625)"/>
       </defs>
       <use xlink:href="#DejaVuSans-32"/>
       <use x="63.623047" xlink:href="#DejaVuSans-30"/>
       <use x="127.246094" xlink:href="#DejaVuSans-30"/>
       <use x="190.869141" xlink:href="#DejaVuSans-30"/>
      </g>
     </g>
    </g>
    <g id="text_6">
     <!-- Number of fixations -->
     <g transform="translate(180.830469 252.916562)scale(0.1 -0.1)">
      <defs>
       <path d="M 628 4666 
L 1478 4666 
L 3547 763 
L 3547 4666 
L 4159 4666 
L 4159 0 
L 3309 0 
L 1241 3903 
L 1241 0 
L 628 0 
L 628 4666 
z
" id="DejaVuSans-4e" transform="scale(0.015625)"/>
       <path d="M 544 1381 
L 544 3500 
L 1119 3500 
L 1119 1403 
Q 1119 906 1312 657 
Q 1506 409 1894 409 
Q 2359 409 2629 706 
Q 2900 1003 2900 1516 
L 2900 3500 
L 3475 3500 
L 3475 0 
L 2900 0 
L 2900 538 
Q 2691 219 2414 64 
Q 2138 -91 1772 -91 
Q 1169 -91 856 284 
Q 544 659 544 1381 
z
M 1991 3584 
L 1991 3584 
z
" id="DejaVuSans-75" transform="scale(0.015625)"/>
       <path d="M 3328 2828 
Q 3544 3216 3844 3400 
Q 4144 3584 4550 3584 
Q 5097 3584 5394 3201 
Q 5691 2819 5691 2113 
L 5691 0 
L 5113 0 
L 5113 2094 
Q 5113 2597 4934 2840 
Q 4756 3084 4391 3084 
Q 3944 3084 3684 2787 
Q 3425 2491 3425 1978 
L 3425 0 
L 2847 0 
L 2847 2094 
Q 2847 2600 2669 2842 
Q 2491 3084 2119 3084 
Q 1678 3084 1418 2786 
Q 1159 2488 1159 1978 
L 1159 0 
L 581 0 
L 581 3500 
L 1159 3500 
L 1159 2956 
Q 1356 3278 1631 3431 
Q 1906 3584 2284 3584 
Q 2666 3584 2933 3390 
Q 3200 3197 3328 2828 
z
" id="DejaVuSans-6d" transform="scale(0.015625)"/>
       <path d="M 3116 1747 
Q 3116 2381 2855 2742 
Q 2594 3103 2138 3103 
Q 1681 3103 1420 2742 
Q 1159 2381 1159 1747 
Q 1159 1113 1420 752 
Q 1681 391 2138 391 
Q 2594 391 2855 752 
Q 3116 1113 3116 1747 
z
M 1159 2969 
Q 1341 3281 1617 3432 
Q 1894 3584 2278 3584 
Q 2916 3584 3314 3078 
Q 3713 2572 3713 1747 
Q 3713 922 3314 415 
Q 2916 -91 2278 -91 
Q 1894 -91 1617 61 
Q 1341 213 1159 525 
L 1159 0 
L 581 0 
L 581 4863 
L 1159 4863 
L 1159 2969 
z
" id="DejaVuSans-62" transform="scale(0.015625)"/>
       <path d="M 3597 1894 
L 3597 1613 
L 953 1613 
Q 991 1019 1311 708 
Q 1631 397 2203 397 
Q 2534 397 2845 478 
Q 3156 559 3463 722 
L 3463 178 
Q 3153 47 2828 -22 
Q 2503 -91 2169 -91 
Q 1331 -91 842 396 
Q 353 884 353 1716 
Q 353 2575 817 3079 
Q 1281 3584 2069 3584 
Q 2775 3584 3186 3129 
Q 3597 2675 3597 1894 
z
M 3022 2063 
Q 3016 2534 2758 2815 
Q 2500 3097 2075 3097 
Q 1594 3097 1305 2825 
Q 1016 2553 972 2059 
L 3022 2063 
z
" id="DejaVuSans-65" transform="scale(0.015625)"/>
       <path d="M 2631 2963 
Q 2534 3019 2420 3045 
Q 2306 3072 2169 3072 
Q 1681 3072 1420 2755 
Q 1159 2438 1159 1844 
L 1159 0 
L 581 0 
L 581 3500 
L 1159 3500 
L 1159 2956 
Q 1341 3275 1631 3429 
Q 1922 3584 2338 3584 
Q 2397 3584 2469 3576 
Q 2541 3569 2628 3553 
L 2631 2963 
z
" id="DejaVuSans-72" transform="scale(0.015625)"/>
       <path id="DejaVuSans-20" transform="scale(0.015625)"/>
       <path d="M 1959 3097 
Q 1497 3097 1228 2736 
Q 959 2375 959 1747 
Q 959 1119 1226 758 
Q 1494 397 1959 397 
Q 2419 397 2687 759 
Q 2956 1122 2956 1747 
Q 2956 2369 2687 2733 
Q 2419 3097 1959 3097 
z
M 1959 3584 
Q 2709 3584 3137 3096 
Q 3566 2609 3566 1747 
Q 3566 888 3137 398 
Q 2709 -91 1959 -91 
Q 1206 -91 779 398 
Q 353 888 353 1747 
Q 353 2609 779 3096 
Q 1206 3584 1959 3584 
z
" id="DejaVuSans-6f" transform="scale(0.015625)"/>
       <path d="M 2375 4863 
L 2375 4384 
L 1825 4384 
Q 1516 4384 1395 4259 
Q 1275 4134 1275 3809 
L 1275 3500 
L 2222 3500 
L 2222 3053 
L 1275 3053 
L 1275 0 
L 697 0 
L 697 3053 
L 147 3053 
L 147 3500 
L 697 3500 
L 697 3744 
Q 697 4328 969 4595 
Q 1241 4863 1831 4863 
L 2375 4863 
z
" id="DejaVuSans-66" transform="scale(0.015625)"/>
       <path d="M 603 3500 
L 1178 3500 
L 1178 0 
L 603 0 
L 603 3500 
z
M 603 4863 
L 1178 4863 
L 1178 4134 
L 603 4134 
L 603 4863 
z
" id="DejaVuSans-69" transform="scale(0.015625)"/>
       <path d="M 3513 3500 
L 2247 1797 
L 3578 0 
L 2900 0 
L 1881 1375 
L 863 0 
L 184 0 
L 1544 1831 
L 300 3500 
L 978 3500 
L 1906 2253 
L 2834 3500 
L 3513 3500 
z
" id="DejaVuSans-78" transform="scale(0.015625)"/>
       <path d="M 2194 1759 
Q 1497 1759 1228 1600 
Q 959 1441 959 1056 
Q 959 750 1161 570 
Q 1363 391 1709 391 
Q 2188 391 2477 730 
Q 2766 1069 2766 1631 
L 2766 1759 
L 2194 1759 
z
M 3341 1997 
L 3341 0 
L 2766 0 
L 2766 531 
Q 2569 213 2275 61 
Q 1981 -91 1556 -91 
Q 1019 -91 701 211 
Q 384 513 384 1019 
Q 384 1609 779 1909 
Q 1175 2209 1959 2209 
L 2766 2209 
L 2766 2266 
Q 2766 2663 2505 2880 
Q 2244 3097 1772 3097 
Q 1472 3097 1187 3025 
Q 903 2953 641 2809 
L 641 3341 
Q 956 3463 1253 3523 
Q 1550 3584 1831 3584 
Q 2591 3584 2966 3190 
Q 3341 2797 3341 1997 
z
" id="DejaVuSans-61" transform="scale(0.015625)"/>
       <path d="M 1172 4494 
L 1172 3500 
L 2356 3500 
L 2356 3053 
L 1172 3053 
L 1172 1153 
Q 1172 725 1289 603 
Q 1406 481 1766 481 
L 2356 481 
L 2356 0 
L 1766 0 
Q 1100 0 847 248 
Q 594 497 594 1153 
L 594 3053 
L 172 3053 
L 172 3500 
L 594 3500 
L 594 4494 
L 1172 4494 
z
" id="DejaVuSans-74" transform="scale(0.015625)"/>
       <path d="M 3513 2113 
L 3513 0 
L 2938 0 
L 2938 2094 
Q 2938 2591 2744 2837 
Q 2550 3084 2163 3084 
Q 1697 3084 1428 2787 
Q 1159 2491 1159 1978 
L 1159 0 
L 581 0 
L 581 3500 
L 1159 3500 
L 1159 2956 
Q 1366 3272 1645 3428 
Q 1925 3584 2291 3584 
Q 2894 3584 3203 3211 
Q 3513 2838 3513 2113 
z
" id="DejaVuSans-6e" transform="scale(0.015625)"/>
       <path d="M 2834 3397 
L 2834 2853 
Q 2591 2978 2328 3040 
Q 2066 3103 1784 3103 
Q 1356 3103 1142 2972 
Q 928 2841 928 2578 
Q 928 2378 1081 2264 
Q 1234 2150 1697 2047 
L 1894 2003 
Q 2506 1872 2764 1633 
Q 3022 1394 3022 966 
Q 3022 478 2636 193 
Q 2250 -91 1575 -91 
Q 1294 -91 989 -36 
Q 684 19 347 128 
L 347 722 
Q 666 556 975 473 
Q 1284 391 1588 391 
Q 1994 391 2212 530 
Q 2431 669 2431 922 
Q 2431 1156 2273 1281 
Q 2116 1406 1581 1522 
L 1381 1569 
Q 847 1681 609 1914 
Q 372 2147 372 2553 
Q 372 3047 722 3315 
Q 1072 3584 1716 3584 
Q 2034 3584 2315 3537 
Q 2597 3491 2834 3397 
z
" id="DejaVuSans-73" transform="scale(0.015625)"/>
      </defs>
      <use xlink:href="#DejaVuSans-4e"/>
      <use x="74.804688" xlink:href="#DejaVuSans-75"/>
      <use x="138.183594" xlink:href="#DejaVuSans-6d"/>
      <use x="235.595703" xlink:href="#DejaVuSans-62"/>
      <use x="299.072266" xlink:href="#DejaVuSans-65"/>
      <use x="360.595703" xlink:href="#DejaVuSans-72"/>
      <use x="401.708984" xlink:href="#DejaVuSans-20"/>
      <use x="433.496094" xlink:href="#DejaVuSans-6f"/>
      <use x="494.677734" xlink:href="#DejaVuSans-66"/>
      <use x="529.882812" xlink:href="#DejaVuSans-20"/>
      <use x="561.669922" xlink:href="#DejaVuSans-66"/>
      <use x="596.875" xlink:href="#DejaVuSans-69"/>
      <use x="624.658203" xlink:href="#DejaVuSans-78"/>
      <use x="683.837891" xlink:href="#DejaVuSans-61"/>
      <use x="745.117188" xlink:href="#DejaVuSans-74"/>
      <use x="784.326172" xlink:href="#DejaVuSans-69"/>
      <use x="812.109375" xlink:href="#DejaVuSans-6f"/>
      <use x="873.291016" xlink:href="#DejaVuSans-6e"/>
      <use x="936.669922" xlink:href="#DejaVuSans-73"/>
     </g>
    </g>
   </g>
   <g id="matplotlib.axis_2">
    <g id="ytick_1">
     <g id="line2d_6">
      <defs>
       <path d="M 0 0 
L -3.5 0 
" id="md1d5d9a973" style="stroke:#000000;stroke-width:0.8;"/>
      </defs>
      <g>
       <use style="stroke:#000000;stroke-width:0.8;" x="62.86875" xlink:href="#md1d5d9a973" y="224.64"/>
      </g>
     </g>
     <g id="text_7">
      <!-- 0.0000 -->
      <g transform="translate(20.878125 228.439219)scale(0.1 -0.1)">
       <defs>
        <path d="M 684 794 
L 1344 794 
L 1344 0 
L 684 0 
L 684 794 
z
" id="DejaVuSans-2e" transform="scale(0.015625)"/>
       </defs>
       <use xlink:href="#DejaVuSans-30"/>
       <use x="63.623047" xlink:href="#DejaVuSans-2e"/>
       <use x="95.410156" xlink:href="#DejaVuSans-30"/>
       <use x="159.033203" xlink:href="#DejaVuSans-30"/>
       <use x="222.65625" xlink:href="#DejaVuSans-30"/>
       <use x="286.279297" xlink:href="#DejaVuSans-30"/>
      </g>
     </g>
    </g>
    <g id="ytick_2">
     <g id="line2d_7">
      <g>
       <use style="stroke:#000000;stroke-width:0.8;" x="62.86875" xlink:href="#md1d5d9a973" y="195.762916"/>
      </g>
     </g>
     <g id="text_8">
      <!-- 0.0005 -->
      <g transform="translate(20.878125 199.562134)scale(0.1 -0.1)">
       <use xlink:href="#DejaVuSans-30"/>
       <use x="63.623047" xlink:href="#DejaVuSans-2e"/>
       <use x="95.410156" xlink:href="#DejaVuSans-30"/>
       <use x="159.033203" xlink:href="#DejaVuSans-30"/>
       <use x="222.65625" xlink:href="#DejaVuSans-30"/>
       <use x="286.279297" xlink:href="#DejaVuSans-35"/>
      </g>
     </g>
    </g>
    <g id="ytick_3">
     <g id="line2d_8">
      <g>
       <use style="stroke:#000000;stroke-width:0.8;" x="62.86875" xlink:href="#md1d5d9a973" y="166.885831"/>
      </g>
     </g>
     <g id="text_9">
      <!-- 0.0010 -->
      <g transform="translate(20.878125 170.68505)scale(0.1 -0.1)">
       <use xlink:href="#DejaVuSans-30"/>
       <use x="63.623047" xlink:href="#DejaVuSans-2e"/>
       <use x="95.410156" xlink:href="#DejaVuSans-30"/>
       <use x="159.033203" xlink:href="#DejaVuSans-30"/>
       <use x="222.65625" xlink:href="#DejaVuSans-31"/>
       <use x="286.279297" xlink:href="#DejaVuSans-30"/>
      </g>
     </g>
    </g>
    <g id="ytick_4">
     <g id="line2d_9">
      <g>
       <use style="stroke:#000000;stroke-width:0.8;" x="62.86875" xlink:href="#md1d5d9a973" y="138.008747"/>
      </g>
     </g>
     <g id="text_10">
      <!-- 0.0015 -->
      <g transform="translate(20.878125 141.807965)scale(0.1 -0.1)">
       <use xlink:href="#DejaVuSans-30"/>
       <use x="63.623047" xlink:href="#DejaVuSans-2e"/>
       <use x="95.410156" xlink:href="#DejaVuSans-30"/>
       <use x="159.033203" xlink:href="#DejaVuSans-30"/>
       <use x="222.65625" xlink:href="#DejaVuSans-31"/>
       <use x="286.279297" xlink:href="#DejaVuSans-35"/>
      </g>
     </g>
    </g>
    <g id="ytick_5">
     <g id="line2d_10">
      <g>
       <use style="stroke:#000000;stroke-width:0.8;" x="62.86875" xlink:href="#md1d5d9a973" y="109.131662"/>
      </g>
     </g>
     <g id="text_11">
      <!-- 0.0020 -->
      <g transform="translate(20.878125 112.930881)scale(0.1 -0.1)">
       <use xlink:href="#DejaVuSans-30"/>
       <use x="63.623047" xlink:href="#DejaVuSans-2e"/>
       <use x="95.410156" xlink:href="#DejaVuSans-30"/>
       <use x="159.033203" xlink:href="#DejaVuSans-30"/>
       <use x="222.65625" xlink:href="#DejaVuSans-32"/>
       <use x="286.279297" xlink:href="#DejaVuSans-30"/>
      </g>
     </g>
    </g>
    <g id="ytick_6">
     <g id="line2d_11">
      <g>
       <use style="stroke:#000000;stroke-width:0.8;" x="62.86875" xlink:href="#md1d5d9a973" y="80.254578"/>
      </g>
     </g>
     <g id="text_12">
      <!-- 0.0025 -->
      <g transform="translate(20.878125 84.053796)scale(0.1 -0.1)">
       <use xlink:href="#DejaVuSans-30"/>
       <use x="63.623047" xlink:href="#DejaVuSans-2e"/>
       <use x="95.410156" xlink:href="#DejaVuSans-30"/>
       <use x="159.033203" xlink:href="#DejaVuSans-30"/>
       <use x="222.65625" xlink:href="#DejaVuSans-32"/>
       <use x="286.279297" xlink:href="#DejaVuSans-35"/>
      </g>
     </g>
    </g>
    <g id="ytick_7">
     <g id="line2d_12">
      <g>
       <use style="stroke:#000000;stroke-width:0.8;" x="62.86875" xlink:href="#md1d5d9a973" y="51.377493"/>
      </g>
     </g>
     <g id="text_13">
      <!-- 0.0030 -->
      <g transform="translate(20.878125 55.176712)scale(0.1 -0.1)">
       <defs>
        <path d="M 2597 2516 
Q 3050 2419 3304 2112 
Q 3559 1806 3559 1356 
Q 3559 666 3084 287 
Q 2609 -91 1734 -91 
Q 1441 -91 1130 -33 
Q 819 25 488 141 
L 488 750 
Q 750 597 1062 519 
Q 1375 441 1716 441 
Q 2309 441 2620 675 
Q 2931 909 2931 1356 
Q 2931 1769 2642 2001 
Q 2353 2234 1838 2234 
L 1294 2234 
L 1294 2753 
L 1863 2753 
Q 2328 2753 2575 2939 
Q 2822 3125 2822 3475 
Q 2822 3834 2567 4026 
Q 2313 4219 1838 4219 
Q 1578 4219 1281 4162 
Q 984 4106 628 3988 
L 628 4550 
Q 988 4650 1302 4700 
Q 1616 4750 1894 4750 
Q 2613 4750 3031 4423 
Q 3450 4097 3450 3541 
Q 3450 3153 3228 2886 
Q 3006 2619 2597 2516 
z
" id="DejaVuSans-33" transform="scale(0.015625)"/>
       </defs>
       <use xlink:href="#DejaVuSans-30"/>
       <use x="63.623047" xlink:href="#DejaVuSans-2e"/>
       <use x="95.410156" xlink:href="#DejaVuSans-30"/>
       <use x="159.033203" xlink:href="#DejaVuSans-30"/>
       <use x="222.65625" xlink:href="#DejaVuSans-33"/>
       <use x="286.279297" xlink:href="#DejaVuSans-30"/>
      </g>
     </g>
    </g>
    <g id="ytick_8">
     <g id="line2d_13">
      <g>
       <use style="stroke:#000000;stroke-width:0.8;" x="62.86875" xlink:href="#md1d5d9a973" y="22.500409"/>
      </g>
     </g>
     <g id="text_14">
      <!-- 0.0035 -->
      <g transform="translate(20.878125 26.299627)scale(0.1 -0.1)">
       <use xlink:href="#DejaVuSans-30"/>
       <use x="63.623047" xlink:href="#DejaVuSans-2e"/>
       <use x="95.410156" xlink:href="#DejaVuSans-30"/>
       <use x="159.033203" xlink:href="#DejaVuSans-30"/>
       <use x="222.65625" xlink:href="#DejaVuSans-33"/>
       <use x="286.279297" xlink:href="#DejaVuSans-35"/>
      </g>
     </g>
    </g>
    <g id="text_15">
     <!-- Density -->
     <g transform="translate(14.798438 134.928594)rotate(-90)scale(0.1 -0.1)">
      <defs>
       <path d="M 1259 4147 
L 1259 519 
L 2022 519 
Q 2988 519 3436 956 
Q 3884 1394 3884 2338 
Q 3884 3275 3436 3711 
Q 2988 4147 2022 4147 
L 1259 4147 
z
M 628 4666 
L 1925 4666 
Q 3281 4666 3915 4102 
Q 4550 3538 4550 2338 
Q 4550 1131 3912 565 
Q 3275 0 1925 0 
L 628 0 
L 628 4666 
z
" id="DejaVuSans-44" transform="scale(0.015625)"/>
       <path d="M 2059 -325 
Q 1816 -950 1584 -1140 
Q 1353 -1331 966 -1331 
L 506 -1331 
L 506 -850 
L 844 -850 
Q 1081 -850 1212 -737 
Q 1344 -625 1503 -206 
L 1606 56 
L 191 3500 
L 800 3500 
L 1894 763 
L 2988 3500 
L 3597 3500 
L 2059 -325 
z
" id="DejaVuSans-79" transform="scale(0.015625)"/>
      </defs>
      <use xlink:href="#DejaVuSans-44"/>
      <use x="77.001953" xlink:href="#DejaVuSans-65"/>
      <use x="138.525391" xlink:href="#DejaVuSans-6e"/>
      <use x="201.904297" xlink:href="#DejaVuSans-73"/>
      <use x="254.003906" xlink:href="#DejaVuSans-69"/>
      <use x="281.787109" xlink:href="#DejaVuSans-74"/>
      <use x="320.996094" xlink:href="#DejaVuSans-79"/>
     </g>
    </g>
   </g>
   <g id="patch_3">
    <path d="M 62.86875 224.64 
L 62.86875 7.2 
" style="fill:none;stroke:#000000;stroke-linecap:square;stroke-linejoin:miter;stroke-width:0.8;"/>
   </g>
   <g id="patch_4">
    <path d="M 397.66875 224.64 
L 397.66875 7.2 
" style="fill:none;stroke:#000000;stroke-linecap:square;stroke-linejoin:miter;stroke-width:0.8;"/>
   </g>
   <g id="patch_5">
    <path d="M 62.86875 224.64 
L 397.66875 224.64 
" style="fill:none;stroke:#000000;stroke-linecap:square;stroke-linejoin:miter;stroke-width:0.8;"/>
   </g>
   <g id="patch_6">
    <path d="M 62.86875 7.2 
L 397.66875 7.2 
" style="fill:none;stroke:#000000;stroke-linecap:square;stroke-linejoin:miter;stroke-width:0.8;"/>
   </g>
   <g id="legend_1">
    <g id="patch_7">
     <path d="M 328.26875 73.9125 
L 390.66875 73.9125 
Q 392.66875 73.9125 392.66875 71.9125 
L 392.66875 14.2 
Q 392.66875 12.2 390.66875 12.2 
L 328.26875 12.2 
Q 326.26875 12.2 326.26875 14.2 
L 326.26875 71.9125 
Q 326.26875 73.9125 328.26875 73.9125 
z
" style="fill:#ffffff;opacity:0.8;stroke:#cccccc;stroke-linejoin:miter;"/>
    </g>
    <g id="patch_8">
     <path d="M 330.26875 23.798437 
L 350.26875 23.798437 
L 350.26875 16.798437 
L 330.26875 16.798437 
z
" style="fill:#1f77b4;fill-opacity:0.25;stroke:#1f77b4;stroke-linejoin:miter;"/>
    </g>
    <g id="text_16">
     <!-- Prawa -->
     <g transform="translate(358.26875 23.798437)scale(0.1 -0.1)">
      <defs>
       <path d="M 1259 4147 
L 1259 2394 
L 2053 2394 
Q 2494 2394 2734 2622 
Q 2975 2850 2975 3272 
Q 2975 3691 2734 3919 
Q 2494 4147 2053 4147 
L 1259 4147 
z
M 628 4666 
L 2053 4666 
Q 2838 4666 3239 4311 
Q 3641 3956 3641 3272 
Q 3641 2581 3239 2228 
Q 2838 1875 2053 1875 
L 1259 1875 
L 1259 0 
L 628 0 
L 628 4666 
z
" id="DejaVuSans-50" transform="scale(0.015625)"/>
       <path d="M 269 3500 
L 844 3500 
L 1563 769 
L 2278 3500 
L 2956 3500 
L 3675 769 
L 4391 3500 
L 4966 3500 
L 4050 0 
L 3372 0 
L 2619 2869 
L 1863 0 
L 1184 0 
L 269 3500 
z
" id="DejaVuSans-77" transform="scale(0.015625)"/>
      </defs>
      <use xlink:href="#DejaVuSans-50"/>
      <use x="58.552734" xlink:href="#DejaVuSans-72"/>
      <use x="99.666016" xlink:href="#DejaVuSans-61"/>
      <use x="160.945312" xlink:href="#DejaVuSans-77"/>
      <use x="242.732422" xlink:href="#DejaVuSans-61"/>
     </g>
    </g>
    <g id="patch_9">
     <path d="M 330.26875 38.476562 
L 350.26875 38.476562 
L 350.26875 31.476562 
L 330.26875 31.476562 
z
" style="fill:#ff7f0e;fill-opacity:0.25;stroke:#ff7f0e;stroke-linejoin:miter;"/>
    </g>
    <g id="text_17">
     <!-- Przd -->
     <g transform="translate(358.26875 38.476562)scale(0.1 -0.1)">
      <defs>
       <path d="M 353 3500 
L 3084 3500 
L 3084 2975 
L 922 459 
L 3084 459 
L 3084 0 
L 275 0 
L 275 525 
L 2438 3041 
L 353 3041 
L 353 3500 
z
" id="DejaVuSans-7a" transform="scale(0.015625)"/>
       <path d="M 1959 3097 
Q 1497 3097 1228 2736 
Q 959 2375 959 1747 
Q 959 1119 1226 758 
Q 1494 397 1959 397 
Q 2419 397 2687 759 
Q 2956 1122 2956 1747 
Q 2956 2369 2687 2733 
Q 2419 3097 1959 3097 
z
M 1959 3584 
Q 2709 3584 3137 3096 
Q 3566 2609 3566 1747 
Q 3566 888 3137 398 
Q 2709 -91 1959 -91 
Q 1206 -91 779 398 
Q 353 888 353 1747 
Q 353 2609 779 3096 
Q 1206 3584 1959 3584 
z
M 2394 5119 
L 3016 5119 
L 1998 3944 
L 1519 3944 
L 2394 5119 
z
" id="DejaVuSans-f3" transform="scale(0.015625)"/>
       <path d="M 2906 2969 
L 2906 4863 
L 3481 4863 
L 3481 0 
L 2906 0 
L 2906 525 
Q 2725 213 2448 61 
Q 2172 -91 1784 -91 
Q 1150 -91 751 415 
Q 353 922 353 1747 
Q 353 2572 751 3078 
Q 1150 3584 1784 3584 
Q 2172 3584 2448 3432 
Q 2725 3281 2906 2969 
z
M 947 1747 
Q 947 1113 1208 752 
Q 1469 391 1925 391 
Q 2381 391 2643 752 
Q 2906 1113 2906 1747 
Q 2906 2381 2643 2742 
Q 2381 3103 1925 3103 
Q 1469 3103 1208 2742 
Q 947 2381 947 1747 
z
" id="DejaVuSans-64" transform="scale(0.015625)"/>
      </defs>
      <use xlink:href="#DejaVuSans-50"/>
      <use x="58.552734" xlink:href="#DejaVuSans-72"/>
      <use x="99.666016" xlink:href="#DejaVuSans-7a"/>
      <use x="152.15625" xlink:href="#DejaVuSans-f3"/>
      <use x="213.337891" xlink:href="#DejaVuSans-64"/>
     </g>
    </g>
    <g id="patch_10">
     <path d="M 330.26875 53.154687 
L 350.26875 53.154687 
L 350.26875 46.154687 
L 330.26875 46.154687 
z
" style="fill:#2ca02c;fill-opacity:0.25;stroke:#2ca02c;stroke-linejoin:miter;"/>
    </g>
    <g id="text_18">
     <!-- Lewa -->
     <g transform="translate(358.26875 53.154687)scale(0.1 -0.1)">
      <defs>
       <path d="M 628 4666 
L 1259 4666 
L 1259 531 
L 3531 531 
L 3531 0 
L 628 0 
L 628 4666 
z
" id="DejaVuSans-4c" transform="scale(0.015625)"/>
      </defs>
      <use xlink:href="#DejaVuSans-4c"/>
      <use x="53.962891" xlink:href="#DejaVuSans-65"/>
      <use x="115.486328" xlink:href="#DejaVuSans-77"/>
      <use x="197.273438" xlink:href="#DejaVuSans-61"/>
     </g>
    </g>
    <g id="patch_11">
     <path d="M 330.26875 67.832812 
L 350.26875 67.832812 
L 350.26875 60.832812 
L 330.26875 60.832812 
z
" style="fill:#d62728;fill-opacity:0.25;stroke:#d62728;stroke-linejoin:miter;"/>
    </g>
    <g id="text_19">
     <!-- Tory -->
     <g transform="translate(358.26875 67.832812)scale(0.1 -0.1)">
      <defs>
       <path d="M -19 4666 
L 3928 4666 
L 3928 4134 
L 2272 4134 
L 2272 0 
L 1638 0 
L 1638 4134 
L -19 4134 
L -19 4666 
z
" id="DejaVuSans-54" transform="scale(0.015625)"/>
      </defs>
      <use xlink:href="#DejaVuSans-54"/>
      <use x="44.083984" xlink:href="#DejaVuSans-6f"/>
      <use x="105.265625" xlink:href="#DejaVuSans-72"/>
      <use x="146.378906" xlink:href="#DejaVuSans-79"/>
     </g>
    </g>
   </g>
  </g>
 </g>
 <defs>
  <clipPath id="p77528d407c">
   <rect height="217.44" width="334.8" x="62.86875" y="7.2"/>
  </clipPath>
 </defs>
</svg>
