<?xml version="1.0" encoding="utf-8" standalone="no"?>
<!DOCTYPE svg PUBLIC "-//W3C//DTD SVG 1.1//EN"
  "http://www.w3.org/Graphics/SVG/1.1/DTD/svg11.dtd">
<svg height="262.19625pt" version="1.1" viewBox="0 0 404.86875 262.19625" width="404.86875pt" xmlns="http://www.w3.org/2000/svg" xmlns:xlink="http://www.w3.org/1999/xlink">
 <metadata>
  <rdf:RDF xmlns:cc="http://creativecommons.org/ns#" xmlns:dc="http://purl.org/dc/elements/1.1/" xmlns:rdf="http://www.w3.org/1999/02/22-rdf-syntax-ns#">
   <cc:Work>
    <dc:type rdf:resource="http://purl.org/dc/dcmitype/StillImage"/>
    <dc:date>2021-07-02T01:19:47.792180</dc:date>
    <dc:format>image/svg+xml</dc:format>
    <dc:creator>
     <cc:Agent>
      <dc:title>Matplotlib v3.4.2, https://matplotlib.org/</dc:title>
     </cc:Agent>
    </dc:creator>
   </cc:Work>
  </rdf:RDF>
 </metadata>
 <defs>
  <style type="text/css">*{stroke-linecap:butt;stroke-linejoin:round;}</style>
 </defs>
 <g id="figure_1">
  <g id="patch_1">
   <path d="M 0 262.19625 
L 404.86875 262.19625 
L 404.86875 0 
L 0 0 
z
" style="fill:none;"/>
  </g>
  <g id="axes_1">
   <g id="patch_2">
    <path d="M 62.86875 224.64 
L 397.66875 224.64 
L 397.66875 7.2 
L 62.86875 7.2 
z
" style="fill:#ffffff;"/>
   </g>
   <g id="PolyCollection_1">
    <defs>
     <path d="M 105.550884 -37.697875 
L 105.550884 -37.55625 
L 106.341698 -37.55625 
L 107.132513 -37.55625 
L 107.923327 -37.55625 
L 108.714141 -37.55625 
L 109.504956 -37.55625 
L 110.29577 -37.55625 
L 111.086584 -37.55625 
L 111.877399 -37.55625 
L 112.668213 -37.55625 
L 113.459027 -37.55625 
L 114.249842 -37.55625 
L 115.040656 -37.55625 
L 115.83147 -37.55625 
L 116.622284 -37.55625 
L 117.413099 -37.55625 
L 118.203913 -37.55625 
L 118.994727 -37.55625 
L 119.785542 -37.55625 
L 120.576356 -37.55625 
L 121.36717 -37.55625 
L 122.157985 -37.55625 
L 122.948799 -37.55625 
L 123.739613 -37.55625 
L 124.530428 -37.55625 
L 125.321242 -37.55625 
L 126.112056 -37.55625 
L 126.902871 -37.55625 
L 127.693685 -37.55625 
L 128.484499 -37.55625 
L 129.275313 -37.55625 
L 130.066128 -37.55625 
L 130.856942 -37.55625 
L 131.647756 -37.55625 
L 132.438571 -37.55625 
L 133.229385 -37.55625 
L 134.020199 -37.55625 
L 134.811014 -37.55625 
L 135.601828 -37.55625 
L 136.392642 -37.55625 
L 137.183457 -37.55625 
L 137.974271 -37.55625 
L 138.765085 -37.55625 
L 139.5559 -37.55625 
L 140.346714 -37.55625 
L 141.137528 -37.55625 
L 141.928342 -37.55625 
L 142.719157 -37.55625 
L 143.509971 -37.55625 
L 144.300785 -37.55625 
L 145.0916 -37.55625 
L 145.882414 -37.55625 
L 146.673228 -37.55625 
L 147.464043 -37.55625 
L 148.254857 -37.55625 
L 149.045671 -37.55625 
L 149.836486 -37.55625 
L 150.6273 -37.55625 
L 151.418114 -37.55625 
L 152.208929 -37.55625 
L 152.999743 -37.55625 
L 153.790557 -37.55625 
L 154.581371 -37.55625 
L 155.372186 -37.55625 
L 156.163 -37.55625 
L 156.953814 -37.55625 
L 157.744629 -37.55625 
L 158.535443 -37.55625 
L 159.326257 -37.55625 
L 160.117072 -37.55625 
L 160.907886 -37.55625 
L 161.6987 -37.55625 
L 162.489515 -37.55625 
L 163.280329 -37.55625 
L 164.071143 -37.55625 
L 164.861958 -37.55625 
L 165.652772 -37.55625 
L 166.443586 -37.55625 
L 167.2344 -37.55625 
L 168.025215 -37.55625 
L 168.816029 -37.55625 
L 169.606843 -37.55625 
L 170.397658 -37.55625 
L 171.188472 -37.55625 
L 171.979286 -37.55625 
L 172.770101 -37.55625 
L 173.560915 -37.55625 
L 174.351729 -37.55625 
L 175.142544 -37.55625 
L 175.933358 -37.55625 
L 176.724172 -37.55625 
L 177.514987 -37.55625 
L 178.305801 -37.55625 
L 179.096615 -37.55625 
L 179.887429 -37.55625 
L 180.678244 -37.55625 
L 181.469058 -37.55625 
L 182.259872 -37.55625 
L 183.050687 -37.55625 
L 183.841501 -37.55625 
L 184.632315 -37.55625 
L 185.42313 -37.55625 
L 186.213944 -37.55625 
L 187.004758 -37.55625 
L 187.795573 -37.55625 
L 188.586387 -37.55625 
L 189.377201 -37.55625 
L 190.168016 -37.55625 
L 190.95883 -37.55625 
L 191.749644 -37.55625 
L 192.540458 -37.55625 
L 193.331273 -37.55625 
L 194.122087 -37.55625 
L 194.912901 -37.55625 
L 195.703716 -37.55625 
L 196.49453 -37.55625 
L 197.285344 -37.55625 
L 198.076159 -37.55625 
L 198.866973 -37.55625 
L 199.657787 -37.55625 
L 200.448602 -37.55625 
L 201.239416 -37.55625 
L 202.03023 -37.55625 
L 202.821045 -37.55625 
L 203.611859 -37.55625 
L 204.402673 -37.55625 
L 205.193487 -37.55625 
L 205.984302 -37.55625 
L 206.775116 -37.55625 
L 207.56593 -37.55625 
L 208.356745 -37.55625 
L 209.147559 -37.55625 
L 209.938373 -37.55625 
L 210.729188 -37.55625 
L 211.520002 -37.55625 
L 212.310816 -37.55625 
L 213.101631 -37.55625 
L 213.892445 -37.55625 
L 214.683259 -37.55625 
L 215.474074 -37.55625 
L 216.264888 -37.55625 
L 217.055702 -37.55625 
L 217.846516 -37.55625 
L 218.637331 -37.55625 
L 219.428145 -37.55625 
L 220.218959 -37.55625 
L 221.009774 -37.55625 
L 221.800588 -37.55625 
L 222.591402 -37.55625 
L 223.382217 -37.55625 
L 224.173031 -37.55625 
L 224.963845 -37.55625 
L 225.75466 -37.55625 
L 226.545474 -37.55625 
L 227.336288 -37.55625 
L 228.127103 -37.55625 
L 228.917917 -37.55625 
L 229.708731 -37.55625 
L 230.499545 -37.55625 
L 231.29036 -37.55625 
L 232.081174 -37.55625 
L 232.871988 -37.55625 
L 233.662803 -37.55625 
L 234.453617 -37.55625 
L 235.244431 -37.55625 
L 236.035246 -37.55625 
L 236.82606 -37.55625 
L 237.616874 -37.55625 
L 238.407689 -37.55625 
L 239.198503 -37.55625 
L 239.989317 -37.55625 
L 240.780132 -37.55625 
L 241.570946 -37.55625 
L 242.36176 -37.55625 
L 243.152574 -37.55625 
L 243.943389 -37.55625 
L 244.734203 -37.55625 
L 245.525017 -37.55625 
L 246.315832 -37.55625 
L 247.106646 -37.55625 
L 247.89746 -37.55625 
L 248.688275 -37.55625 
L 249.479089 -37.55625 
L 250.269903 -37.55625 
L 251.060718 -37.55625 
L 251.851532 -37.55625 
L 252.642346 -37.55625 
L 253.433161 -37.55625 
L 254.223975 -37.55625 
L 255.014789 -37.55625 
L 255.805603 -37.55625 
L 256.596418 -37.55625 
L 257.387232 -37.55625 
L 258.178046 -37.55625 
L 258.968861 -37.55625 
L 259.759675 -37.55625 
L 260.550489 -37.55625 
L 261.341304 -37.55625 
L 262.132118 -37.55625 
L 262.922932 -37.55625 
L 262.922932 -37.87102 
L 262.922932 -37.87102 
L 262.132118 -37.968076 
L 261.341304 -38.0913 
L 260.550489 -38.24656 
L 259.759675 -38.4407 
L 258.968861 -38.681612 
L 258.178046 -38.978294 
L 257.387232 -39.340877 
L 256.596418 -39.780631 
L 255.805603 -40.309922 
L 255.014789 -40.942133 
L 254.223975 -41.691529 
L 253.433161 -42.573068 
L 252.642346 -43.602161 
L 251.851532 -44.794363 
L 251.060718 -46.165025 
L 250.269903 -47.728886 
L 249.479089 -49.499633 
L 248.688275 -51.489443 
L 247.89746 -53.708505 
L 247.106646 -56.164565 
L 246.315832 -58.862495 
L 245.525017 -61.803924 
L 244.734203 -64.986939 
L 243.943389 -68.405882 
L 243.152574 -72.051258 
L 242.36176 -75.909771 
L 241.570946 -79.964477 
L 240.780132 -84.195083 
L 239.989317 -88.578354 
L 239.198503 -93.088636 
L 238.407689 -97.698469 
L 237.616874 -102.379256 
L 236.82606 -107.101972 
L 236.035246 -111.837875 
L 235.244431 -116.559182 
L 234.453617 -121.239686 
L 233.662803 -125.855291 
L 232.871988 -130.384433 
L 232.081174 -134.808381 
L 231.29036 -139.111417 
L 230.499545 -143.280882 
L 229.708731 -147.307121 
L 228.917917 -151.18332 
L 228.127103 -154.905283 
L 227.336288 -158.471147 
L 226.545474 -161.881096 
L 225.75466 -165.137059 
L 224.963845 -168.242454 
L 224.173031 -171.201958 
L 223.382217 -174.021336 
L 222.591402 -176.707315 
L 221.800588 -179.267503 
L 221.009774 -181.710328 
L 220.218959 -184.044997 
L 219.428145 -186.281432 
L 218.637331 -188.430175 
L 217.846516 -190.502235 
L 217.055702 -192.508879 
L 216.264888 -194.461336 
L 215.474074 -196.370452 
L 214.683259 -198.246278 
L 213.892445 -200.09764 
L 213.101631 -201.931712 
L 212.310816 -203.753631 
L 211.520002 -205.566193 
L 210.729188 -207.369671 
L 209.938373 -209.161786 
L 209.147559 -210.937849 
L 208.356745 -212.691091 
L 207.56593 -214.413164 
L 206.775116 -216.094807 
L 205.984302 -217.726625 
L 205.193487 -219.299931 
L 204.402673 -220.807602 
L 203.611859 -222.244863 
L 202.821045 -223.609937 
L 202.03023 -224.904499 
L 201.239416 -226.133869 
L 200.448602 -227.306906 
L 199.657787 -228.435589 
L 198.866973 -229.534267 
L 198.076159 -230.618616 
L 197.285344 -231.704349 
L 196.49453 -232.805732 
L 195.703716 -233.934004 
L 194.912901 -235.095796 
L 194.122087 -236.291645 
L 193.331273 -237.514715 
L 192.540458 -238.749818 
L 191.749644 -239.972815 
L 190.95883 -241.15047 
L 190.168016 -242.240784 
L 189.377201 -243.193834 
L 188.586387 -243.953088 
L 187.795573 -244.457167 
L 187.004758 -244.641964 
L 186.213944 -244.443046 
L 185.42313 -243.798207 
L 184.632315 -242.650066 
L 183.841501 -240.948577 
L 183.050687 -238.653323 
L 182.259872 -235.735483 
L 181.469058 -232.179386 
L 180.678244 -227.983553 
L 179.887429 -223.1612 
L 179.096615 -217.740172 
L 178.305801 -211.762307 
L 177.514987 -205.282284 
L 176.724172 -198.365995 
L 175.933358 -191.088534 
L 175.142544 -183.531895 
L 174.351729 -175.782485 
L 173.560915 -167.928564 
L 172.770101 -160.057717 
L 171.979286 -152.254461 
L 171.188472 -144.59808 
L 170.397658 -137.160748 
L 169.606843 -130.006007 
L 168.816029 -123.187633 
L 168.025215 -116.748902 
L 167.2344 -110.722246 
L 166.443586 -105.129303 
L 165.652772 -99.981294 
L 164.861958 -95.279709 
L 164.071143 -91.017238 
L 163.280329 -87.178885 
L 162.489515 -83.743216 
L 161.6987 -80.68368 
L 160.907886 -77.969945 
L 160.117072 -75.569211 
L 159.326257 -73.447445 
L 158.535443 -71.570525 
L 157.744629 -69.905239 
L 156.953814 -68.420149 
L 156.163 -67.086291 
L 155.372186 -65.877707 
L 154.581371 -64.771817 
L 153.790557 -63.749629 
L 152.999743 -62.795798 
L 152.208929 -61.898541 
L 151.418114 -61.049438 
L 150.6273 -60.243113 
L 149.836486 -59.476834 
L 149.045671 -58.750042 
L 148.254857 -58.063829 
L 147.464043 -57.420397 
L 146.673228 -56.822512 
L 145.882414 -56.272976 
L 145.0916 -55.774141 
L 144.300785 -55.327487 
L 143.509971 -54.933276 
L 142.719157 -54.590292 
L 141.928342 -54.295689 
L 141.137528 -54.044945 
L 140.346714 -53.831912 
L 139.5559 -53.648977 
L 138.765085 -53.487305 
L 137.974271 -53.337162 
L 137.183457 -53.188292 
L 136.392642 -53.030327 
L 135.601828 -52.853215 
L 134.811014 -52.64763 
L 134.020199 -52.405356 
L 133.229385 -52.119614 
L 132.438571 -51.785322 
L 131.647756 -51.399277 
L 130.856942 -50.960246 
L 130.066128 -50.468968 
L 129.275313 -49.928075 
L 128.484499 -49.341927 
L 127.693685 -48.716387 
L 126.902871 -48.058538 
L 126.112056 -47.376367 
L 125.321242 -46.678432 
L 124.530428 -45.973526 
L 123.739613 -45.270356 
L 122.948799 -44.577248 
L 122.157985 -43.901897 
L 121.36717 -43.251161 
L 120.576356 -42.630909 
L 119.785542 -42.045921 
L 118.994727 -41.499844 
L 118.203913 -40.995192 
L 117.413099 -40.533395 
L 116.622284 -40.114878 
L 115.83147 -39.739168 
L 115.040656 -39.405023 
L 114.249842 -39.110565 
L 113.459027 -38.853426 
L 112.668213 -38.630879 
L 111.877399 -38.439969 
L 111.086584 -38.277629 
L 110.29577 -38.140775 
L 109.504956 -38.026394 
L 108.714141 -37.931607 
L 107.923327 -37.853721 
L 107.132513 -37.790256 
L 106.341698 -37.738973 
L 105.550884 -37.697875 
z
" id="mbe1184d939" style="stroke:#1f77b4;"/>
    </defs>
    <g clip-path="url(#p3b01105d11)">
     <use style="fill:#1f77b4;fill-opacity:0.25;stroke:#1f77b4;" x="0" xlink:href="#mbe1184d939" y="262.19625"/>
    </g>
   </g>
   <g id="PolyCollection_2">
    <defs>
     <path d="M 78.086932 -37.635786 
L 78.086932 -37.55625 
L 79.616397 -37.55625 
L 81.145863 -37.55625 
L 82.675328 -37.55625 
L 84.204794 -37.55625 
L 85.734259 -37.55625 
L 87.263725 -37.55625 
L 88.79319 -37.55625 
L 90.322656 -37.55625 
L 91.852121 -37.55625 
L 93.381587 -37.55625 
L 94.911052 -37.55625 
L 96.440518 -37.55625 
L 97.969983 -37.55625 
L 99.499449 -37.55625 
L 101.028914 -37.55625 
L 102.55838 -37.55625 
L 104.087845 -37.55625 
L 105.617311 -37.55625 
L 107.146776 -37.55625 
L 108.676242 -37.55625 
L 110.205708 -37.55625 
L 111.735173 -37.55625 
L 113.264639 -37.55625 
L 114.794104 -37.55625 
L 116.32357 -37.55625 
L 117.853035 -37.55625 
L 119.382501 -37.55625 
L 120.911966 -37.55625 
L 122.441432 -37.55625 
L 123.970897 -37.55625 
L 125.500363 -37.55625 
L 127.029828 -37.55625 
L 128.559294 -37.55625 
L 130.088759 -37.55625 
L 131.618225 -37.55625 
L 133.14769 -37.55625 
L 134.677156 -37.55625 
L 136.206621 -37.55625 
L 137.736087 -37.55625 
L 139.265552 -37.55625 
L 140.795018 -37.55625 
L 142.324483 -37.55625 
L 143.853949 -37.55625 
L 145.383414 -37.55625 
L 146.91288 -37.55625 
L 148.442345 -37.55625 
L 149.971811 -37.55625 
L 151.501276 -37.55625 
L 153.030742 -37.55625 
L 154.560207 -37.55625 
L 156.089673 -37.55625 
L 157.619138 -37.55625 
L 159.148604 -37.55625 
L 160.678069 -37.55625 
L 162.207535 -37.55625 
L 163.737 -37.55625 
L 165.266466 -37.55625 
L 166.795931 -37.55625 
L 168.325397 -37.55625 
L 169.854862 -37.55625 
L 171.384328 -37.55625 
L 172.913793 -37.55625 
L 174.443259 -37.55625 
L 175.972724 -37.55625 
L 177.50219 -37.55625 
L 179.031655 -37.55625 
L 180.561121 -37.55625 
L 182.090586 -37.55625 
L 183.620052 -37.55625 
L 185.149517 -37.55625 
L 186.678983 -37.55625 
L 188.208448 -37.55625 
L 189.737914 -37.55625 
L 191.26738 -37.55625 
L 192.796845 -37.55625 
L 194.326311 -37.55625 
L 195.855776 -37.55625 
L 197.385242 -37.55625 
L 198.914707 -37.55625 
L 200.444173 -37.55625 
L 201.973638 -37.55625 
L 203.503104 -37.55625 
L 205.032569 -37.55625 
L 206.562035 -37.55625 
L 208.0915 -37.55625 
L 209.620966 -37.55625 
L 211.150431 -37.55625 
L 212.679897 -37.55625 
L 214.209362 -37.55625 
L 215.738828 -37.55625 
L 217.268293 -37.55625 
L 218.797759 -37.55625 
L 220.327224 -37.55625 
L 221.85669 -37.55625 
L 223.386155 -37.55625 
L 224.915621 -37.55625 
L 226.445086 -37.55625 
L 227.974552 -37.55625 
L 229.504017 -37.55625 
L 231.033483 -37.55625 
L 232.562948 -37.55625 
L 234.092414 -37.55625 
L 235.621879 -37.55625 
L 237.151345 -37.55625 
L 238.68081 -37.55625 
L 240.210276 -37.55625 
L 241.739741 -37.55625 
L 243.269207 -37.55625 
L 244.798672 -37.55625 
L 246.328138 -37.55625 
L 247.857603 -37.55625 
L 249.387069 -37.55625 
L 250.916534 -37.55625 
L 252.446 -37.55625 
L 253.975465 -37.55625 
L 255.504931 -37.55625 
L 257.034396 -37.55625 
L 258.563862 -37.55625 
L 260.093327 -37.55625 
L 261.622793 -37.55625 
L 263.152258 -37.55625 
L 264.681724 -37.55625 
L 266.211189 -37.55625 
L 267.740655 -37.55625 
L 269.27012 -37.55625 
L 270.799586 -37.55625 
L 272.329052 -37.55625 
L 273.858517 -37.55625 
L 275.387983 -37.55625 
L 276.917448 -37.55625 
L 278.446914 -37.55625 
L 279.976379 -37.55625 
L 281.505845 -37.55625 
L 283.03531 -37.55625 
L 284.564776 -37.55625 
L 286.094241 -37.55625 
L 287.623707 -37.55625 
L 289.153172 -37.55625 
L 290.682638 -37.55625 
L 292.212103 -37.55625 
L 293.741569 -37.55625 
L 295.271034 -37.55625 
L 296.8005 -37.55625 
L 298.329965 -37.55625 
L 299.859431 -37.55625 
L 301.388896 -37.55625 
L 302.918362 -37.55625 
L 304.447827 -37.55625 
L 305.977293 -37.55625 
L 307.506758 -37.55625 
L 309.036224 -37.55625 
L 310.565689 -37.55625 
L 312.095155 -37.55625 
L 313.62462 -37.55625 
L 315.154086 -37.55625 
L 316.683551 -37.55625 
L 318.213017 -37.55625 
L 319.742482 -37.55625 
L 321.271948 -37.55625 
L 322.801413 -37.55625 
L 324.330879 -37.55625 
L 325.860344 -37.55625 
L 327.38981 -37.55625 
L 328.919275 -37.55625 
L 330.448741 -37.55625 
L 331.978206 -37.55625 
L 333.507672 -37.55625 
L 335.037137 -37.55625 
L 336.566603 -37.55625 
L 338.096068 -37.55625 
L 339.625534 -37.55625 
L 341.154999 -37.55625 
L 342.684465 -37.55625 
L 344.21393 -37.55625 
L 345.743396 -37.55625 
L 347.272861 -37.55625 
L 348.802327 -37.55625 
L 350.331792 -37.55625 
L 351.861258 -37.55625 
L 353.390724 -37.55625 
L 354.920189 -37.55625 
L 356.449655 -37.55625 
L 357.97912 -37.55625 
L 359.508586 -37.55625 
L 361.038051 -37.55625 
L 362.567517 -37.55625 
L 364.096982 -37.55625 
L 365.626448 -37.55625 
L 367.155913 -37.55625 
L 368.685379 -37.55625 
L 370.214844 -37.55625 
L 371.74431 -37.55625 
L 373.273775 -37.55625 
L 374.803241 -37.55625 
L 376.332706 -37.55625 
L 377.862172 -37.55625 
L 379.391637 -37.55625 
L 380.921103 -37.55625 
L 382.450568 -37.55625 
L 382.450568 -37.675686 
L 382.450568 -37.675686 
L 380.921103 -37.715888 
L 379.391637 -37.767846 
L 377.862172 -37.834381 
L 376.332706 -37.918802 
L 374.803241 -38.024926 
L 373.273775 -38.157095 
L 371.74431 -38.320167 
L 370.214844 -38.519483 
L 368.685379 -38.760799 
L 367.155913 -39.050197 
L 365.626448 -39.393943 
L 364.096982 -39.798319 
L 362.567517 -40.269416 
L 361.038051 -40.812895 
L 359.508586 -41.433721 
L 357.97912 -42.135889 
L 356.449655 -42.922149 
L 354.920189 -43.79375 
L 353.390724 -44.750219 
L 351.861258 -45.789199 
L 350.331792 -46.90637 
L 348.802327 -48.095459 
L 347.272861 -49.348365 
L 345.743396 -50.655404 
L 344.21393 -52.005683 
L 342.684465 -53.387587 
L 341.154999 -54.789375 
L 339.625534 -56.19986 
L 338.096068 -57.609147 
L 336.566603 -59.009377 
L 335.037137 -60.395457 
L 333.507672 -61.765704 
L 331.978206 -63.122383 
L 330.448741 -64.472074 
L 328.919275 -65.825851 
L 327.38981 -67.19923 
L 325.860344 -68.611882 
L 324.330879 -70.087102 
L 322.801413 -71.651047 
L 321.271948 -73.331771 
L 319.742482 -75.158092 
L 318.213017 -77.158343 
L 316.683551 -79.35906 
L 315.154086 -81.783677 
L 313.62462 -84.451288 
L 312.095155 -87.375531 
L 310.565689 -90.56367 
L 309.036224 -94.015896 
L 307.506758 -97.724912 
L 305.977293 -101.675796 
L 304.447827 -105.846177 
L 302.918362 -110.206695 
L 301.388896 -114.721741 
L 299.859431 -119.350434 
L 298.329965 -124.047781 
L 296.8005 -128.765992 
L 295.271034 -133.455855 
L 293.741569 -138.068134 
L 292.212103 -142.554919 
L 290.682638 -146.870861 
L 289.153172 -150.974262 
L 287.623707 -154.827957 
L 286.094241 -158.399979 
L 284.564776 -161.663978 
L 283.03531 -164.599403 
L 281.505845 -167.191454 
L 279.976379 -169.430836 
L 278.446914 -171.313336 
L 276.917448 -172.839281 
L 275.387983 -174.01291 
L 273.858517 -174.841711 
L 272.329052 -175.335764 
L 270.799586 -175.507127 
L 269.27012 -175.369297 
L 267.740655 -174.936755 
L 266.211189 -174.224623 
L 264.681724 -173.248414 
L 263.152258 -172.023874 
L 261.622793 -170.566903 
L 260.093327 -168.893524 
L 258.563862 -167.01989 
L 257.034396 -164.962292 
L 255.504931 -162.737153 
L 253.975465 -160.360997 
L 252.446 -157.850373 
L 250.916534 -155.221741 
L 249.387069 -152.491311 
L 247.857603 -149.674865 
L 246.328138 -146.787555 
L 244.798672 -143.843708 
L 243.269207 -140.856667 
L 241.739741 -137.838659 
L 240.210276 -134.800736 
L 238.68081 -131.75278 
L 237.151345 -128.703576 
L 235.621879 -125.660957 
L 234.092414 -122.632002 
L 232.562948 -119.62327 
L 231.033483 -116.641041 
L 229.504017 -113.691554 
L 227.974552 -110.781195 
L 226.445086 -107.916628 
L 224.915621 -105.104846 
L 223.386155 -102.353128 
L 221.85669 -99.668917 
L 220.327224 -97.059601 
L 218.797759 -94.532243 
L 217.268293 -92.093259 
L 215.738828 -89.748094 
L 214.209362 -87.500902 
L 212.679897 -85.35429 
L 211.150431 -83.30912 
L 209.620966 -81.364406 
L 208.0915 -79.51732 
L 206.562035 -77.763292 
L 205.032569 -76.096211 
L 203.503104 -74.508711 
L 201.973638 -72.992506 
L 200.444173 -71.538779 
L 198.914707 -70.13856 
L 197.385242 -68.783109 
L 195.855776 -67.464241 
L 194.326311 -66.174614 
L 192.796845 -64.907941 
L 191.26738 -63.659136 
L 189.737914 -62.42439 
L 188.208448 -61.201186 
L 186.678983 -59.988258 
L 185.149517 -58.785516 
L 183.620052 -57.593936 
L 182.090586 -56.415441 
L 180.561121 -55.25277 
L 179.031655 -54.109356 
L 177.50219 -52.989203 
L 175.972724 -51.89678 
L 174.443259 -50.836916 
L 172.913793 -49.8147 
L 171.384328 -48.835392 
L 169.854862 -47.904324 
L 168.325397 -47.026795 
L 166.795931 -46.207969 
L 165.266466 -45.452753 
L 163.737 -44.765673 
L 162.207535 -44.150745 
L 160.678069 -43.611335 
L 159.148604 -43.150024 
L 157.619138 -42.768479 
L 156.089673 -42.467326 
L 154.560207 -42.24605 
L 153.030742 -42.102901 
L 151.501276 -42.03484 
L 149.971811 -42.037511 
L 148.442345 -42.105246 
L 146.91288 -42.231117 
L 145.383414 -42.407027 
L 143.853949 -42.623846 
L 142.324483 -42.871595 
L 140.795018 -43.139666 
L 139.265552 -43.417079 
L 137.736087 -43.692772 
L 136.206621 -43.955907 
L 134.677156 -44.196183 
L 133.14769 -44.40414 
L 131.618225 -44.571452 
L 130.088759 -44.691172 
L 128.559294 -44.757941 
L 127.029828 -44.768134 
L 125.500363 -44.719941 
L 123.970897 -44.613372 
L 122.441432 -44.4502 
L 120.911966 -44.233826 
L 119.382501 -43.969089 
L 117.853035 -43.662025 
L 116.32357 -43.319586 
L 114.794104 -42.949341 
L 113.264639 -42.559165 
L 111.735173 -42.156945 
L 110.205708 -41.750301 
L 108.676242 -41.346346 
L 107.146776 -40.951488 
L 105.617311 -40.57128 
L 104.087845 -40.210323 
L 102.55838 -39.872221 
L 101.028914 -39.559573 
L 99.499449 -39.274026 
L 97.969983 -39.016336 
L 96.440518 -38.786483 
L 94.911052 -38.583774 
L 93.381587 -38.406983 
L 91.852121 -38.254466 
L 90.322656 -38.124295 
L 88.79319 -38.014361 
L 87.263725 -37.922481 
L 85.734259 -37.846475 
L 84.204794 -37.784237 
L 82.675328 -37.733783 
L 81.145863 -37.69329 
L 79.616397 -37.661109 
L 78.086932 -37.635786 
z
" id="m1f5c711929" style="stroke:#ff7f0e;"/>
    </defs>
    <g clip-path="url(#p3b01105d11)">
     <use style="fill:#ff7f0e;fill-opacity:0.25;stroke:#ff7f0e;" x="0" xlink:href="#m1f5c711929" y="262.19625"/>
    </g>
   </g>
   <g id="PolyCollection_3">
    <defs>
     <path d="M 102.238077 -37.693456 
L 102.238077 -37.55625 
L 103.044788 -37.55625 
L 103.851498 -37.55625 
L 104.658209 -37.55625 
L 105.46492 -37.55625 
L 106.271631 -37.55625 
L 107.078341 -37.55625 
L 107.885052 -37.55625 
L 108.691763 -37.55625 
L 109.498474 -37.55625 
L 110.305184 -37.55625 
L 111.111895 -37.55625 
L 111.918606 -37.55625 
L 112.725317 -37.55625 
L 113.532027 -37.55625 
L 114.338738 -37.55625 
L 115.145449 -37.55625 
L 115.95216 -37.55625 
L 116.75887 -37.55625 
L 117.565581 -37.55625 
L 118.372292 -37.55625 
L 119.179003 -37.55625 
L 119.985713 -37.55625 
L 120.792424 -37.55625 
L 121.599135 -37.55625 
L 122.405846 -37.55625 
L 123.212556 -37.55625 
L 124.019267 -37.55625 
L 124.825978 -37.55625 
L 125.632689 -37.55625 
L 126.439399 -37.55625 
L 127.24611 -37.55625 
L 128.052821 -37.55625 
L 128.859532 -37.55625 
L 129.666242 -37.55625 
L 130.472953 -37.55625 
L 131.279664 -37.55625 
L 132.086375 -37.55625 
L 132.893085 -37.55625 
L 133.699796 -37.55625 
L 134.506507 -37.55625 
L 135.313218 -37.55625 
L 136.119928 -37.55625 
L 136.926639 -37.55625 
L 137.73335 -37.55625 
L 138.540061 -37.55625 
L 139.346771 -37.55625 
L 140.153482 -37.55625 
L 140.960193 -37.55625 
L 141.766904 -37.55625 
L 142.573614 -37.55625 
L 143.380325 -37.55625 
L 144.187036 -37.55625 
L 144.993747 -37.55625 
L 145.800457 -37.55625 
L 146.607168 -37.55625 
L 147.413879 -37.55625 
L 148.220589 -37.55625 
L 149.0273 -37.55625 
L 149.834011 -37.55625 
L 150.640722 -37.55625 
L 151.447432 -37.55625 
L 152.254143 -37.55625 
L 153.060854 -37.55625 
L 153.867565 -37.55625 
L 154.674275 -37.55625 
L 155.480986 -37.55625 
L 156.287697 -37.55625 
L 157.094408 -37.55625 
L 157.901118 -37.55625 
L 158.707829 -37.55625 
L 159.51454 -37.55625 
L 160.321251 -37.55625 
L 161.127961 -37.55625 
L 161.934672 -37.55625 
L 162.741383 -37.55625 
L 163.548094 -37.55625 
L 164.354804 -37.55625 
L 165.161515 -37.55625 
L 165.968226 -37.55625 
L 166.774937 -37.55625 
L 167.581647 -37.55625 
L 168.388358 -37.55625 
L 169.195069 -37.55625 
L 170.00178 -37.55625 
L 170.80849 -37.55625 
L 171.615201 -37.55625 
L 172.421912 -37.55625 
L 173.228623 -37.55625 
L 174.035333 -37.55625 
L 174.842044 -37.55625 
L 175.648755 -37.55625 
L 176.455466 -37.55625 
L 177.262176 -37.55625 
L 178.068887 -37.55625 
L 178.875598 -37.55625 
L 179.682309 -37.55625 
L 180.489019 -37.55625 
L 181.29573 -37.55625 
L 182.102441 -37.55625 
L 182.909152 -37.55625 
L 183.715862 -37.55625 
L 184.522573 -37.55625 
L 185.329284 -37.55625 
L 186.135995 -37.55625 
L 186.942705 -37.55625 
L 187.749416 -37.55625 
L 188.556127 -37.55625 
L 189.362838 -37.55625 
L 190.169548 -37.55625 
L 190.976259 -37.55625 
L 191.78297 -37.55625 
L 192.589681 -37.55625 
L 193.396391 -37.55625 
L 194.203102 -37.55625 
L 195.009813 -37.55625 
L 195.816524 -37.55625 
L 196.623234 -37.55625 
L 197.429945 -37.55625 
L 198.236656 -37.55625 
L 199.043366 -37.55625 
L 199.850077 -37.55625 
L 200.656788 -37.55625 
L 201.463499 -37.55625 
L 202.270209 -37.55625 
L 203.07692 -37.55625 
L 203.883631 -37.55625 
L 204.690342 -37.55625 
L 205.497052 -37.55625 
L 206.303763 -37.55625 
L 207.110474 -37.55625 
L 207.917185 -37.55625 
L 208.723895 -37.55625 
L 209.530606 -37.55625 
L 210.337317 -37.55625 
L 211.144028 -37.55625 
L 211.950738 -37.55625 
L 212.757449 -37.55625 
L 213.56416 -37.55625 
L 214.370871 -37.55625 
L 215.177581 -37.55625 
L 215.984292 -37.55625 
L 216.791003 -37.55625 
L 217.597714 -37.55625 
L 218.404424 -37.55625 
L 219.211135 -37.55625 
L 220.017846 -37.55625 
L 220.824557 -37.55625 
L 221.631267 -37.55625 
L 222.437978 -37.55625 
L 223.244689 -37.55625 
L 224.0514 -37.55625 
L 224.85811 -37.55625 
L 225.664821 -37.55625 
L 226.471532 -37.55625 
L 227.278243 -37.55625 
L 228.084953 -37.55625 
L 228.891664 -37.55625 
L 229.698375 -37.55625 
L 230.505086 -37.55625 
L 231.311796 -37.55625 
L 232.118507 -37.55625 
L 232.925218 -37.55625 
L 233.731929 -37.55625 
L 234.538639 -37.55625 
L 235.34535 -37.55625 
L 236.152061 -37.55625 
L 236.958772 -37.55625 
L 237.765482 -37.55625 
L 238.572193 -37.55625 
L 239.378904 -37.55625 
L 240.185615 -37.55625 
L 240.992325 -37.55625 
L 241.799036 -37.55625 
L 242.605747 -37.55625 
L 243.412458 -37.55625 
L 244.219168 -37.55625 
L 245.025879 -37.55625 
L 245.83259 -37.55625 
L 246.639301 -37.55625 
L 247.446011 -37.55625 
L 248.252722 -37.55625 
L 249.059433 -37.55625 
L 249.866143 -37.55625 
L 250.672854 -37.55625 
L 251.479565 -37.55625 
L 252.286276 -37.55625 
L 253.092986 -37.55625 
L 253.899697 -37.55625 
L 254.706408 -37.55625 
L 255.513119 -37.55625 
L 256.319829 -37.55625 
L 257.12654 -37.55625 
L 257.933251 -37.55625 
L 258.739962 -37.55625 
L 259.546672 -37.55625 
L 260.353383 -37.55625 
L 261.160094 -37.55625 
L 261.966805 -37.55625 
L 262.773515 -37.55625 
L 262.773515 -37.692278 
L 262.773515 -37.692278 
L 261.966805 -37.730167 
L 261.160094 -37.777162 
L 260.353383 -37.835035 
L 259.546672 -37.905796 
L 258.739962 -37.991695 
L 257.933251 -38.095228 
L 257.12654 -38.219122 
L 256.319829 -38.366327 
L 255.513119 -38.539981 
L 254.706408 -38.743382 
L 253.899697 -38.979937 
L 253.092986 -39.253108 
L 252.286276 -39.566342 
L 251.479565 -39.923007 
L 250.672854 -40.326303 
L 249.866143 -40.779189 
L 249.059433 -41.284299 
L 248.252722 -41.843871 
L 247.446011 -42.459677 
L 246.639301 -43.132975 
L 245.83259 -43.86447 
L 245.025879 -44.65431 
L 244.219168 -45.502087 
L 243.412458 -46.406886 
L 242.605747 -47.367346 
L 241.799036 -48.381756 
L 240.992325 -49.448174 
L 240.185615 -50.564572 
L 239.378904 -51.728991 
L 238.572193 -52.939719 
L 237.765482 -54.195457 
L 236.958772 -55.495499 
L 236.152061 -56.839884 
L 235.34535 -58.22954 
L 234.538639 -59.66639 
L 233.731929 -61.153424 
L 232.925218 -62.694732 
L 232.118507 -64.295485 
L 231.311796 -65.96187 
L 230.505086 -67.700966 
L 229.698375 -69.520575 
L 228.891664 -71.429001 
L 228.084953 -73.434786 
L 227.278243 -75.546405 
L 226.471532 -77.771935 
L 225.664821 -80.118695 
L 224.85811 -82.592883 
L 224.0514 -85.199215 
L 223.244689 -87.940565 
L 222.437978 -90.817649 
L 221.631267 -93.828732 
L 220.824557 -96.969398 
L 220.017846 -100.232375 
L 219.211135 -103.607441 
L 218.404424 -107.081408 
L 217.597714 -110.638201 
L 216.791003 -114.259024 
L 215.984292 -117.922634 
L 215.177581 -121.605696 
L 214.370871 -125.28324 
L 213.56416 -128.929185 
L 212.757449 -132.516945 
L 211.950738 -136.020069 
L 211.144028 -139.412931 
L 210.337317 -142.671418 
L 209.530606 -145.773609 
L 208.723895 -148.700423 
L 207.917185 -151.4362 
L 207.110474 -153.969202 
L 206.303763 -156.292017 
L 205.497052 -158.401831 
L 204.690342 -160.300582 
L 203.883631 -161.994959 
L 203.07692 -163.496265 
L 202.270209 -164.820135 
L 201.463499 -165.986114 
L 200.656788 -167.017117 
L 199.850077 -167.938784 
L 199.043366 -168.778742 
L 198.236656 -169.565819 
L 197.429945 -170.329216 
L 196.623234 -171.097684 
L 195.816524 -171.898715 
L 195.009813 -172.757795 
L 194.203102 -173.697732 
L 193.396391 -174.738077 
L 192.589681 -175.894672 
L 191.78297 -177.179323 
L 190.976259 -178.599614 
L 190.169548 -180.158853 
L 189.362838 -181.856163 
L 188.556127 -183.686692 
L 187.749416 -185.641927 
L 186.942705 -187.710112 
L 186.135995 -189.876717 
L 185.329284 -192.124964 
L 184.522573 -194.436361 
L 183.715862 -196.791229 
L 182.909152 -199.169208 
L 182.102441 -201.549705 
L 181.29573 -203.912279 
L 180.489019 -206.236956 
L 179.682309 -208.504462 
L 178.875598 -210.696379 
L 178.068887 -212.795224 
L 177.262176 -214.784468 
L 176.455466 -216.648506 
L 175.648755 -218.372593 
L 174.842044 -219.942759 
L 174.035333 -221.345734 
L 173.228623 -222.568884 
L 172.421912 -223.60018 
L 171.615201 -224.428204 
L 170.80849 -225.042212 
L 170.00178 -225.432232 
L 169.195069 -225.589218 
L 168.388358 -225.505233 
L 167.581647 -225.173664 
L 166.774937 -224.589445 
L 165.968226 -223.749265 
L 165.161515 -222.651771 
L 164.354804 -221.297705 
L 163.548094 -219.690007 
L 162.741383 -217.833832 
L 161.934672 -215.736499 
L 161.127961 -213.407361 
L 160.321251 -210.857588 
L 159.51454 -208.099891 
L 158.707829 -205.148185 
L 157.901118 -202.017209 
L 157.094408 -198.722131 
L 156.287697 -195.278157 
L 155.480986 -191.700157 
L 154.674275 -188.002353 
L 153.867565 -184.198052 
L 153.060854 -180.299475 
L 152.254143 -176.317668 
L 151.447432 -172.262498 
L 150.640722 -168.142742 
L 149.834011 -163.966255 
L 149.0273 -159.740196 
L 148.220589 -155.471297 
L 147.413879 -151.16616 
L 146.607168 -146.83155 
L 145.800457 -142.474662 
L 144.993747 -138.103348 
L 144.187036 -133.726284 
L 143.380325 -129.353066 
L 142.573614 -124.994224 
L 141.766904 -120.661158 
L 140.960193 -116.366007 
L 140.153482 -112.121443 
L 139.346771 -107.940423 
L 138.540061 -103.835903 
L 137.73335 -99.820544 
L 136.926639 -95.906411 
L 136.119928 -92.104705 
L 135.313218 -88.425521 
L 134.506507 -84.877658 
L 133.699796 -81.468481 
L 132.893085 -78.203848 
L 132.086375 -75.088083 
L 131.279664 -72.124016 
L 130.472953 -69.313057 
L 129.666242 -66.655314 
L 128.859532 -64.14974 
L 128.052821 -61.794285 
L 127.24611 -59.586065 
L 126.439399 -57.521519 
L 125.632689 -55.596553 
L 124.825978 -53.806675 
L 124.019267 -52.147102 
L 123.212556 -50.612845 
L 122.405846 -49.198775 
L 121.599135 -47.89967 
L 120.792424 -46.710244 
L 119.985713 -45.625167 
L 119.179003 -44.639072 
L 118.372292 -43.746562 
L 117.565581 -42.942218 
L 116.75887 -42.220604 
L 115.95216 -41.576283 
L 115.145449 -41.003829 
L 114.338738 -40.497857 
L 113.532027 -40.053048 
L 112.725317 -39.664178 
L 111.918606 -39.326159 
L 111.111895 -39.034068 
L 110.305184 -38.783185 
L 109.498474 -38.569022 
L 108.691763 -38.38735 
L 107.885052 -38.23422 
L 107.078341 -38.105983 
L 106.271631 -37.999295 
L 105.46492 -37.911121 
L 104.658209 -37.838736 
L 103.851498 -37.779711 
L 103.044788 -37.731908 
L 102.238077 -37.693456 
z
" id="me6698a8122" style="stroke:#2ca02c;"/>
    </defs>
    <g clip-path="url(#p3b01105d11)">
     <use style="fill:#2ca02c;fill-opacity:0.25;stroke:#2ca02c;" x="0" xlink:href="#me6698a8122" y="262.19625"/>
    </g>
   </g>
   <g id="PolyCollection_4">
    <defs>
     <path d="M 95.042207 -37.652784 
L 95.042207 -37.55625 
L 96.387824 -37.55625 
L 97.73344 -37.55625 
L 99.079057 -37.55625 
L 100.424674 -37.55625 
L 101.770291 -37.55625 
L 103.115907 -37.55625 
L 104.461524 -37.55625 
L 105.807141 -37.55625 
L 107.152758 -37.55625 
L 108.498374 -37.55625 
L 109.843991 -37.55625 
L 111.189608 -37.55625 
L 112.535225 -37.55625 
L 113.880841 -37.55625 
L 115.226458 -37.55625 
L 116.572075 -37.55625 
L 117.917692 -37.55625 
L 119.263308 -37.55625 
L 120.608925 -37.55625 
L 121.954542 -37.55625 
L 123.300159 -37.55625 
L 124.645775 -37.55625 
L 125.991392 -37.55625 
L 127.337009 -37.55625 
L 128.682625 -37.55625 
L 130.028242 -37.55625 
L 131.373859 -37.55625 
L 132.719476 -37.55625 
L 134.065092 -37.55625 
L 135.410709 -37.55625 
L 136.756326 -37.55625 
L 138.101943 -37.55625 
L 139.447559 -37.55625 
L 140.793176 -37.55625 
L 142.138793 -37.55625 
L 143.48441 -37.55625 
L 144.830026 -37.55625 
L 146.175643 -37.55625 
L 147.52126 -37.55625 
L 148.866877 -37.55625 
L 150.212493 -37.55625 
L 151.55811 -37.55625 
L 152.903727 -37.55625 
L 154.249344 -37.55625 
L 155.59496 -37.55625 
L 156.940577 -37.55625 
L 158.286194 -37.55625 
L 159.63181 -37.55625 
L 160.977427 -37.55625 
L 162.323044 -37.55625 
L 163.668661 -37.55625 
L 165.014277 -37.55625 
L 166.359894 -37.55625 
L 167.705511 -37.55625 
L 169.051128 -37.55625 
L 170.396744 -37.55625 
L 171.742361 -37.55625 
L 173.087978 -37.55625 
L 174.433595 -37.55625 
L 175.779211 -37.55625 
L 177.124828 -37.55625 
L 178.470445 -37.55625 
L 179.816062 -37.55625 
L 181.161678 -37.55625 
L 182.507295 -37.55625 
L 183.852912 -37.55625 
L 185.198529 -37.55625 
L 186.544145 -37.55625 
L 187.889762 -37.55625 
L 189.235379 -37.55625 
L 190.580995 -37.55625 
L 191.926612 -37.55625 
L 193.272229 -37.55625 
L 194.617846 -37.55625 
L 195.963462 -37.55625 
L 197.309079 -37.55625 
L 198.654696 -37.55625 
L 200.000313 -37.55625 
L 201.345929 -37.55625 
L 202.691546 -37.55625 
L 204.037163 -37.55625 
L 205.38278 -37.55625 
L 206.728396 -37.55625 
L 208.074013 -37.55625 
L 209.41963 -37.55625 
L 210.765247 -37.55625 
L 212.110863 -37.55625 
L 213.45648 -37.55625 
L 214.802097 -37.55625 
L 216.147714 -37.55625 
L 217.49333 -37.55625 
L 218.838947 -37.55625 
L 220.184564 -37.55625 
L 221.53018 -37.55625 
L 222.875797 -37.55625 
L 224.221414 -37.55625 
L 225.567031 -37.55625 
L 226.912647 -37.55625 
L 228.258264 -37.55625 
L 229.603881 -37.55625 
L 230.949498 -37.55625 
L 232.295114 -37.55625 
L 233.640731 -37.55625 
L 234.986348 -37.55625 
L 236.331965 -37.55625 
L 237.677581 -37.55625 
L 239.023198 -37.55625 
L 240.368815 -37.55625 
L 241.714432 -37.55625 
L 243.060048 -37.55625 
L 244.405665 -37.55625 
L 245.751282 -37.55625 
L 247.096899 -37.55625 
L 248.442515 -37.55625 
L 249.788132 -37.55625 
L 251.133749 -37.55625 
L 252.479365 -37.55625 
L 253.824982 -37.55625 
L 255.170599 -37.55625 
L 256.516216 -37.55625 
L 257.861832 -37.55625 
L 259.207449 -37.55625 
L 260.553066 -37.55625 
L 261.898683 -37.55625 
L 263.244299 -37.55625 
L 264.589916 -37.55625 
L 265.935533 -37.55625 
L 267.28115 -37.55625 
L 268.626766 -37.55625 
L 269.972383 -37.55625 
L 271.318 -37.55625 
L 272.663617 -37.55625 
L 274.009233 -37.55625 
L 275.35485 -37.55625 
L 276.700467 -37.55625 
L 278.046084 -37.55625 
L 279.3917 -37.55625 
L 280.737317 -37.55625 
L 282.082934 -37.55625 
L 283.42855 -37.55625 
L 284.774167 -37.55625 
L 286.119784 -37.55625 
L 287.465401 -37.55625 
L 288.811017 -37.55625 
L 290.156634 -37.55625 
L 291.502251 -37.55625 
L 292.847868 -37.55625 
L 294.193484 -37.55625 
L 295.539101 -37.55625 
L 296.884718 -37.55625 
L 298.230335 -37.55625 
L 299.575951 -37.55625 
L 300.921568 -37.55625 
L 302.267185 -37.55625 
L 303.612802 -37.55625 
L 304.958418 -37.55625 
L 306.304035 -37.55625 
L 307.649652 -37.55625 
L 308.995269 -37.55625 
L 310.340885 -37.55625 
L 311.686502 -37.55625 
L 313.032119 -37.55625 
L 314.377735 -37.55625 
L 315.723352 -37.55625 
L 317.068969 -37.55625 
L 318.414586 -37.55625 
L 319.760202 -37.55625 
L 321.105819 -37.55625 
L 322.451436 -37.55625 
L 323.797053 -37.55625 
L 325.142669 -37.55625 
L 326.488286 -37.55625 
L 327.833903 -37.55625 
L 329.17952 -37.55625 
L 330.525136 -37.55625 
L 331.870753 -37.55625 
L 333.21637 -37.55625 
L 334.561987 -37.55625 
L 335.907603 -37.55625 
L 337.25322 -37.55625 
L 338.598837 -37.55625 
L 339.944454 -37.55625 
L 341.29007 -37.55625 
L 342.635687 -37.55625 
L 343.981304 -37.55625 
L 345.32692 -37.55625 
L 346.672537 -37.55625 
L 348.018154 -37.55625 
L 349.363771 -37.55625 
L 350.709387 -37.55625 
L 352.055004 -37.55625 
L 353.400621 -37.55625 
L 354.746238 -37.55625 
L 356.091854 -37.55625 
L 357.437471 -37.55625 
L 358.783088 -37.55625 
L 360.128705 -37.55625 
L 361.474321 -37.55625 
L 362.819938 -37.55625 
L 362.819938 -37.645196 
L 362.819938 -37.645196 
L 361.474321 -37.672994 
L 360.128705 -37.708193 
L 358.783088 -37.752342 
L 357.437471 -37.807196 
L 356.091854 -37.874699 
L 354.746238 -37.956975 
L 353.400621 -38.056286 
L 352.055004 -38.174993 
L 350.709387 -38.315491 
L 349.363771 -38.480129 
L 348.018154 -38.671124 
L 346.672537 -38.890448 
L 345.32692 -39.139723 
L 343.981304 -39.420094 
L 342.635687 -39.732121 
L 341.29007 -40.075667 
L 339.944454 -40.449806 
L 338.598837 -40.852765 
L 337.25322 -41.281883 
L 335.907603 -41.73362 
L 334.561987 -42.203608 
L 333.21637 -42.68675 
L 331.870753 -43.17736 
L 330.525136 -43.669355 
L 329.17952 -44.156481 
L 327.833903 -44.632561 
L 326.488286 -45.091768 
L 325.142669 -45.528893 
L 323.797053 -45.939595 
L 322.451436 -46.320624 
L 321.105819 -46.67 
L 319.760202 -46.987125 
L 318.414586 -47.272838 
L 317.068969 -47.52939 
L 315.723352 -47.760353 
L 314.377735 -47.970454 
L 313.032119 -48.165357 
L 311.686502 -48.351398 
L 310.340885 -48.535292 
L 308.995269 -48.723828 
L 307.649652 -48.923576 
L 306.304035 -49.140612 
L 304.958418 -49.38029 
L 303.612802 -49.647056 
L 302.267185 -49.944333 
L 300.921568 -50.274451 
L 299.575951 -50.63864 
L 298.230335 -51.037083 
L 296.884718 -51.468996 
L 295.539101 -51.932749 
L 294.193484 -52.426007 
L 292.847868 -52.945871 
L 291.502251 -53.489024 
L 290.156634 -54.05186 
L 288.811017 -54.630604 
L 287.465401 -55.221405 
L 286.119784 -55.820417 
L 284.774167 -56.423858 
L 283.42855 -57.028063 
L 282.082934 -57.629518 
L 280.737317 -58.224894 
L 279.3917 -58.811079 
L 278.046084 -59.385208 
L 276.700467 -59.944693 
L 275.35485 -60.487256 
L 274.009233 -61.010965 
L 272.663617 -61.514262 
L 271.318 -61.996001 
L 269.972383 -62.45548 
L 268.626766 -62.892476 
L 267.28115 -63.307287 
L 265.935533 -63.700782 
L 264.589916 -64.07447 
L 263.244299 -64.430578 
L 261.898683 -64.772168 
L 260.553066 -65.103265 
L 259.207449 -65.429019 
L 257.861832 -65.755891 
L 256.516216 -66.091849 
L 255.170599 -66.446577 
L 253.824982 -66.831669 
L 252.479365 -67.260806 
L 251.133749 -67.749891 
L 249.788132 -68.317115 
L 248.442515 -68.982963 
L 247.096899 -69.77011 
L 245.751282 -70.703222 
L 244.405665 -71.808644 
L 243.060048 -73.113968 
L 241.714432 -74.647489 
L 240.368815 -76.437553 
L 239.023198 -78.511815 
L 237.677581 -80.896421 
L 236.331965 -83.615131 
L 234.986348 -86.688426 
L 233.640731 -90.132603 
L 232.295114 -93.958917 
L 230.949498 -98.172774 
L 229.603881 -102.773028 
L 228.258264 -107.751397 
L 226.912647 -113.092036 
L 225.567031 -118.771284 
L 224.221414 -124.757605 
L 222.875797 -131.011742 
L 221.53018 -137.487085 
L 220.184564 -144.130251 
L 218.838947 -150.881876 
L 217.49333 -157.67759 
L 216.147714 -164.44916 
L 214.802097 -171.125766 
L 213.45648 -177.635369 
L 212.110863 -183.90613 
L 210.765247 -189.867844 
L 209.41963 -195.453327 
L 208.074013 -200.599725 
L 206.728396 -205.249703 
L 205.38278 -209.352482 
L 204.037163 -212.864688 
L 202.691546 -215.751015 
L 201.345929 -217.984671 
L 200.000313 -219.547624 
L 198.654696 -220.430651 
L 197.309079 -220.633203 
L 195.963462 -220.163109 
L 194.617846 -219.036141 
L 193.272229 -217.275464 
L 191.926612 -214.910998 
L 190.580995 -211.978711 
L 189.235379 -208.519859 
L 187.889762 -204.580202 
L 186.544145 -200.20919 
L 185.198529 -195.45914 
L 183.852912 -190.384402 
L 182.507295 -185.040532 
L 181.161678 -179.483461 
L 179.816062 -173.768681 
L 178.470445 -167.950438 
L 177.124828 -162.080968 
L 175.779211 -156.209757 
L 174.433595 -150.382873 
L 173.087978 -144.642354 
L 171.742361 -139.025696 
L 170.396744 -133.565437 
L 169.051128 -128.288864 
L 167.705511 -123.21784 
L 166.359894 -118.368774 
L 165.014277 -113.752721 
L 163.668661 -109.375609 
L 162.323044 -105.238594 
L 160.977427 -101.338512 
L 159.63181 -97.668427 
L 158.286194 -94.218238 
L 156.940577 -90.975329 
L 155.59496 -87.925239 
L 154.249344 -85.052317 
L 152.903727 -82.340358 
L 151.55811 -79.773187 
L 150.212493 -77.335173 
L 148.866877 -75.011677 
L 147.52126 -72.789407 
L 146.175643 -70.656687 
L 144.830026 -68.60364 
L 143.48441 -66.622277 
L 142.138793 -64.706513 
L 140.793176 -62.852106 
L 139.447559 -61.056531 
L 138.101943 -59.31881 
L 136.756326 -57.639292 
L 135.410709 -56.019408 
L 134.065092 -54.461411 
L 132.719476 -52.968108 
L 131.373859 -51.542595 
L 130.028242 -50.188008 
L 128.682625 -48.907299 
L 127.337009 -47.703032 
L 125.991392 -46.577222 
L 124.645775 -45.531209 
L 123.300159 -44.565564 
L 121.954542 -43.680049 
L 120.608925 -42.873596 
L 119.263308 -42.144341 
L 117.917692 -41.489667 
L 116.572075 -40.906295 
L 115.226458 -40.390373 
L 113.880841 -39.937597 
L 112.535225 -39.543321 
L 111.189608 -39.202688 
L 109.843991 -38.910738 
L 108.498374 -38.662525 
L 107.152758 -38.453204 
L 105.807141 -38.278125 
L 104.461524 -38.132891 
L 103.115907 -38.01341 
L 101.770291 -37.915936 
L 100.424674 -37.837079 
L 99.079057 -37.77382 
L 97.73344 -37.723503 
L 96.387824 -37.683817 
L 95.042207 -37.652784 
z
" id="m4f5eb352b8" style="stroke:#d62728;"/>
    </defs>
    <g clip-path="url(#p3b01105d11)">
     <use style="fill:#d62728;fill-opacity:0.25;stroke:#d62728;" x="0" xlink:href="#m4f5eb352b8" y="262.19625"/>
    </g>
   </g>
   <g id="matplotlib.axis_1">
    <g id="xtick_1">
     <g id="line2d_1">
      <defs>
       <path d="M 0 0 
L 0 3.5 
" id="m3b75be93b5" style="stroke:#000000;stroke-width:0.8;"/>
      </defs>
      <g>
       <use style="stroke:#000000;stroke-width:0.8;" x="84.461908" xlink:href="#m3b75be93b5" y="224.64"/>
      </g>
     </g>
     <g id="text_1">
      <!-- −250 -->
      <g transform="translate(70.728314 239.238437)scale(0.1 -0.1)">
       <defs>
        <path d="M 678 2272 
L 4684 2272 
L 4684 1741 
L 678 1741 
L 678 2272 
z
" id="DejaVuSans-2212" transform="scale(0.015625)"/>
        <path d="M 1228 531 
L 3431 531 
L 3431 0 
L 469 0 
L 469 531 
Q 828 903 1448 1529 
Q 2069 2156 2228 2338 
Q 2531 2678 2651 2914 
Q 2772 3150 2772 3378 
Q 2772 3750 2511 3984 
Q 2250 4219 1831 4219 
Q 1534 4219 1204 4116 
Q 875 4013 500 3803 
L 500 4441 
Q 881 4594 1212 4672 
Q 1544 4750 1819 4750 
Q 2544 4750 2975 4387 
Q 3406 4025 3406 3419 
Q 3406 3131 3298 2873 
Q 3191 2616 2906 2266 
Q 2828 2175 2409 1742 
Q 1991 1309 1228 531 
z
" id="DejaVuSans-32" transform="scale(0.015625)"/>
        <path d="M 691 4666 
L 3169 4666 
L 3169 4134 
L 1269 4134 
L 1269 2991 
Q 1406 3038 1543 3061 
Q 1681 3084 1819 3084 
Q 2600 3084 3056 2656 
Q 3513 2228 3513 1497 
Q 3513 744 3044 326 
Q 2575 -91 1722 -91 
Q 1428 -91 1123 -41 
Q 819 9 494 109 
L 494 744 
Q 775 591 1075 516 
Q 1375 441 1709 441 
Q 2250 441 2565 725 
Q 2881 1009 2881 1497 
Q 2881 1984 2565 2268 
Q 2250 2553 1709 2553 
Q 1456 2553 1204 2497 
Q 953 2441 691 2322 
L 691 4666 
z
" id="DejaVuSans-35" transform="scale(0.015625)"/>
        <path d="M 2034 4250 
Q 1547 4250 1301 3770 
Q 1056 3291 1056 2328 
Q 1056 1369 1301 889 
Q 1547 409 2034 409 
Q 2525 409 2770 889 
Q 3016 1369 3016 2328 
Q 3016 3291 2770 3770 
Q 2525 4250 2034 4250 
z
M 2034 4750 
Q 2819 4750 3233 4129 
Q 3647 3509 3647 2328 
Q 3647 1150 3233 529 
Q 2819 -91 2034 -91 
Q 1250 -91 836 529 
Q 422 1150 422 2328 
Q 422 3509 836 4129 
Q 1250 4750 2034 4750 
z
" id="DejaVuSans-30" transform="scale(0.015625)"/>
       </defs>
       <use xlink:href="#DejaVuSans-2212"/>
       <use x="83.789062" xlink:href="#DejaVuSans-32"/>
       <use x="147.412109" xlink:href="#DejaVuSans-35"/>
       <use x="211.035156" xlink:href="#DejaVuSans-30"/>
      </g>
     </g>
    </g>
    <g id="xtick_2">
     <g id="line2d_2">
      <g>
       <use style="stroke:#000000;stroke-width:0.8;" x="123.805362" xlink:href="#m3b75be93b5" y="224.64"/>
      </g>
     </g>
     <g id="text_2">
      <!-- 0 -->
      <g transform="translate(120.624112 239.238437)scale(0.1 -0.1)">
       <use xlink:href="#DejaVuSans-30"/>
      </g>
     </g>
    </g>
    <g id="xtick_3">
     <g id="line2d_3">
      <g>
       <use style="stroke:#000000;stroke-width:0.8;" x="163.148817" xlink:href="#m3b75be93b5" y="224.64"/>
      </g>
     </g>
     <g id="text_3">
      <!-- 250 -->
      <g transform="translate(153.605067 239.238437)scale(0.1 -0.1)">
       <use xlink:href="#DejaVuSans-32"/>
       <use x="63.623047" xlink:href="#DejaVuSans-35"/>
       <use x="127.246094" xlink:href="#DejaVuSans-30"/>
      </g>
     </g>
    </g>
    <g id="xtick_4">
     <g id="line2d_4">
      <g>
       <use style="stroke:#000000;stroke-width:0.8;" x="202.492271" xlink:href="#m3b75be93b5" y="224.64"/>
      </g>
     </g>
     <g id="text_4">
      <!-- 500 -->
      <g transform="translate(192.948521 239.238437)scale(0.1 -0.1)">
       <use xlink:href="#DejaVuSans-35"/>
       <use x="63.623047" xlink:href="#DejaVuSans-30"/>
       <use x="127.246094" xlink:href="#DejaVuSans-30"/>
      </g>
     </g>
    </g>
    <g id="xtick_5">
     <g id="line2d_5">
      <g>
       <use style="stroke:#000000;stroke-width:0.8;" x="241.835726" xlink:href="#m3b75be93b5" y="224.64"/>
      </g>
     </g>
     <g id="text_5">
      <!-- 750 -->
      <g transform="translate(232.291976 239.238437)scale(0.1 -0.1)">
       <defs>
        <path d="M 525 4666 
L 3525 4666 
L 3525 4397 
L 1831 0 
L 1172 0 
L 2766 4134 
L 525 4134 
L 525 4666 
z
" id="DejaVuSans-37" transform="scale(0.015625)"/>
       </defs>
       <use xlink:href="#DejaVuSans-37"/>
       <use x="63.623047" xlink:href="#DejaVuSans-35"/>
       <use x="127.246094" xlink:href="#DejaVuSans-30"/>
      </g>
     </g>
    </g>
    <g id="xtick_6">
     <g id="line2d_6">
      <g>
       <use style="stroke:#000000;stroke-width:0.8;" x="281.17918" xlink:href="#m3b75be93b5" y="224.64"/>
      </g>
     </g>
     <g id="text_6">
      <!-- 1000 -->
      <g transform="translate(268.45418 239.238437)scale(0.1 -0.1)">
       <defs>
        <path d="M 794 531 
L 1825 531 
L 1825 4091 
L 703 3866 
L 703 4441 
L 1819 4666 
L 2450 4666 
L 2450 531 
L 3481 531 
L 3481 0 
L 794 0 
L 794 531 
z
" id="DejaVuSans-31" transform="scale(0.015625)"/>
       </defs>
       <use xlink:href="#DejaVuSans-31"/>
       <use x="63.623047" xlink:href="#DejaVuSans-30"/>
       <use x="127.246094" xlink:href="#DejaVuSans-30"/>
       <use x="190.869141" xlink:href="#DejaVuSans-30"/>
      </g>
     </g>
    </g>
    <g id="xtick_7">
     <g id="line2d_7">
      <g>
       <use style="stroke:#000000;stroke-width:0.8;" x="320.522635" xlink:href="#m3b75be93b5" y="224.64"/>
      </g>
     </g>
     <g id="text_7">
      <!-- 1250 -->
      <g transform="translate(307.797635 239.238437)scale(0.1 -0.1)">
       <use xlink:href="#DejaVuSans-31"/>
       <use x="63.623047" xlink:href="#DejaVuSans-32"/>
       <use x="127.246094" xlink:href="#DejaVuSans-35"/>
       <use x="190.869141" xlink:href="#DejaVuSans-30"/>
      </g>
     </g>
    </g>
    <g id="xtick_8">
     <g id="line2d_8">
      <g>
       <use style="stroke:#000000;stroke-width:0.8;" x="359.866089" xlink:href="#m3b75be93b5" y="224.64"/>
      </g>
     </g>
     <g id="text_8">
      <!-- 1500 -->
      <g transform="translate(347.141089 239.238437)scale(0.1 -0.1)">
       <use xlink:href="#DejaVuSans-31"/>
       <use x="63.623047" xlink:href="#DejaVuSans-35"/>
       <use x="127.246094" xlink:href="#DejaVuSans-30"/>
       <use x="190.869141" xlink:href="#DejaVuSans-30"/>
      </g>
     </g>
    </g>
    <g id="text_9">
     <!-- Number of fixations -->
     <g transform="translate(180.830469 252.916562)scale(0.1 -0.1)">
      <defs>
       <path d="M 628 4666 
L 1478 4666 
L 3547 763 
L 3547 4666 
L 4159 4666 
L 4159 0 
L 3309 0 
L 1241 3903 
L 1241 0 
L 628 0 
L 628 4666 
z
" id="DejaVuSans-4e" transform="scale(0.015625)"/>
       <path d="M 544 1381 
L 544 3500 
L 1119 3500 
L 1119 1403 
Q 1119 906 1312 657 
Q 1506 409 1894 409 
Q 2359 409 2629 706 
Q 2900 1003 2900 1516 
L 2900 3500 
L 3475 3500 
L 3475 0 
L 2900 0 
L 2900 538 
Q 2691 219 2414 64 
Q 2138 -91 1772 -91 
Q 1169 -91 856 284 
Q 544 659 544 1381 
z
M 1991 3584 
L 1991 3584 
z
" id="DejaVuSans-75" transform="scale(0.015625)"/>
       <path d="M 3328 2828 
Q 3544 3216 3844 3400 
Q 4144 3584 4550 3584 
Q 5097 3584 5394 3201 
Q 5691 2819 5691 2113 
L 5691 0 
L 5113 0 
L 5113 2094 
Q 5113 2597 4934 2840 
Q 4756 3084 4391 3084 
Q 3944 3084 3684 2787 
Q 3425 2491 3425 1978 
L 3425 0 
L 2847 0 
L 2847 2094 
Q 2847 2600 2669 2842 
Q 2491 3084 2119 3084 
Q 1678 3084 1418 2786 
Q 1159 2488 1159 1978 
L 1159 0 
L 581 0 
L 581 3500 
L 1159 3500 
L 1159 2956 
Q 1356 3278 1631 3431 
Q 1906 3584 2284 3584 
Q 2666 3584 2933 3390 
Q 3200 3197 3328 2828 
z
" id="DejaVuSans-6d" transform="scale(0.015625)"/>
       <path d="M 3116 1747 
Q 3116 2381 2855 2742 
Q 2594 3103 2138 3103 
Q 1681 3103 1420 2742 
Q 1159 2381 1159 1747 
Q 1159 1113 1420 752 
Q 1681 391 2138 391 
Q 2594 391 2855 752 
Q 3116 1113 3116 1747 
z
M 1159 2969 
Q 1341 3281 1617 3432 
Q 1894 3584 2278 3584 
Q 2916 3584 3314 3078 
Q 3713 2572 3713 1747 
Q 3713 922 3314 415 
Q 2916 -91 2278 -91 
Q 1894 -91 1617 61 
Q 1341 213 1159 525 
L 1159 0 
L 581 0 
L 581 4863 
L 1159 4863 
L 1159 2969 
z
" id="DejaVuSans-62" transform="scale(0.015625)"/>
       <path d="M 3597 1894 
L 3597 1613 
L 953 1613 
Q 991 1019 1311 708 
Q 1631 397 2203 397 
Q 2534 397 2845 478 
Q 3156 559 3463 722 
L 3463 178 
Q 3153 47 2828 -22 
Q 2503 -91 2169 -91 
Q 1331 -91 842 396 
Q 353 884 353 1716 
Q 353 2575 817 3079 
Q 1281 3584 2069 3584 
Q 2775 3584 3186 3129 
Q 3597 2675 3597 1894 
z
M 3022 2063 
Q 3016 2534 2758 2815 
Q 2500 3097 2075 3097 
Q 1594 3097 1305 2825 
Q 1016 2553 972 2059 
L 3022 2063 
z
" id="DejaVuSans-65" transform="scale(0.015625)"/>
       <path d="M 2631 2963 
Q 2534 3019 2420 3045 
Q 2306 3072 2169 3072 
Q 1681 3072 1420 2755 
Q 1159 2438 1159 1844 
L 1159 0 
L 581 0 
L 581 3500 
L 1159 3500 
L 1159 2956 
Q 1341 3275 1631 3429 
Q 1922 3584 2338 3584 
Q 2397 3584 2469 3576 
Q 2541 3569 2628 3553 
L 2631 2963 
z
" id="DejaVuSans-72" transform="scale(0.015625)"/>
       <path id="DejaVuSans-20" transform="scale(0.015625)"/>
       <path d="M 1959 3097 
Q 1497 3097 1228 2736 
Q 959 2375 959 1747 
Q 959 1119 1226 758 
Q 1494 397 1959 397 
Q 2419 397 2687 759 
Q 2956 1122 2956 1747 
Q 2956 2369 2687 2733 
Q 2419 3097 1959 3097 
z
M 1959 3584 
Q 2709 3584 3137 3096 
Q 3566 2609 3566 1747 
Q 3566 888 3137 398 
Q 2709 -91 1959 -91 
Q 1206 -91 779 398 
Q 353 888 353 1747 
Q 353 2609 779 3096 
Q 1206 3584 1959 3584 
z
" id="DejaVuSans-6f" transform="scale(0.015625)"/>
       <path d="M 2375 4863 
L 2375 4384 
L 1825 4384 
Q 1516 4384 1395 4259 
Q 1275 4134 1275 3809 
L 1275 3500 
L 2222 3500 
L 2222 3053 
L 1275 3053 
L 1275 0 
L 697 0 
L 697 3053 
L 147 3053 
L 147 3500 
L 697 3500 
L 697 3744 
Q 697 4328 969 4595 
Q 1241 4863 1831 4863 
L 2375 4863 
z
" id="DejaVuSans-66" transform="scale(0.015625)"/>
       <path d="M 603 3500 
L 1178 3500 
L 1178 0 
L 603 0 
L 603 3500 
z
M 603 4863 
L 1178 4863 
L 1178 4134 
L 603 4134 
L 603 4863 
z
" id="DejaVuSans-69" transform="scale(0.015625)"/>
       <path d="M 3513 3500 
L 2247 1797 
L 3578 0 
L 2900 0 
L 1881 1375 
L 863 0 
L 184 0 
L 1544 1831 
L 300 3500 
L 978 3500 
L 1906 2253 
L 2834 3500 
L 3513 3500 
z
" id="DejaVuSans-78" transform="scale(0.015625)"/>
       <path d="M 2194 1759 
Q 1497 1759 1228 1600 
Q 959 1441 959 1056 
Q 959 750 1161 570 
Q 1363 391 1709 391 
Q 2188 391 2477 730 
Q 2766 1069 2766 1631 
L 2766 1759 
L 2194 1759 
z
M 3341 1997 
L 3341 0 
L 2766 0 
L 2766 531 
Q 2569 213 2275 61 
Q 1981 -91 1556 -91 
Q 1019 -91 701 211 
Q 384 513 384 1019 
Q 384 1609 779 1909 
Q 1175 2209 1959 2209 
L 2766 2209 
L 2766 2266 
Q 2766 2663 2505 2880 
Q 2244 3097 1772 3097 
Q 1472 3097 1187 3025 
Q 903 2953 641 2809 
L 641 3341 
Q 956 3463 1253 3523 
Q 1550 3584 1831 3584 
Q 2591 3584 2966 3190 
Q 3341 2797 3341 1997 
z
" id="DejaVuSans-61" transform="scale(0.015625)"/>
       <path d="M 1172 4494 
L 1172 3500 
L 2356 3500 
L 2356 3053 
L 1172 3053 
L 1172 1153 
Q 1172 725 1289 603 
Q 1406 481 1766 481 
L 2356 481 
L 2356 0 
L 1766 0 
Q 1100 0 847 248 
Q 594 497 594 1153 
L 594 3053 
L 172 3053 
L 172 3500 
L 594 3500 
L 594 4494 
L 1172 4494 
z
" id="DejaVuSans-74" transform="scale(0.015625)"/>
       <path d="M 3513 2113 
L 3513 0 
L 2938 0 
L 2938 2094 
Q 2938 2591 2744 2837 
Q 2550 3084 2163 3084 
Q 1697 3084 1428 2787 
Q 1159 2491 1159 1978 
L 1159 0 
L 581 0 
L 581 3500 
L 1159 3500 
L 1159 2956 
Q 1366 3272 1645 3428 
Q 1925 3584 2291 3584 
Q 2894 3584 3203 3211 
Q 3513 2838 3513 2113 
z
" id="DejaVuSans-6e" transform="scale(0.015625)"/>
       <path d="M 2834 3397 
L 2834 2853 
Q 2591 2978 2328 3040 
Q 2066 3103 1784 3103 
Q 1356 3103 1142 2972 
Q 928 2841 928 2578 
Q 928 2378 1081 2264 
Q 1234 2150 1697 2047 
L 1894 2003 
Q 2506 1872 2764 1633 
Q 3022 1394 3022 966 
Q 3022 478 2636 193 
Q 2250 -91 1575 -91 
Q 1294 -91 989 -36 
Q 684 19 347 128 
L 347 722 
Q 666 556 975 473 
Q 1284 391 1588 391 
Q 1994 391 2212 530 
Q 2431 669 2431 922 
Q 2431 1156 2273 1281 
Q 2116 1406 1581 1522 
L 1381 1569 
Q 847 1681 609 1914 
Q 372 2147 372 2553 
Q 372 3047 722 3315 
Q 1072 3584 1716 3584 
Q 2034 3584 2315 3537 
Q 2597 3491 2834 3397 
z
" id="DejaVuSans-73" transform="scale(0.015625)"/>
      </defs>
      <use xlink:href="#DejaVuSans-4e"/>
      <use x="74.804688" xlink:href="#DejaVuSans-75"/>
      <use x="138.183594" xlink:href="#DejaVuSans-6d"/>
      <use x="235.595703" xlink:href="#DejaVuSans-62"/>
      <use x="299.072266" xlink:href="#DejaVuSans-65"/>
      <use x="360.595703" xlink:href="#DejaVuSans-72"/>
      <use x="401.708984" xlink:href="#DejaVuSans-20"/>
      <use x="433.496094" xlink:href="#DejaVuSans-6f"/>
      <use x="494.677734" xlink:href="#DejaVuSans-66"/>
      <use x="529.882812" xlink:href="#DejaVuSans-20"/>
      <use x="561.669922" xlink:href="#DejaVuSans-66"/>
      <use x="596.875" xlink:href="#DejaVuSans-69"/>
      <use x="624.658203" xlink:href="#DejaVuSans-78"/>
      <use x="683.837891" xlink:href="#DejaVuSans-61"/>
      <use x="745.117188" xlink:href="#DejaVuSans-74"/>
      <use x="784.326172" xlink:href="#DejaVuSans-69"/>
      <use x="812.109375" xlink:href="#DejaVuSans-6f"/>
      <use x="873.291016" xlink:href="#DejaVuSans-6e"/>
      <use x="936.669922" xlink:href="#DejaVuSans-73"/>
     </g>
    </g>
   </g>
   <g id="matplotlib.axis_2">
    <g id="ytick_1">
     <g id="line2d_9">
      <defs>
       <path d="M 0 0 
L -3.5 0 
" id="m672bc2748e" style="stroke:#000000;stroke-width:0.8;"/>
      </defs>
      <g>
       <use style="stroke:#000000;stroke-width:0.8;" x="62.86875" xlink:href="#m672bc2748e" y="224.64"/>
      </g>
     </g>
     <g id="text_10">
      <!-- 0.0000 -->
      <g transform="translate(20.878125 228.439219)scale(0.1 -0.1)">
       <defs>
        <path d="M 684 794 
L 1344 794 
L 1344 0 
L 684 0 
L 684 794 
z
" id="DejaVuSans-2e" transform="scale(0.015625)"/>
       </defs>
       <use xlink:href="#DejaVuSans-30"/>
       <use x="63.623047" xlink:href="#DejaVuSans-2e"/>
       <use x="95.410156" xlink:href="#DejaVuSans-30"/>
       <use x="159.033203" xlink:href="#DejaVuSans-30"/>
       <use x="222.65625" xlink:href="#DejaVuSans-30"/>
       <use x="286.279297" xlink:href="#DejaVuSans-30"/>
      </g>
     </g>
    </g>
    <g id="ytick_2">
     <g id="line2d_10">
      <g>
       <use style="stroke:#000000;stroke-width:0.8;" x="62.86875" xlink:href="#m672bc2748e" y="184.574857"/>
      </g>
     </g>
     <g id="text_11">
      <!-- 0.0005 -->
      <g transform="translate(20.878125 188.374076)scale(0.1 -0.1)">
       <use xlink:href="#DejaVuSans-30"/>
       <use x="63.623047" xlink:href="#DejaVuSans-2e"/>
       <use x="95.410156" xlink:href="#DejaVuSans-30"/>
       <use x="159.033203" xlink:href="#DejaVuSans-30"/>
       <use x="222.65625" xlink:href="#DejaVuSans-30"/>
       <use x="286.279297" xlink:href="#DejaVuSans-35"/>
      </g>
     </g>
    </g>
    <g id="ytick_3">
     <g id="line2d_11">
      <g>
       <use style="stroke:#000000;stroke-width:0.8;" x="62.86875" xlink:href="#m672bc2748e" y="144.509714"/>
      </g>
     </g>
     <g id="text_12">
      <!-- 0.0010 -->
      <g transform="translate(20.878125 148.308933)scale(0.1 -0.1)">
       <use xlink:href="#DejaVuSans-30"/>
       <use x="63.623047" xlink:href="#DejaVuSans-2e"/>
       <use x="95.410156" xlink:href="#DejaVuSans-30"/>
       <use x="159.033203" xlink:href="#DejaVuSans-30"/>
       <use x="222.65625" xlink:href="#DejaVuSans-31"/>
       <use x="286.279297" xlink:href="#DejaVuSans-30"/>
      </g>
     </g>
    </g>
    <g id="ytick_4">
     <g id="line2d_12">
      <g>
       <use style="stroke:#000000;stroke-width:0.8;" x="62.86875" xlink:href="#m672bc2748e" y="104.444572"/>
      </g>
     </g>
     <g id="text_13">
      <!-- 0.0015 -->
      <g transform="translate(20.878125 108.24379)scale(0.1 -0.1)">
       <use xlink:href="#DejaVuSans-30"/>
       <use x="63.623047" xlink:href="#DejaVuSans-2e"/>
       <use x="95.410156" xlink:href="#DejaVuSans-30"/>
       <use x="159.033203" xlink:href="#DejaVuSans-30"/>
       <use x="222.65625" xlink:href="#DejaVuSans-31"/>
       <use x="286.279297" xlink:href="#DejaVuSans-35"/>
      </g>
     </g>
    </g>
    <g id="ytick_5">
     <g id="line2d_13">
      <g>
       <use style="stroke:#000000;stroke-width:0.8;" x="62.86875" xlink:href="#m672bc2748e" y="64.379429"/>
      </g>
     </g>
     <g id="text_14">
      <!-- 0.0020 -->
      <g transform="translate(20.878125 68.178648)scale(0.1 -0.1)">
       <use xlink:href="#DejaVuSans-30"/>
       <use x="63.623047" xlink:href="#DejaVuSans-2e"/>
       <use x="95.410156" xlink:href="#DejaVuSans-30"/>
       <use x="159.033203" xlink:href="#DejaVuSans-30"/>
       <use x="222.65625" xlink:href="#DejaVuSans-32"/>
       <use x="286.279297" xlink:href="#DejaVuSans-30"/>
      </g>
     </g>
    </g>
    <g id="ytick_6">
     <g id="line2d_14">
      <g>
       <use style="stroke:#000000;stroke-width:0.8;" x="62.86875" xlink:href="#m672bc2748e" y="24.314286"/>
      </g>
     </g>
     <g id="text_15">
      <!-- 0.0025 -->
      <g transform="translate(20.878125 28.113505)scale(0.1 -0.1)">
       <use xlink:href="#DejaVuSans-30"/>
       <use x="63.623047" xlink:href="#DejaVuSans-2e"/>
       <use x="95.410156" xlink:href="#DejaVuSans-30"/>
       <use x="159.033203" xlink:href="#DejaVuSans-30"/>
       <use x="222.65625" xlink:href="#DejaVuSans-32"/>
       <use x="286.279297" xlink:href="#DejaVuSans-35"/>
      </g>
     </g>
    </g>
    <g id="text_16">
     <!-- Density -->
     <g transform="translate(14.798438 134.928594)rotate(-90)scale(0.1 -0.1)">
      <defs>
       <path d="M 1259 4147 
L 1259 519 
L 2022 519 
Q 2988 519 3436 956 
Q 3884 1394 3884 2338 
Q 3884 3275 3436 3711 
Q 2988 4147 2022 4147 
L 1259 4147 
z
M 628 4666 
L 1925 4666 
Q 3281 4666 3915 4102 
Q 4550 3538 4550 2338 
Q 4550 1131 3912 565 
Q 3275 0 1925 0 
L 628 0 
L 628 4666 
z
" id="DejaVuSans-44" transform="scale(0.015625)"/>
       <path d="M 2059 -325 
Q 1816 -950 1584 -1140 
Q 1353 -1331 966 -1331 
L 506 -1331 
L 506 -850 
L 844 -850 
Q 1081 -850 1212 -737 
Q 1344 -625 1503 -206 
L 1606 56 
L 191 3500 
L 800 3500 
L 1894 763 
L 2988 3500 
L 3597 3500 
L 2059 -325 
z
" id="DejaVuSans-79" transform="scale(0.015625)"/>
      </defs>
      <use xlink:href="#DejaVuSans-44"/>
      <use x="77.001953" xlink:href="#DejaVuSans-65"/>
      <use x="138.525391" xlink:href="#DejaVuSans-6e"/>
      <use x="201.904297" xlink:href="#DejaVuSans-73"/>
      <use x="254.003906" xlink:href="#DejaVuSans-69"/>
      <use x="281.787109" xlink:href="#DejaVuSans-74"/>
      <use x="320.996094" xlink:href="#DejaVuSans-79"/>
     </g>
    </g>
   </g>
   <g id="patch_3">
    <path d="M 62.86875 224.64 
L 62.86875 7.2 
" style="fill:none;stroke:#000000;stroke-linecap:square;stroke-linejoin:miter;stroke-width:0.8;"/>
   </g>
   <g id="patch_4">
    <path d="M 397.66875 224.64 
L 397.66875 7.2 
" style="fill:none;stroke:#000000;stroke-linecap:square;stroke-linejoin:miter;stroke-width:0.8;"/>
   </g>
   <g id="patch_5">
    <path d="M 62.86875 224.64 
L 397.66875 224.64 
" style="fill:none;stroke:#000000;stroke-linecap:square;stroke-linejoin:miter;stroke-width:0.8;"/>
   </g>
   <g id="patch_6">
    <path d="M 62.86875 7.2 
L 397.66875 7.2 
" style="fill:none;stroke:#000000;stroke-linecap:square;stroke-linejoin:miter;stroke-width:0.8;"/>
   </g>
   <g id="legend_1">
    <g id="patch_7">
     <path d="M 328.26875 73.9125 
L 390.66875 73.9125 
Q 392.66875 73.9125 392.66875 71.9125 
L 392.66875 14.2 
Q 392.66875 12.2 390.66875 12.2 
L 328.26875 12.2 
Q 326.26875 12.2 326.26875 14.2 
L 326.26875 71.9125 
Q 326.26875 73.9125 328.26875 73.9125 
z
" style="fill:#ffffff;opacity:0.8;stroke:#cccccc;stroke-linejoin:miter;"/>
    </g>
    <g id="patch_8">
     <path d="M 330.26875 23.798437 
L 350.26875 23.798437 
L 350.26875 16.798437 
L 330.26875 16.798437 
z
" style="fill:#1f77b4;fill-opacity:0.25;stroke:#1f77b4;stroke-linejoin:miter;"/>
    </g>
    <g id="text_17">
     <!-- Prawa -->
     <g transform="translate(358.26875 23.798437)scale(0.1 -0.1)">
      <defs>
       <path d="M 1259 4147 
L 1259 2394 
L 2053 2394 
Q 2494 2394 2734 2622 
Q 2975 2850 2975 3272 
Q 2975 3691 2734 3919 
Q 2494 4147 2053 4147 
L 1259 4147 
z
M 628 4666 
L 2053 4666 
Q 2838 4666 3239 4311 
Q 3641 3956 3641 3272 
Q 3641 2581 3239 2228 
Q 2838 1875 2053 1875 
L 1259 1875 
L 1259 0 
L 628 0 
L 628 4666 
z
" id="DejaVuSans-50" transform="scale(0.015625)"/>
       <path d="M 269 3500 
L 844 3500 
L 1563 769 
L 2278 3500 
L 2956 3500 
L 3675 769 
L 4391 3500 
L 4966 3500 
L 4050 0 
L 3372 0 
L 2619 2869 
L 1863 0 
L 1184 0 
L 269 3500 
z
" id="DejaVuSans-77" transform="scale(0.015625)"/>
      </defs>
      <use xlink:href="#DejaVuSans-50"/>
      <use x="58.552734" xlink:href="#DejaVuSans-72"/>
      <use x="99.666016" xlink:href="#DejaVuSans-61"/>
      <use x="160.945312" xlink:href="#DejaVuSans-77"/>
      <use x="242.732422" xlink:href="#DejaVuSans-61"/>
     </g>
    </g>
    <g id="patch_9">
     <path d="M 330.26875 38.476562 
L 350.26875 38.476562 
L 350.26875 31.476562 
L 330.26875 31.476562 
z
" style="fill:#ff7f0e;fill-opacity:0.25;stroke:#ff7f0e;stroke-linejoin:miter;"/>
    </g>
    <g id="text_18">
     <!-- Przód -->
     <g transform="translate(358.26875 38.476562)scale(0.1 -0.1)">
      <defs>
       <path d="M 353 3500 
L 3084 3500 
L 3084 2975 
L 922 459 
L 3084 459 
L 3084 0 
L 275 0 
L 275 525 
L 2438 3041 
L 353 3041 
L 353 3500 
z
" id="DejaVuSans-7a" transform="scale(0.015625)"/>
       <path d="M 1959 3097 
Q 1497 3097 1228 2736 
Q 959 2375 959 1747 
Q 959 1119 1226 758 
Q 1494 397 1959 397 
Q 2419 397 2687 759 
Q 2956 1122 2956 1747 
Q 2956 2369 2687 2733 
Q 2419 3097 1959 3097 
z
M 1959 3584 
Q 2709 3584 3137 3096 
Q 3566 2609 3566 1747 
Q 3566 888 3137 398 
Q 2709 -91 1959 -91 
Q 1206 -91 779 398 
Q 353 888 353 1747 
Q 353 2609 779 3096 
Q 1206 3584 1959 3584 
z
M 2394 5119 
L 3016 5119 
L 1998 3944 
L 1519 3944 
L 2394 5119 
z
" id="DejaVuSans-f3" transform="scale(0.015625)"/>
       <path d="M 2906 2969 
L 2906 4863 
L 3481 4863 
L 3481 0 
L 2906 0 
L 2906 525 
Q 2725 213 2448 61 
Q 2172 -91 1784 -91 
Q 1150 -91 751 415 
Q 353 922 353 1747 
Q 353 2572 751 3078 
Q 1150 3584 1784 3584 
Q 2172 3584 2448 3432 
Q 2725 3281 2906 2969 
z
M 947 1747 
Q 947 1113 1208 752 
Q 1469 391 1925 391 
Q 2381 391 2643 752 
Q 2906 1113 2906 1747 
Q 2906 2381 2643 2742 
Q 2381 3103 1925 3103 
Q 1469 3103 1208 2742 
Q 947 2381 947 1747 
z
" id="DejaVuSans-64" transform="scale(0.015625)"/>
      </defs>
      <use xlink:href="#DejaVuSans-50"/>
      <use x="58.552734" xlink:href="#DejaVuSans-72"/>
      <use x="99.666016" xlink:href="#DejaVuSans-7a"/>
      <use x="152.15625" xlink:href="#DejaVuSans-f3"/>
      <use x="213.337891" xlink:href="#DejaVuSans-64"/>
     </g>
    </g>
    <g id="patch_10">
     <path d="M 330.26875 53.154687 
L 350.26875 53.154687 
L 350.26875 46.154687 
L 330.26875 46.154687 
z
" style="fill:#2ca02c;fill-opacity:0.25;stroke:#2ca02c;stroke-linejoin:miter;"/>
    </g>
    <g id="text_19">
     <!-- Lewa -->
     <g transform="translate(358.26875 53.154687)scale(0.1 -0.1)">
      <defs>
       <path d="M 628 4666 
L 1259 4666 
L 1259 531 
L 3531 531 
L 3531 0 
L 628 0 
L 628 4666 
z
" id="DejaVuSans-4c" transform="scale(0.015625)"/>
      </defs>
      <use xlink:href="#DejaVuSans-4c"/>
      <use x="53.962891" xlink:href="#DejaVuSans-65"/>
      <use x="115.486328" xlink:href="#DejaVuSans-77"/>
      <use x="197.273438" xlink:href="#DejaVuSans-61"/>
     </g>
    </g>
    <g id="patch_11">
     <path d="M 330.26875 67.832812 
L 350.26875 67.832812 
L 350.26875 60.832812 
L 330.26875 60.832812 
z
" style="fill:#d62728;fill-opacity:0.25;stroke:#d62728;stroke-linejoin:miter;"/>
    </g>
    <g id="text_20">
     <!-- Tory -->
     <g transform="translate(358.26875 67.832812)scale(0.1 -0.1)">
      <defs>
       <path d="M -19 4666 
L 3928 4666 
L 3928 4134 
L 2272 4134 
L 2272 0 
L 1638 0 
L 1638 4134 
L -19 4134 
L -19 4666 
z
" id="DejaVuSans-54" transform="scale(0.015625)"/>
      </defs>
      <use xlink:href="#DejaVuSans-54"/>
      <use x="44.083984" xlink:href="#DejaVuSans-6f"/>
      <use x="105.265625" xlink:href="#DejaVuSans-72"/>
      <use x="146.378906" xlink:href="#DejaVuSans-79"/>
     </g>
    </g>
   </g>
  </g>
 </g>
 <defs>
  <clipPath id="p3b01105d11">
   <rect height="217.44" width="334.8" x="62.86875" y="7.2"/>
  </clipPath>
 </defs>
</svg>
