<?xml version="1.0" encoding="utf-8" standalone="no"?>
<!DOCTYPE svg PUBLIC "-//W3C//DTD SVG 1.1//EN"
  "http://www.w3.org/Graphics/SVG/1.1/DTD/svg11.dtd">
<svg height="248.518125pt" version="1.1" viewBox="0 0 380.482812 248.518125" width="380.482812pt" xmlns="http://www.w3.org/2000/svg" xmlns:xlink="http://www.w3.org/1999/xlink">
 <metadata>
  <rdf:RDF xmlns:cc="http://creativecommons.org/ns#" xmlns:dc="http://purl.org/dc/elements/1.1/" xmlns:rdf="http://www.w3.org/1999/02/22-rdf-syntax-ns#">
   <cc:Work>
    <dc:type rdf:resource="http://purl.org/dc/dcmitype/StillImage"/>
    <dc:date>2021-07-02T00:32:20.442598</dc:date>
    <dc:format>image/svg+xml</dc:format>
    <dc:creator>
     <cc:Agent>
      <dc:title>Matplotlib v3.4.2, https://matplotlib.org/</dc:title>
     </cc:Agent>
    </dc:creator>
   </cc:Work>
  </rdf:RDF>
 </metadata>
 <defs>
  <style type="text/css">*{stroke-linecap:butt;stroke-linejoin:round;}</style>
 </defs>
 <g id="figure_1">
  <g id="patch_1">
   <path d="M -0 248.518125 
L 380.482812 248.518125 
L 380.482812 0 
L -0 0 
z
" style="fill:none;"/>
  </g>
  <g id="axes_1">
   <g id="patch_2">
    <path d="M 38.482813 224.64 
L 373.282813 224.64 
L 373.282813 7.2 
L 38.482813 7.2 
z
" style="fill:#ffffff;"/>
   </g>
   <g id="PathCollection_1">
    <defs>
     <path d="M 0 1.5 
C 0.397805 1.5 0.77937 1.341951 1.06066 1.06066 
C 1.341951 0.77937 1.5 0.397805 1.5 0 
C 1.5 -0.397805 1.341951 -0.77937 1.06066 -1.06066 
C 0.77937 -1.341951 0.397805 -1.5 0 -1.5 
C -0.397805 -1.5 -0.77937 -1.341951 -1.06066 -1.06066 
C -1.341951 -0.77937 -1.5 -0.397805 -1.5 0 
C -1.5 0.397805 -1.341951 0.77937 -1.06066 1.06066 
C -0.77937 1.341951 -0.397805 1.5 0 1.5 
z
" id="m6e0e100b79" style="stroke:#000000;"/>
    </defs>
    <g clip-path="url(#p78f1b0fbc8)">
     <use style="stroke:#000000;" x="216.419869" xlink:href="#m6e0e100b79" y="140.301931"/>
     <use style="stroke:#000000;" x="203.427037" xlink:href="#m6e0e100b79" y="112.968824"/>
     <use style="stroke:#000000;" x="190.133007" xlink:href="#m6e0e100b79" y="132.941706"/>
     <use style="stroke:#000000;" x="215.592383" xlink:href="#m6e0e100b79" y="80.163719"/>
     <use style="stroke:#000000;" x="216.755321" xlink:href="#m6e0e100b79" y="114.795939"/>
     <use style="stroke:#000000;" x="211.384896" xlink:href="#m6e0e100b79" y="117.244396"/>
     <use style="stroke:#000000;" x="198.336386" xlink:href="#m6e0e100b79" y="130.489338"/>
     <use style="stroke:#000000;" x="215.141613" xlink:href="#m6e0e100b79" y="158.64761"/>
     <use style="stroke:#000000;" x="213.767749" xlink:href="#m6e0e100b79" y="92.400924"/>
     <use style="stroke:#000000;" x="222.541631" xlink:href="#m6e0e100b79" y="87.940141"/>
     <use style="stroke:#000000;" x="227.215835" xlink:href="#m6e0e100b79" y="121.71837"/>
     <use style="stroke:#000000;" x="222.858699" xlink:href="#m6e0e100b79" y="131.035777"/>
     <use style="stroke:#000000;" x="201.320721" xlink:href="#m6e0e100b79" y="98.21017"/>
     <use style="stroke:#000000;" x="197.183835" xlink:href="#m6e0e100b79" y="94.097998"/>
     <use style="stroke:#000000;" x="203.826644" xlink:href="#m6e0e100b79" y="122.399736"/>
     <use style="stroke:#000000;" x="184.717433" xlink:href="#m6e0e100b79" y="106.300167"/>
     <use style="stroke:#000000;" x="213.591755" xlink:href="#m6e0e100b79" y="127.237197"/>
     <use style="stroke:#000000;" x="206.75029" xlink:href="#m6e0e100b79" y="138.263793"/>
     <use style="stroke:#000000;" x="180.878161" xlink:href="#m6e0e100b79" y="135.318474"/>
     <use style="stroke:#000000;" x="190.025661" xlink:href="#m6e0e100b79" y="88.508418"/>
     <use style="stroke:#000000;" x="232.912135" xlink:href="#m6e0e100b79" y="113.116239"/>
     <use style="stroke:#000000;" x="208.682124" xlink:href="#m6e0e100b79" y="71.772795"/>
     <use style="stroke:#000000;" x="199.504151" xlink:href="#m6e0e100b79" y="134.474973"/>
     <use style="stroke:#000000;" x="209.850947" xlink:href="#m6e0e100b79" y="100.913196"/>
     <use style="stroke:#000000;" x="198.267109" xlink:href="#m6e0e100b79" y="130.664538"/>
     <use style="stroke:#000000;" x="191.684053" xlink:href="#m6e0e100b79" y="35.947321"/>
     <use style="stroke:#000000;" x="192.4287" xlink:href="#m6e0e100b79" y="134.975198"/>
     <use style="stroke:#000000;" x="213.792567" xlink:href="#m6e0e100b79" y="123.805797"/>
     <use style="stroke:#000000;" x="209.862437" xlink:href="#m6e0e100b79" y="95.704101"/>
     <use style="stroke:#000000;" x="208.023378" xlink:href="#m6e0e100b79" y="117.13629"/>
     <use style="stroke:#000000;" x="211.796195" xlink:href="#m6e0e100b79" y="95.973903"/>
     <use style="stroke:#000000;" x="203.393081" xlink:href="#m6e0e100b79" y="107.028531"/>
     <use style="stroke:#000000;" x="210.333078" xlink:href="#m6e0e100b79" y="93.274417"/>
     <use style="stroke:#000000;" x="179.527131" xlink:href="#m6e0e100b79" y="104.740602"/>
     <use style="stroke:#000000;" x="203.55014" xlink:href="#m6e0e100b79" y="54.576795"/>
     <use style="stroke:#000000;" x="214.479775" xlink:href="#m6e0e100b79" y="110.886636"/>
     <use style="stroke:#000000;" x="176.843162" xlink:href="#m6e0e100b79" y="118.173447"/>
     <use style="stroke:#000000;" x="197.453746" xlink:href="#m6e0e100b79" y="103.05899"/>
     <use style="stroke:#000000;" x="194.255757" xlink:href="#m6e0e100b79" y="114.101527"/>
     <use style="stroke:#000000;" x="206.373668" xlink:href="#m6e0e100b79" y="120.99334"/>
     <use style="stroke:#000000;" x="216.474953" xlink:href="#m6e0e100b79" y="129.965218"/>
    </g>
   </g>
   <g id="PathCollection_2">
    <defs>
     <path d="M 0 1.5 
C 0.397805 1.5 0.77937 1.341951 1.06066 1.06066 
C 1.341951 0.77937 1.5 0.397805 1.5 0 
C 1.5 -0.397805 1.341951 -0.77937 1.06066 -1.06066 
C 0.77937 -1.341951 0.397805 -1.5 0 -1.5 
C -0.397805 -1.5 -0.77937 -1.341951 -1.06066 -1.06066 
C -1.341951 -0.77937 -1.5 -0.397805 -1.5 0 
C -1.5 0.397805 -1.341951 0.77937 -1.06066 1.06066 
C -0.77937 1.341951 -0.397805 1.5 0 1.5 
z
" id="me500e6e4fa" style="stroke:#0078dd;"/>
    </defs>
    <g clip-path="url(#p78f1b0fbc8)">
     <use style="fill:#0078dd;stroke:#0078dd;" x="208.586655" xlink:href="#me500e6e4fa" y="112.068416"/>
     <use style="fill:#0078dd;stroke:#0078dd;" x="194.639699" xlink:href="#me500e6e4fa" y="116.623718"/>
     <use style="fill:#0078dd;stroke:#0078dd;" x="186.487672" xlink:href="#me500e6e4fa" y="86.303632"/>
     <use style="fill:#0078dd;stroke:#0078dd;" x="192.641468" xlink:href="#me500e6e4fa" y="73.068391"/>
     <use style="fill:#0078dd;stroke:#0078dd;" x="164.815345" xlink:href="#me500e6e4fa" y="136.441371"/>
     <use style="fill:#0078dd;stroke:#0078dd;" x="201.14282" xlink:href="#me500e6e4fa" y="112.689413"/>
     <use style="fill:#0078dd;stroke:#0078dd;" x="232.581169" xlink:href="#me500e6e4fa" y="95.921233"/>
     <use style="fill:#0078dd;stroke:#0078dd;" x="241.573211" xlink:href="#me500e6e4fa" y="84.815201"/>
     <use style="fill:#0078dd;stroke:#0078dd;" x="236.595722" xlink:href="#me500e6e4fa" y="153.358288"/>
     <use style="fill:#0078dd;stroke:#0078dd;" x="200.825723" xlink:href="#me500e6e4fa" y="112.468204"/>
     <use style="fill:#0078dd;stroke:#0078dd;" x="187.947798" xlink:href="#me500e6e4fa" y="52.670208"/>
     <use style="fill:#0078dd;stroke:#0078dd;" x="237.415351" xlink:href="#me500e6e4fa" y="162.267915"/>
     <use style="fill:#0078dd;stroke:#0078dd;" x="212.806453" xlink:href="#me500e6e4fa" y="181.548876"/>
     <use style="fill:#0078dd;stroke:#0078dd;" x="201.40257" xlink:href="#me500e6e4fa" y="110.144778"/>
     <use style="fill:#0078dd;stroke:#0078dd;" x="254.564183" xlink:href="#me500e6e4fa" y="122.076148"/>
     <use style="fill:#0078dd;stroke:#0078dd;" x="172.666407" xlink:href="#me500e6e4fa" y="151.167925"/>
     <use style="fill:#0078dd;stroke:#0078dd;" x="175.100336" xlink:href="#me500e6e4fa" y="98.025498"/>
     <use style="fill:#0078dd;stroke:#0078dd;" x="218.122701" xlink:href="#me500e6e4fa" y="144.469978"/>
     <use style="fill:#0078dd;stroke:#0078dd;" x="234.016272" xlink:href="#me500e6e4fa" y="146.526933"/>
     <use style="fill:#0078dd;stroke:#0078dd;" x="194.310619" xlink:href="#me500e6e4fa" y="119.136959"/>
     <use style="fill:#0078dd;stroke:#0078dd;" x="205.686523" xlink:href="#me500e6e4fa" y="162.925302"/>
     <use style="fill:#0078dd;stroke:#0078dd;" x="216.747232" xlink:href="#me500e6e4fa" y="111.866708"/>
     <use style="fill:#0078dd;stroke:#0078dd;" x="212.220243" xlink:href="#me500e6e4fa" y="175.827579"/>
     <use style="fill:#0078dd;stroke:#0078dd;" x="232.459142" xlink:href="#me500e6e4fa" y="140.082473"/>
     <use style="fill:#0078dd;stroke:#0078dd;" x="199.857408" xlink:href="#me500e6e4fa" y="109.992507"/>
     <use style="fill:#0078dd;stroke:#0078dd;" x="209.938029" xlink:href="#me500e6e4fa" y="112.123952"/>
     <use style="fill:#0078dd;stroke:#0078dd;" x="216.67419" xlink:href="#me500e6e4fa" y="154.836993"/>
     <use style="fill:#0078dd;stroke:#0078dd;" x="205.109352" xlink:href="#me500e6e4fa" y="92.146312"/>
     <use style="fill:#0078dd;stroke:#0078dd;" x="172.818045" xlink:href="#me500e6e4fa" y="138.701466"/>
     <use style="fill:#0078dd;stroke:#0078dd;" x="221.311498" xlink:href="#me500e6e4fa" y="151.984373"/>
     <use style="fill:#0078dd;stroke:#0078dd;" x="215.21273" xlink:href="#me500e6e4fa" y="147.702719"/>
     <use style="fill:#0078dd;stroke:#0078dd;" x="216.373815" xlink:href="#me500e6e4fa" y="138.321698"/>
     <use style="fill:#0078dd;stroke:#0078dd;" x="170.06277" xlink:href="#me500e6e4fa" y="126.148771"/>
     <use style="fill:#0078dd;stroke:#0078dd;" x="201.136257" xlink:href="#me500e6e4fa" y="156.194135"/>
     <use style="fill:#0078dd;stroke:#0078dd;" x="210.533362" xlink:href="#me500e6e4fa" y="134.429278"/>
     <use style="fill:#0078dd;stroke:#0078dd;" x="233.411958" xlink:href="#me500e6e4fa" y="124.497907"/>
     <use style="fill:#0078dd;stroke:#0078dd;" x="201.819083" xlink:href="#me500e6e4fa" y="95.948911"/>
     <use style="fill:#0078dd;stroke:#0078dd;" x="220.319442" xlink:href="#me500e6e4fa" y="138.419135"/>
     <use style="fill:#0078dd;stroke:#0078dd;" x="184.440873" xlink:href="#me500e6e4fa" y="134.022542"/>
     <use style="fill:#0078dd;stroke:#0078dd;" x="197.714058" xlink:href="#me500e6e4fa" y="109.170282"/>
     <use style="fill:#0078dd;stroke:#0078dd;" x="172.758639" xlink:href="#me500e6e4fa" y="161.008444"/>
    </g>
   </g>
   <g id="PathCollection_3">
    <defs>
     <path d="M 0 1.5 
C 0.397805 1.5 0.77937 1.341951 1.06066 1.06066 
C 1.341951 0.77937 1.5 0.397805 1.5 0 
C 1.5 -0.397805 1.341951 -0.77937 1.06066 -1.06066 
C 0.77937 -1.341951 0.397805 -1.5 0 -1.5 
C -0.397805 -1.5 -0.77937 -1.341951 -1.06066 -1.06066 
C -1.341951 -0.77937 -1.5 -0.397805 -1.5 0 
C -1.5 0.397805 -1.341951 0.77937 -1.06066 1.06066 
C -0.77937 1.341951 -0.397805 1.5 0 1.5 
z
" id="m43b95d3621" style="stroke:#00bc00;"/>
    </defs>
    <g clip-path="url(#p78f1b0fbc8)">
     <use style="fill:#00bc00;stroke:#00bc00;" x="207.820761" xlink:href="#m43b95d3621" y="92.956482"/>
     <use style="fill:#00bc00;stroke:#00bc00;" x="192.97101" xlink:href="#m43b95d3621" y="119.737466"/>
     <use style="fill:#00bc00;stroke:#00bc00;" x="163.195157" xlink:href="#m43b95d3621" y="129.720408"/>
     <use style="fill:#00bc00;stroke:#00bc00;" x="214.816816" xlink:href="#m43b95d3621" y="80.820288"/>
     <use style="fill:#00bc00;stroke:#00bc00;" x="189.361974" xlink:href="#m43b95d3621" y="120.950811"/>
     <use style="fill:#00bc00;stroke:#00bc00;" x="225.516608" xlink:href="#m43b95d3621" y="109.803985"/>
     <use style="fill:#00bc00;stroke:#00bc00;" x="216.083582" xlink:href="#m43b95d3621" y="124.020494"/>
     <use style="fill:#00bc00;stroke:#00bc00;" x="222.832856" xlink:href="#m43b95d3621" y="115.608421"/>
     <use style="fill:#00bc00;stroke:#00bc00;" x="224.422351" xlink:href="#m43b95d3621" y="115.92"/>
     <use style="fill:#00bc00;stroke:#00bc00;" x="220.798136" xlink:href="#m43b95d3621" y="78.835745"/>
     <use style="fill:#00bc00;stroke:#00bc00;" x="257.909742" xlink:href="#m43b95d3621" y="100.996836"/>
     <use style="fill:#00bc00;stroke:#00bc00;" x="217.125923" xlink:href="#m43b95d3621" y="136.481215"/>
     <use style="fill:#00bc00;stroke:#00bc00;" x="208.163744" xlink:href="#m43b95d3621" y="65.029792"/>
     <use style="fill:#00bc00;stroke:#00bc00;" x="170.542184" xlink:href="#m43b95d3621" y="143.390132"/>
     <use style="fill:#00bc00;stroke:#00bc00;" x="260.733184" xlink:href="#m43b95d3621" y="157.495349"/>
     <use style="fill:#00bc00;stroke:#00bc00;" x="176.99916" xlink:href="#m43b95d3621" y="85.369532"/>
     <use style="fill:#00bc00;stroke:#00bc00;" x="238.863403" xlink:href="#m43b95d3621" y="105.518744"/>
     <use style="fill:#00bc00;stroke:#00bc00;" x="191.089049" xlink:href="#m43b95d3621" y="132.433943"/>
     <use style="fill:#00bc00;stroke:#00bc00;" x="179.990313" xlink:href="#m43b95d3621" y="74.823127"/>
     <use style="fill:#00bc00;stroke:#00bc00;" x="195.378384" xlink:href="#m43b95d3621" y="53.657037"/>
     <use style="fill:#00bc00;stroke:#00bc00;" x="237.147121" xlink:href="#m43b95d3621" y="132.490065"/>
     <use style="fill:#00bc00;stroke:#00bc00;" x="222.939354" xlink:href="#m43b95d3621" y="93.573495"/>
     <use style="fill:#00bc00;stroke:#00bc00;" x="217.99793" xlink:href="#m43b95d3621" y="84.89479"/>
     <use style="fill:#00bc00;stroke:#00bc00;" x="244.874112" xlink:href="#m43b95d3621" y="89.896675"/>
     <use style="fill:#00bc00;stroke:#00bc00;" x="216.619196" xlink:href="#m43b95d3621" y="88.943393"/>
     <use style="fill:#00bc00;stroke:#00bc00;" x="218.989125" xlink:href="#m43b95d3621" y="83.051328"/>
     <use style="fill:#00bc00;stroke:#00bc00;" x="209.455201" xlink:href="#m43b95d3621" y="110.192138"/>
     <use style="fill:#00bc00;stroke:#00bc00;" x="198.899691" xlink:href="#m43b95d3621" y="121.426209"/>
     <use style="fill:#00bc00;stroke:#00bc00;" x="226.620465" xlink:href="#m43b95d3621" y="101.300644"/>
     <use style="fill:#00bc00;stroke:#00bc00;" x="196.960377" xlink:href="#m43b95d3621" y="111.345338"/>
     <use style="fill:#00bc00;stroke:#00bc00;" x="233.728635" xlink:href="#m43b95d3621" y="49.385458"/>
     <use style="fill:#00bc00;stroke:#00bc00;" x="175.747336" xlink:href="#m43b95d3621" y="80.796766"/>
     <use style="fill:#00bc00;stroke:#00bc00;" x="214.392512" xlink:href="#m43b95d3621" y="126.869484"/>
     <use style="fill:#00bc00;stroke:#00bc00;" x="204.838998" xlink:href="#m43b95d3621" y="91.179398"/>
     <use style="fill:#00bc00;stroke:#00bc00;" x="229.296426" xlink:href="#m43b95d3621" y="107.91907"/>
     <use style="fill:#00bc00;stroke:#00bc00;" x="231.856167" xlink:href="#m43b95d3621" y="111.251627"/>
     <use style="fill:#00bc00;stroke:#00bc00;" x="173.118967" xlink:href="#m43b95d3621" y="125.424402"/>
     <use style="fill:#00bc00;stroke:#00bc00;" x="197.038379" xlink:href="#m43b95d3621" y="110.267402"/>
     <use style="fill:#00bc00;stroke:#00bc00;" x="167.593116" xlink:href="#m43b95d3621" y="114.244087"/>
     <use style="fill:#00bc00;stroke:#00bc00;" x="211.933711" xlink:href="#m43b95d3621" y="114.368414"/>
     <use style="fill:#00bc00;stroke:#00bc00;" x="226.165693" xlink:href="#m43b95d3621" y="110.565228"/>
    </g>
   </g>
   <g id="PathCollection_4">
    <defs>
     <path d="M 0 1.5 
C 0.397805 1.5 0.77937 1.341951 1.06066 1.06066 
C 1.341951 0.77937 1.5 0.397805 1.5 0 
C 1.5 -0.397805 1.341951 -0.77937 1.06066 -1.06066 
C 0.77937 -1.341951 0.397805 -1.5 0 -1.5 
C -0.397805 -1.5 -0.77937 -1.341951 -1.06066 -1.06066 
C -1.341951 -0.77937 -1.5 -0.397805 -1.5 0 
C -1.5 0.397805 -1.341951 0.77937 -1.06066 1.06066 
C -0.77937 1.341951 -0.397805 1.5 0 1.5 
z
" id="mf54c9b2c85" style="stroke:#ffc900;"/>
    </defs>
    <g clip-path="url(#p78f1b0fbc8)">
     <use style="fill:#ffc900;stroke:#ffc900;" x="208.331337" xlink:href="#mf54c9b2c85" y="123.947963"/>
     <use style="fill:#ffc900;stroke:#ffc900;" x="192.7287" xlink:href="#mf54c9b2c85" y="123.690025"/>
     <use style="fill:#ffc900;stroke:#ffc900;" x="234.263946" xlink:href="#mf54c9b2c85" y="149.024431"/>
     <use style="fill:#ffc900;stroke:#ffc900;" x="211.790531" xlink:href="#mf54c9b2c85" y="122.944626"/>
     <use style="fill:#ffc900;stroke:#ffc900;" x="212.110431" xlink:href="#mf54c9b2c85" y="134.120259"/>
     <use style="fill:#ffc900;stroke:#ffc900;" x="223.949415" xlink:href="#mf54c9b2c85" y="136.69254"/>
     <use style="fill:#ffc900;stroke:#ffc900;" x="207.202249" xlink:href="#mf54c9b2c85" y="131.564191"/>
     <use style="fill:#ffc900;stroke:#ffc900;" x="211.757842" xlink:href="#mf54c9b2c85" y="131.483971"/>
     <use style="fill:#ffc900;stroke:#ffc900;" x="216.220444" xlink:href="#mf54c9b2c85" y="128.554881"/>
     <use style="fill:#ffc900;stroke:#ffc900;" x="219.687108" xlink:href="#mf54c9b2c85" y="119.296092"/>
     <use style="fill:#ffc900;stroke:#ffc900;" x="225.281031" xlink:href="#mf54c9b2c85" y="129.912912"/>
     <use style="fill:#ffc900;stroke:#ffc900;" x="211.089594" xlink:href="#mf54c9b2c85" y="144.468588"/>
     <use style="fill:#ffc900;stroke:#ffc900;" x="211.384551" xlink:href="#mf54c9b2c85" y="127.044297"/>
     <use style="fill:#ffc900;stroke:#ffc900;" x="209.635157" xlink:href="#mf54c9b2c85" y="142.187136"/>
     <use style="fill:#ffc900;stroke:#ffc900;" x="223.006337" xlink:href="#mf54c9b2c85" y="144.335653"/>
     <use style="fill:#ffc900;stroke:#ffc900;" x="213.323258" xlink:href="#mf54c9b2c85" y="147.769465"/>
     <use style="fill:#ffc900;stroke:#ffc900;" x="220.953833" xlink:href="#mf54c9b2c85" y="137.734079"/>
     <use style="fill:#ffc900;stroke:#ffc900;" x="205.991309" xlink:href="#mf54c9b2c85" y="132.521091"/>
     <use style="fill:#ffc900;stroke:#ffc900;" x="232.586112" xlink:href="#mf54c9b2c85" y="138.28363"/>
     <use style="fill:#ffc900;stroke:#ffc900;" x="172.261491" xlink:href="#mf54c9b2c85" y="150.908767"/>
     <use style="fill:#ffc900;stroke:#ffc900;" x="190.14892" xlink:href="#mf54c9b2c85" y="129.411148"/>
     <use style="fill:#ffc900;stroke:#ffc900;" x="212.708022" xlink:href="#mf54c9b2c85" y="114.648971"/>
     <use style="fill:#ffc900;stroke:#ffc900;" x="209.369278" xlink:href="#mf54c9b2c85" y="131.672269"/>
     <use style="fill:#ffc900;stroke:#ffc900;" x="232.493023" xlink:href="#mf54c9b2c85" y="125.229737"/>
     <use style="fill:#ffc900;stroke:#ffc900;" x="219.539107" xlink:href="#mf54c9b2c85" y="151.821039"/>
     <use style="fill:#ffc900;stroke:#ffc900;" x="207.586791" xlink:href="#mf54c9b2c85" y="75.744884"/>
     <use style="fill:#ffc900;stroke:#ffc900;" x="225.974922" xlink:href="#mf54c9b2c85" y="137.437439"/>
     <use style="fill:#ffc900;stroke:#ffc900;" x="223.977405" xlink:href="#mf54c9b2c85" y="128.558223"/>
     <use style="fill:#ffc900;stroke:#ffc900;" x="213.734981" xlink:href="#mf54c9b2c85" y="131.770017"/>
     <use style="fill:#ffc900;stroke:#ffc900;" x="225.511323" xlink:href="#mf54c9b2c85" y="131.839793"/>
     <use style="fill:#ffc900;stroke:#ffc900;" x="245.927835" xlink:href="#mf54c9b2c85" y="125.773018"/>
     <use style="fill:#ffc900;stroke:#ffc900;" x="225.955439" xlink:href="#mf54c9b2c85" y="123.483999"/>
     <use style="fill:#ffc900;stroke:#ffc900;" x="211.167381" xlink:href="#mf54c9b2c85" y="126.252485"/>
     <use style="fill:#ffc900;stroke:#ffc900;" x="205.882812" xlink:href="#mf54c9b2c85" y="115.92"/>
     <use style="fill:#ffc900;stroke:#ffc900;" x="215.080389" xlink:href="#mf54c9b2c85" y="129.466477"/>
     <use style="fill:#ffc900;stroke:#ffc900;" x="218.682378" xlink:href="#mf54c9b2c85" y="128.238347"/>
     <use style="fill:#ffc900;stroke:#ffc900;" x="209.059874" xlink:href="#mf54c9b2c85" y="147.205131"/>
     <use style="fill:#ffc900;stroke:#ffc900;" x="204.51426" xlink:href="#mf54c9b2c85" y="134.307595"/>
     <use style="fill:#ffc900;stroke:#ffc900;" x="211.914589" xlink:href="#mf54c9b2c85" y="132.591307"/>
     <use style="fill:#ffc900;stroke:#ffc900;" x="214.051167" xlink:href="#mf54c9b2c85" y="135.342165"/>
     <use style="fill:#ffc900;stroke:#ffc900;" x="218.122257" xlink:href="#mf54c9b2c85" y="133.517405"/>
    </g>
   </g>
   <g id="patch_3">
    <path clip-path="url(#p78f1b0fbc8)" d="M 205.882812 212.345721 
C 231.455213 212.345721 255.983676 202.185698 274.066093 184.103281 
C 292.148511 166.020863 302.308533 141.4924 302.308533 115.92 
C 302.308533 90.3476 292.148511 65.819137 274.066093 47.736719 
C 255.983676 29.654302 231.455213 19.494279 205.882812 19.494279 
C 180.310412 19.494279 155.781949 29.654302 137.699532 47.736719 
C 119.617114 65.819137 109.457092 90.3476 109.457092 115.92 
C 109.457092 141.4924 119.617114 166.020863 137.699532 184.103281 
C 155.781949 202.185698 180.310412 212.345721 205.882812 212.345721 
z
" style="fill:none;"/>
   </g>
   <g id="patch_4">
    <path clip-path="url(#p78f1b0fbc8)" d="M 302.308533 118.330643 
C 302.947843 118.330643 303.561055 118.076642 304.013115 117.624582 
C 304.465176 117.172522 304.719176 116.55931 304.719176 115.92 
C 304.719176 115.28069 304.465176 114.667478 304.013115 114.215418 
C 303.561055 113.763358 302.947843 113.509357 302.308533 113.509357 
C 301.669223 113.509357 301.056012 113.763358 300.603951 114.215418 
C 300.151891 114.667478 299.89789 115.28069 299.89789 115.92 
C 299.89789 116.55931 300.151891 117.172522 300.603951 117.624582 
C 301.056012 118.076642 301.669223 118.330643 302.308533 118.330643 
z
" style="fill:#808080;"/>
   </g>
   <g id="patch_5">
    <path clip-path="url(#p78f1b0fbc8)" d="M 205.882812 21.904922 
C 206.522123 21.904922 207.135334 21.650922 207.587395 21.198861 
C 208.039455 20.746801 208.293456 20.133589 208.293456 19.494279 
C 208.293456 18.854969 208.039455 18.241758 207.587395 17.789697 
C 207.135334 17.337637 206.522123 17.083636 205.882812 17.083636 
C 205.243502 17.083636 204.630291 17.337637 204.17823 17.789697 
C 203.72617 18.241758 203.472169 18.854969 203.472169 19.494279 
C 203.472169 20.133589 203.72617 20.746801 204.17823 21.198861 
C 204.630291 21.650922 205.243502 21.904922 205.882812 21.904922 
z
" style="fill:#808080;"/>
   </g>
   <g id="patch_6">
    <path clip-path="url(#p78f1b0fbc8)" d="M 109.457092 118.330643 
C 110.096402 118.330643 110.709613 118.076642 111.161674 117.624582 
C 111.613734 117.172522 111.867735 116.55931 111.867735 115.92 
C 111.867735 115.28069 111.613734 114.667478 111.161674 114.215418 
C 110.709613 113.763358 110.096402 113.509357 109.457092 113.509357 
C 108.817782 113.509357 108.20457 113.763358 107.75251 114.215418 
C 107.300449 114.667478 107.046449 115.28069 107.046449 115.92 
C 107.046449 116.55931 107.300449 117.172522 107.75251 117.624582 
C 108.20457 118.076642 108.817782 118.330643 109.457092 118.330643 
z
" style="fill:#808080;"/>
   </g>
   <g id="patch_7">
    <path clip-path="url(#p78f1b0fbc8)" d="M 205.882812 214.756364 
C 206.522123 214.756364 207.135334 214.502363 207.587395 214.050303 
C 208.039455 213.598242 208.293456 212.985031 208.293456 212.345721 
C 208.293456 211.706411 208.039455 211.093199 207.587395 210.641139 
C 207.135334 210.189078 206.522123 209.935078 205.882812 209.935078 
C 205.243502 209.935078 204.630291 210.189078 204.17823 210.641139 
C 203.72617 211.093199 203.472169 211.706411 203.472169 212.345721 
C 203.472169 212.985031 203.72617 213.598242 204.17823 214.050303 
C 204.630291 214.502363 205.243502 214.756364 205.882812 214.756364 
z
" style="fill:#808080;"/>
   </g>
   <g id="patch_8">
    <path clip-path="url(#p78f1b0fbc8)" d="M 205.882812 212.345721 
C 231.455213 212.345721 255.983676 202.185698 274.066093 184.103281 
C 292.148511 166.020863 302.308533 141.4924 302.308533 115.92 
C 302.308533 90.3476 292.148511 65.819137 274.066093 47.736719 
C 255.983676 29.654302 231.455213 19.494279 205.882812 19.494279 
C 180.310412 19.494279 155.781949 29.654302 137.699532 47.736719 
C 119.617114 65.819137 109.457092 90.3476 109.457092 115.92 
C 109.457092 141.4924 119.617114 166.020863 137.699532 184.103281 
C 155.781949 202.185698 180.310412 212.345721 205.882812 212.345721 
z
" style="fill:none;"/>
   </g>
   <g id="patch_9">
    <path clip-path="url(#p78f1b0fbc8)" d="M 302.308533 118.330643 
C 302.947843 118.330643 303.561055 118.076642 304.013115 117.624582 
C 304.465176 117.172522 304.719176 116.55931 304.719176 115.92 
C 304.719176 115.28069 304.465176 114.667478 304.013115 114.215418 
C 303.561055 113.763358 302.947843 113.509357 302.308533 113.509357 
C 301.669223 113.509357 301.056012 113.763358 300.603951 114.215418 
C 300.151891 114.667478 299.89789 115.28069 299.89789 115.92 
C 299.89789 116.55931 300.151891 117.172522 300.603951 117.624582 
C 301.056012 118.076642 301.669223 118.330643 302.308533 118.330643 
z
" style="fill:#808080;"/>
   </g>
   <g id="patch_10">
    <path clip-path="url(#p78f1b0fbc8)" d="M 205.882812 21.904922 
C 206.522123 21.904922 207.135334 21.650922 207.587395 21.198861 
C 208.039455 20.746801 208.293456 20.133589 208.293456 19.494279 
C 208.293456 18.854969 208.039455 18.241758 207.587395 17.789697 
C 207.135334 17.337637 206.522123 17.083636 205.882812 17.083636 
C 205.243502 17.083636 204.630291 17.337637 204.17823 17.789697 
C 203.72617 18.241758 203.472169 18.854969 203.472169 19.494279 
C 203.472169 20.133589 203.72617 20.746801 204.17823 21.198861 
C 204.630291 21.650922 205.243502 21.904922 205.882812 21.904922 
z
" style="fill:#808080;"/>
   </g>
   <g id="patch_11">
    <path clip-path="url(#p78f1b0fbc8)" d="M 109.457092 118.330643 
C 110.096402 118.330643 110.709613 118.076642 111.161674 117.624582 
C 111.613734 117.172522 111.867735 116.55931 111.867735 115.92 
C 111.867735 115.28069 111.613734 114.667478 111.161674 114.215418 
C 110.709613 113.763358 110.096402 113.509357 109.457092 113.509357 
C 108.817782 113.509357 108.20457 113.763358 107.75251 114.215418 
C 107.300449 114.667478 107.046449 115.28069 107.046449 115.92 
C 107.046449 116.55931 107.300449 117.172522 107.75251 117.624582 
C 108.20457 118.076642 108.817782 118.330643 109.457092 118.330643 
z
" style="fill:#808080;"/>
   </g>
   <g id="patch_12">
    <path clip-path="url(#p78f1b0fbc8)" d="M 205.882812 214.756364 
C 206.522123 214.756364 207.135334 214.502363 207.587395 214.050303 
C 208.039455 213.598242 208.293456 212.985031 208.293456 212.345721 
C 208.293456 211.706411 208.039455 211.093199 207.587395 210.641139 
C 207.135334 210.189078 206.522123 209.935078 205.882812 209.935078 
C 205.243502 209.935078 204.630291 210.189078 204.17823 210.641139 
C 203.72617 211.093199 203.472169 211.706411 203.472169 212.345721 
C 203.472169 212.985031 203.72617 213.598242 204.17823 214.050303 
C 204.630291 214.502363 205.243502 214.756364 205.882812 214.756364 
z
" style="fill:#808080;"/>
   </g>
   <g id="patch_13">
    <path clip-path="url(#p78f1b0fbc8)" d="M 205.882812 212.345721 
C 231.455213 212.345721 255.983676 202.185698 274.066093 184.103281 
C 292.148511 166.020863 302.308533 141.4924 302.308533 115.92 
C 302.308533 90.3476 292.148511 65.819137 274.066093 47.736719 
C 255.983676 29.654302 231.455213 19.494279 205.882812 19.494279 
C 180.310412 19.494279 155.781949 29.654302 137.699532 47.736719 
C 119.617114 65.819137 109.457092 90.3476 109.457092 115.92 
C 109.457092 141.4924 119.617114 166.020863 137.699532 184.103281 
C 155.781949 202.185698 180.310412 212.345721 205.882812 212.345721 
z
" style="fill:none;"/>
   </g>
   <g id="patch_14">
    <path clip-path="url(#p78f1b0fbc8)" d="M 302.308533 118.330643 
C 302.947843 118.330643 303.561055 118.076642 304.013115 117.624582 
C 304.465176 117.172522 304.719176 116.55931 304.719176 115.92 
C 304.719176 115.28069 304.465176 114.667478 304.013115 114.215418 
C 303.561055 113.763358 302.947843 113.509357 302.308533 113.509357 
C 301.669223 113.509357 301.056012 113.763358 300.603951 114.215418 
C 300.151891 114.667478 299.89789 115.28069 299.89789 115.92 
C 299.89789 116.55931 300.151891 117.172522 300.603951 117.624582 
C 301.056012 118.076642 301.669223 118.330643 302.308533 118.330643 
z
" style="fill:#808080;"/>
   </g>
   <g id="patch_15">
    <path clip-path="url(#p78f1b0fbc8)" d="M 205.882812 21.904922 
C 206.522123 21.904922 207.135334 21.650922 207.587395 21.198861 
C 208.039455 20.746801 208.293456 20.133589 208.293456 19.494279 
C 208.293456 18.854969 208.039455 18.241758 207.587395 17.789697 
C 207.135334 17.337637 206.522123 17.083636 205.882812 17.083636 
C 205.243502 17.083636 204.630291 17.337637 204.17823 17.789697 
C 203.72617 18.241758 203.472169 18.854969 203.472169 19.494279 
C 203.472169 20.133589 203.72617 20.746801 204.17823 21.198861 
C 204.630291 21.650922 205.243502 21.904922 205.882812 21.904922 
z
" style="fill:#808080;"/>
   </g>
   <g id="patch_16">
    <path clip-path="url(#p78f1b0fbc8)" d="M 109.457092 118.330643 
C 110.096402 118.330643 110.709613 118.076642 111.161674 117.624582 
C 111.613734 117.172522 111.867735 116.55931 111.867735 115.92 
C 111.867735 115.28069 111.613734 114.667478 111.161674 114.215418 
C 110.709613 113.763358 110.096402 113.509357 109.457092 113.509357 
C 108.817782 113.509357 108.20457 113.763358 107.75251 114.215418 
C 107.300449 114.667478 107.046449 115.28069 107.046449 115.92 
C 107.046449 116.55931 107.300449 117.172522 107.75251 117.624582 
C 108.20457 118.076642 108.817782 118.330643 109.457092 118.330643 
z
" style="fill:#808080;"/>
   </g>
   <g id="patch_17">
    <path clip-path="url(#p78f1b0fbc8)" d="M 205.882812 214.756364 
C 206.522123 214.756364 207.135334 214.502363 207.587395 214.050303 
C 208.039455 213.598242 208.293456 212.985031 208.293456 212.345721 
C 208.293456 211.706411 208.039455 211.093199 207.587395 210.641139 
C 207.135334 210.189078 206.522123 209.935078 205.882812 209.935078 
C 205.243502 209.935078 204.630291 210.189078 204.17823 210.641139 
C 203.72617 211.093199 203.472169 211.706411 203.472169 212.345721 
C 203.472169 212.985031 203.72617 213.598242 204.17823 214.050303 
C 204.630291 214.502363 205.243502 214.756364 205.882812 214.756364 
z
" style="fill:#808080;"/>
   </g>
   <g id="patch_18">
    <path clip-path="url(#p78f1b0fbc8)" d="M 205.882812 212.345721 
C 231.455213 212.345721 255.983676 202.185698 274.066093 184.103281 
C 292.148511 166.020863 302.308533 141.4924 302.308533 115.92 
C 302.308533 90.3476 292.148511 65.819137 274.066093 47.736719 
C 255.983676 29.654302 231.455213 19.494279 205.882812 19.494279 
C 180.310412 19.494279 155.781949 29.654302 137.699532 47.736719 
C 119.617114 65.819137 109.457092 90.3476 109.457092 115.92 
C 109.457092 141.4924 119.617114 166.020863 137.699532 184.103281 
C 155.781949 202.185698 180.310412 212.345721 205.882812 212.345721 
z
" style="fill:none;"/>
   </g>
   <g id="patch_19">
    <path clip-path="url(#p78f1b0fbc8)" d="M 302.308533 118.330643 
C 302.947843 118.330643 303.561055 118.076642 304.013115 117.624582 
C 304.465176 117.172522 304.719176 116.55931 304.719176 115.92 
C 304.719176 115.28069 304.465176 114.667478 304.013115 114.215418 
C 303.561055 113.763358 302.947843 113.509357 302.308533 113.509357 
C 301.669223 113.509357 301.056012 113.763358 300.603951 114.215418 
C 300.151891 114.667478 299.89789 115.28069 299.89789 115.92 
C 299.89789 116.55931 300.151891 117.172522 300.603951 117.624582 
C 301.056012 118.076642 301.669223 118.330643 302.308533 118.330643 
z
" style="fill:#808080;"/>
   </g>
   <g id="patch_20">
    <path clip-path="url(#p78f1b0fbc8)" d="M 205.882812 21.904922 
C 206.522123 21.904922 207.135334 21.650922 207.587395 21.198861 
C 208.039455 20.746801 208.293456 20.133589 208.293456 19.494279 
C 208.293456 18.854969 208.039455 18.241758 207.587395 17.789697 
C 207.135334 17.337637 206.522123 17.083636 205.882812 17.083636 
C 205.243502 17.083636 204.630291 17.337637 204.17823 17.789697 
C 203.72617 18.241758 203.472169 18.854969 203.472169 19.494279 
C 203.472169 20.133589 203.72617 20.746801 204.17823 21.198861 
C 204.630291 21.650922 205.243502 21.904922 205.882812 21.904922 
z
" style="fill:#808080;"/>
   </g>
   <g id="patch_21">
    <path clip-path="url(#p78f1b0fbc8)" d="M 109.457092 118.330643 
C 110.096402 118.330643 110.709613 118.076642 111.161674 117.624582 
C 111.613734 117.172522 111.867735 116.55931 111.867735 115.92 
C 111.867735 115.28069 111.613734 114.667478 111.161674 114.215418 
C 110.709613 113.763358 110.096402 113.509357 109.457092 113.509357 
C 108.817782 113.509357 108.20457 113.763358 107.75251 114.215418 
C 107.300449 114.667478 107.046449 115.28069 107.046449 115.92 
C 107.046449 116.55931 107.300449 117.172522 107.75251 117.624582 
C 108.20457 118.076642 108.817782 118.330643 109.457092 118.330643 
z
" style="fill:#808080;"/>
   </g>
   <g id="patch_22">
    <path clip-path="url(#p78f1b0fbc8)" d="M 205.882812 214.756364 
C 206.522123 214.756364 207.135334 214.502363 207.587395 214.050303 
C 208.039455 213.598242 208.293456 212.985031 208.293456 212.345721 
C 208.293456 211.706411 208.039455 211.093199 207.587395 210.641139 
C 207.135334 210.189078 206.522123 209.935078 205.882812 209.935078 
C 205.243502 209.935078 204.630291 210.189078 204.17823 210.641139 
C 203.72617 211.093199 203.472169 211.706411 203.472169 212.345721 
C 203.472169 212.985031 203.72617 213.598242 204.17823 214.050303 
C 204.630291 214.502363 205.243502 214.756364 205.882812 214.756364 
z
" style="fill:#808080;"/>
   </g>
   <g id="matplotlib.axis_1">
    <g id="xtick_1">
     <g id="line2d_1">
      <defs>
       <path d="M 0 0 
L 0 3.5 
" id="m3625a63a86" style="stroke:#000000;stroke-width:0.8;"/>
      </defs>
      <g>
       <use style="stroke:#000000;stroke-width:0.8;" x="61.244232" xlink:href="#m3625a63a86" y="224.64"/>
      </g>
     </g>
     <g id="text_1">
      <!-- −1.5 -->
      <g transform="translate(49.102825 239.238437)scale(0.1 -0.1)">
       <defs>
        <path d="M 678 2272 
L 4684 2272 
L 4684 1741 
L 678 1741 
L 678 2272 
z
" id="DejaVuSans-2212" transform="scale(0.015625)"/>
        <path d="M 794 531 
L 1825 531 
L 1825 4091 
L 703 3866 
L 703 4441 
L 1819 4666 
L 2450 4666 
L 2450 531 
L 3481 531 
L 3481 0 
L 794 0 
L 794 531 
z
" id="DejaVuSans-31" transform="scale(0.015625)"/>
        <path d="M 684 794 
L 1344 794 
L 1344 0 
L 684 0 
L 684 794 
z
" id="DejaVuSans-2e" transform="scale(0.015625)"/>
        <path d="M 691 4666 
L 3169 4666 
L 3169 4134 
L 1269 4134 
L 1269 2991 
Q 1406 3038 1543 3061 
Q 1681 3084 1819 3084 
Q 2600 3084 3056 2656 
Q 3513 2228 3513 1497 
Q 3513 744 3044 326 
Q 2575 -91 1722 -91 
Q 1428 -91 1123 -41 
Q 819 9 494 109 
L 494 744 
Q 775 591 1075 516 
Q 1375 441 1709 441 
Q 2250 441 2565 725 
Q 2881 1009 2881 1497 
Q 2881 1984 2565 2268 
Q 2250 2553 1709 2553 
Q 1456 2553 1204 2497 
Q 953 2441 691 2322 
L 691 4666 
z
" id="DejaVuSans-35" transform="scale(0.015625)"/>
       </defs>
       <use xlink:href="#DejaVuSans-2212"/>
       <use x="83.789062" xlink:href="#DejaVuSans-31"/>
       <use x="147.412109" xlink:href="#DejaVuSans-2e"/>
       <use x="179.199219" xlink:href="#DejaVuSans-35"/>
      </g>
     </g>
    </g>
    <g id="xtick_2">
     <g id="line2d_2">
      <g>
       <use style="stroke:#000000;stroke-width:0.8;" x="109.457092" xlink:href="#m3625a63a86" y="224.64"/>
      </g>
     </g>
     <g id="text_2">
      <!-- −1.0 -->
      <g transform="translate(97.315686 239.238437)scale(0.1 -0.1)">
       <defs>
        <path d="M 2034 4250 
Q 1547 4250 1301 3770 
Q 1056 3291 1056 2328 
Q 1056 1369 1301 889 
Q 1547 409 2034 409 
Q 2525 409 2770 889 
Q 3016 1369 3016 2328 
Q 3016 3291 2770 3770 
Q 2525 4250 2034 4250 
z
M 2034 4750 
Q 2819 4750 3233 4129 
Q 3647 3509 3647 2328 
Q 3647 1150 3233 529 
Q 2819 -91 2034 -91 
Q 1250 -91 836 529 
Q 422 1150 422 2328 
Q 422 3509 836 4129 
Q 1250 4750 2034 4750 
z
" id="DejaVuSans-30" transform="scale(0.015625)"/>
       </defs>
       <use xlink:href="#DejaVuSans-2212"/>
       <use x="83.789062" xlink:href="#DejaVuSans-31"/>
       <use x="147.412109" xlink:href="#DejaVuSans-2e"/>
       <use x="179.199219" xlink:href="#DejaVuSans-30"/>
      </g>
     </g>
    </g>
    <g id="xtick_3">
     <g id="line2d_3">
      <g>
       <use style="stroke:#000000;stroke-width:0.8;" x="157.669952" xlink:href="#m3625a63a86" y="224.64"/>
      </g>
     </g>
     <g id="text_3">
      <!-- −0.5 -->
      <g transform="translate(145.528546 239.238437)scale(0.1 -0.1)">
       <use xlink:href="#DejaVuSans-2212"/>
       <use x="83.789062" xlink:href="#DejaVuSans-30"/>
       <use x="147.412109" xlink:href="#DejaVuSans-2e"/>
       <use x="179.199219" xlink:href="#DejaVuSans-35"/>
      </g>
     </g>
    </g>
    <g id="xtick_4">
     <g id="line2d_4">
      <g>
       <use style="stroke:#000000;stroke-width:0.8;" x="205.882812" xlink:href="#m3625a63a86" y="224.64"/>
      </g>
     </g>
     <g id="text_4">
      <!-- 0.0 -->
      <g transform="translate(197.93125 239.238437)scale(0.1 -0.1)">
       <use xlink:href="#DejaVuSans-30"/>
       <use x="63.623047" xlink:href="#DejaVuSans-2e"/>
       <use x="95.410156" xlink:href="#DejaVuSans-30"/>
      </g>
     </g>
    </g>
    <g id="xtick_5">
     <g id="line2d_5">
      <g>
       <use style="stroke:#000000;stroke-width:0.8;" x="254.095673" xlink:href="#m3625a63a86" y="224.64"/>
      </g>
     </g>
     <g id="text_5">
      <!-- 0.5 -->
      <g transform="translate(246.14411 239.238437)scale(0.1 -0.1)">
       <use xlink:href="#DejaVuSans-30"/>
       <use x="63.623047" xlink:href="#DejaVuSans-2e"/>
       <use x="95.410156" xlink:href="#DejaVuSans-35"/>
      </g>
     </g>
    </g>
    <g id="xtick_6">
     <g id="line2d_6">
      <g>
       <use style="stroke:#000000;stroke-width:0.8;" x="302.308533" xlink:href="#m3625a63a86" y="224.64"/>
      </g>
     </g>
     <g id="text_6">
      <!-- 1.0 -->
      <g transform="translate(294.356971 239.238437)scale(0.1 -0.1)">
       <use xlink:href="#DejaVuSans-31"/>
       <use x="63.623047" xlink:href="#DejaVuSans-2e"/>
       <use x="95.410156" xlink:href="#DejaVuSans-30"/>
      </g>
     </g>
    </g>
    <g id="xtick_7">
     <g id="line2d_7">
      <g>
       <use style="stroke:#000000;stroke-width:0.8;" x="350.521393" xlink:href="#m3625a63a86" y="224.64"/>
      </g>
     </g>
     <g id="text_7">
      <!-- 1.5 -->
      <g transform="translate(342.569831 239.238437)scale(0.1 -0.1)">
       <use xlink:href="#DejaVuSans-31"/>
       <use x="63.623047" xlink:href="#DejaVuSans-2e"/>
       <use x="95.410156" xlink:href="#DejaVuSans-35"/>
      </g>
     </g>
    </g>
   </g>
   <g id="matplotlib.axis_2">
    <g id="ytick_1">
     <g id="line2d_8">
      <defs>
       <path d="M 0 0 
L -3.5 0 
" id="m9a7dded4a0" style="stroke:#000000;stroke-width:0.8;"/>
      </defs>
      <g>
       <use style="stroke:#000000;stroke-width:0.8;" x="38.482813" xlink:href="#m9a7dded4a0" y="212.345721"/>
      </g>
     </g>
     <g id="text_8">
      <!-- −1.0 -->
      <g transform="translate(7.2 216.144939)scale(0.1 -0.1)">
       <use xlink:href="#DejaVuSans-2212"/>
       <use x="83.789062" xlink:href="#DejaVuSans-31"/>
       <use x="147.412109" xlink:href="#DejaVuSans-2e"/>
       <use x="179.199219" xlink:href="#DejaVuSans-30"/>
      </g>
     </g>
    </g>
    <g id="ytick_2">
     <g id="line2d_9">
      <g>
       <use style="stroke:#000000;stroke-width:0.8;" x="38.482813" xlink:href="#m9a7dded4a0" y="164.13286"/>
      </g>
     </g>
     <g id="text_9">
      <!-- −0.5 -->
      <g transform="translate(7.2 167.932079)scale(0.1 -0.1)">
       <use xlink:href="#DejaVuSans-2212"/>
       <use x="83.789062" xlink:href="#DejaVuSans-30"/>
       <use x="147.412109" xlink:href="#DejaVuSans-2e"/>
       <use x="179.199219" xlink:href="#DejaVuSans-35"/>
      </g>
     </g>
    </g>
    <g id="ytick_3">
     <g id="line2d_10">
      <g>
       <use style="stroke:#000000;stroke-width:0.8;" x="38.482813" xlink:href="#m9a7dded4a0" y="115.92"/>
      </g>
     </g>
     <g id="text_10">
      <!-- 0.0 -->
      <g transform="translate(15.579688 119.719219)scale(0.1 -0.1)">
       <use xlink:href="#DejaVuSans-30"/>
       <use x="63.623047" xlink:href="#DejaVuSans-2e"/>
       <use x="95.410156" xlink:href="#DejaVuSans-30"/>
      </g>
     </g>
    </g>
    <g id="ytick_4">
     <g id="line2d_11">
      <g>
       <use style="stroke:#000000;stroke-width:0.8;" x="38.482813" xlink:href="#m9a7dded4a0" y="67.70714"/>
      </g>
     </g>
     <g id="text_11">
      <!-- 0.5 -->
      <g transform="translate(15.579688 71.506358)scale(0.1 -0.1)">
       <use xlink:href="#DejaVuSans-30"/>
       <use x="63.623047" xlink:href="#DejaVuSans-2e"/>
       <use x="95.410156" xlink:href="#DejaVuSans-35"/>
      </g>
     </g>
    </g>
    <g id="ytick_5">
     <g id="line2d_12">
      <g>
       <use style="stroke:#000000;stroke-width:0.8;" x="38.482813" xlink:href="#m9a7dded4a0" y="19.494279"/>
      </g>
     </g>
     <g id="text_12">
      <!-- 1.0 -->
      <g transform="translate(15.579688 23.293498)scale(0.1 -0.1)">
       <use xlink:href="#DejaVuSans-31"/>
       <use x="63.623047" xlink:href="#DejaVuSans-2e"/>
       <use x="95.410156" xlink:href="#DejaVuSans-30"/>
      </g>
     </g>
    </g>
   </g>
   <g id="patch_23">
    <path d="M 38.482813 224.64 
L 38.482813 7.2 
" style="fill:none;stroke:#000000;stroke-linecap:square;stroke-linejoin:miter;stroke-width:0.8;"/>
   </g>
   <g id="patch_24">
    <path d="M 373.282813 224.64 
L 373.282813 7.2 
" style="fill:none;stroke:#000000;stroke-linecap:square;stroke-linejoin:miter;stroke-width:0.8;"/>
   </g>
   <g id="patch_25">
    <path d="M 38.482812 224.64 
L 373.282812 224.64 
" style="fill:none;stroke:#000000;stroke-linecap:square;stroke-linejoin:miter;stroke-width:0.8;"/>
   </g>
   <g id="patch_26">
    <path d="M 38.482812 7.2 
L 373.282812 7.2 
" style="fill:none;stroke:#000000;stroke-linecap:square;stroke-linejoin:miter;stroke-width:0.8;"/>
   </g>
   <g id="text_13">
    <!-- prawa -->
    <g transform="translate(304.719176 111.776977)scale(0.0833 -0.0833)">
     <defs>
      <path d="M 1159 525 
L 1159 -1331 
L 581 -1331 
L 581 3500 
L 1159 3500 
L 1159 2969 
Q 1341 3281 1617 3432 
Q 1894 3584 2278 3584 
Q 2916 3584 3314 3078 
Q 3713 2572 3713 1747 
Q 3713 922 3314 415 
Q 2916 -91 2278 -91 
Q 1894 -91 1617 61 
Q 1341 213 1159 525 
z
M 3116 1747 
Q 3116 2381 2855 2742 
Q 2594 3103 2138 3103 
Q 1681 3103 1420 2742 
Q 1159 2381 1159 1747 
Q 1159 1113 1420 752 
Q 1681 391 2138 391 
Q 2594 391 2855 752 
Q 3116 1113 3116 1747 
z
" id="DejaVuSans-70" transform="scale(0.015625)"/>
      <path d="M 2631 2963 
Q 2534 3019 2420 3045 
Q 2306 3072 2169 3072 
Q 1681 3072 1420 2755 
Q 1159 2438 1159 1844 
L 1159 0 
L 581 0 
L 581 3500 
L 1159 3500 
L 1159 2956 
Q 1341 3275 1631 3429 
Q 1922 3584 2338 3584 
Q 2397 3584 2469 3576 
Q 2541 3569 2628 3553 
L 2631 2963 
z
" id="DejaVuSans-72" transform="scale(0.015625)"/>
      <path d="M 2194 1759 
Q 1497 1759 1228 1600 
Q 959 1441 959 1056 
Q 959 750 1161 570 
Q 1363 391 1709 391 
Q 2188 391 2477 730 
Q 2766 1069 2766 1631 
L 2766 1759 
L 2194 1759 
z
M 3341 1997 
L 3341 0 
L 2766 0 
L 2766 531 
Q 2569 213 2275 61 
Q 1981 -91 1556 -91 
Q 1019 -91 701 211 
Q 384 513 384 1019 
Q 384 1609 779 1909 
Q 1175 2209 1959 2209 
L 2766 2209 
L 2766 2266 
Q 2766 2663 2505 2880 
Q 2244 3097 1772 3097 
Q 1472 3097 1187 3025 
Q 903 2953 641 2809 
L 641 3341 
Q 956 3463 1253 3523 
Q 1550 3584 1831 3584 
Q 2591 3584 2966 3190 
Q 3341 2797 3341 1997 
z
" id="DejaVuSans-61" transform="scale(0.015625)"/>
      <path d="M 269 3500 
L 844 3500 
L 1563 769 
L 2278 3500 
L 2956 3500 
L 3675 769 
L 4391 3500 
L 4966 3500 
L 4050 0 
L 3372 0 
L 2619 2869 
L 1863 0 
L 1184 0 
L 269 3500 
z
" id="DejaVuSans-77" transform="scale(0.015625)"/>
     </defs>
     <use xlink:href="#DejaVuSans-70"/>
     <use x="63.476562" xlink:href="#DejaVuSans-72"/>
     <use x="104.589844" xlink:href="#DejaVuSans-61"/>
     <use x="165.869141" xlink:href="#DejaVuSans-77"/>
     <use x="247.65625" xlink:href="#DejaVuSans-61"/>
    </g>
   </g>
   <g id="text_14">
    <!-- przód -->
    <g transform="translate(208.293456 15.351257)scale(0.0833 -0.0833)">
     <defs>
      <path d="M 353 3500 
L 3084 3500 
L 3084 2975 
L 922 459 
L 3084 459 
L 3084 0 
L 275 0 
L 275 525 
L 2438 3041 
L 353 3041 
L 353 3500 
z
" id="DejaVuSans-7a" transform="scale(0.015625)"/>
      <path d="M 1959 3097 
Q 1497 3097 1228 2736 
Q 959 2375 959 1747 
Q 959 1119 1226 758 
Q 1494 397 1959 397 
Q 2419 397 2687 759 
Q 2956 1122 2956 1747 
Q 2956 2369 2687 2733 
Q 2419 3097 1959 3097 
z
M 1959 3584 
Q 2709 3584 3137 3096 
Q 3566 2609 3566 1747 
Q 3566 888 3137 398 
Q 2709 -91 1959 -91 
Q 1206 -91 779 398 
Q 353 888 353 1747 
Q 353 2609 779 3096 
Q 1206 3584 1959 3584 
z
M 2394 5119 
L 3016 5119 
L 1998 3944 
L 1519 3944 
L 2394 5119 
z
" id="DejaVuSans-f3" transform="scale(0.015625)"/>
      <path d="M 2906 2969 
L 2906 4863 
L 3481 4863 
L 3481 0 
L 2906 0 
L 2906 525 
Q 2725 213 2448 61 
Q 2172 -91 1784 -91 
Q 1150 -91 751 415 
Q 353 922 353 1747 
Q 353 2572 751 3078 
Q 1150 3584 1784 3584 
Q 2172 3584 2448 3432 
Q 2725 3281 2906 2969 
z
M 947 1747 
Q 947 1113 1208 752 
Q 1469 391 1925 391 
Q 2381 391 2643 752 
Q 2906 1113 2906 1747 
Q 2906 2381 2643 2742 
Q 2381 3103 1925 3103 
Q 1469 3103 1208 2742 
Q 947 2381 947 1747 
z
" id="DejaVuSans-64" transform="scale(0.015625)"/>
     </defs>
     <use xlink:href="#DejaVuSans-70"/>
     <use x="63.476562" xlink:href="#DejaVuSans-72"/>
     <use x="104.589844" xlink:href="#DejaVuSans-7a"/>
     <use x="157.080078" xlink:href="#DejaVuSans-f3"/>
     <use x="218.261719" xlink:href="#DejaVuSans-64"/>
    </g>
   </g>
   <g id="text_15">
    <!-- lewa -->
    <g transform="translate(87.689611 111.776977)scale(0.0833 -0.0833)">
     <defs>
      <path d="M 603 4863 
L 1178 4863 
L 1178 0 
L 603 0 
L 603 4863 
z
" id="DejaVuSans-6c" transform="scale(0.015625)"/>
      <path d="M 3597 1894 
L 3597 1613 
L 953 1613 
Q 991 1019 1311 708 
Q 1631 397 2203 397 
Q 2534 397 2845 478 
Q 3156 559 3463 722 
L 3463 178 
Q 3153 47 2828 -22 
Q 2503 -91 2169 -91 
Q 1331 -91 842 396 
Q 353 884 353 1716 
Q 353 2575 817 3079 
Q 1281 3584 2069 3584 
Q 2775 3584 3186 3129 
Q 3597 2675 3597 1894 
z
M 3022 2063 
Q 3016 2534 2758 2815 
Q 2500 3097 2075 3097 
Q 1594 3097 1305 2825 
Q 1016 2553 972 2059 
L 3022 2063 
z
" id="DejaVuSans-65" transform="scale(0.015625)"/>
     </defs>
     <use xlink:href="#DejaVuSans-6c"/>
     <use x="27.783203" xlink:href="#DejaVuSans-65"/>
     <use x="89.306641" xlink:href="#DejaVuSans-77"/>
     <use x="171.09375" xlink:href="#DejaVuSans-61"/>
    </g>
   </g>
   <g id="text_16">
    <!-- tory -->
    <g transform="translate(186.754901 221.085862)scale(0.0833 -0.0833)">
     <defs>
      <path d="M 1172 4494 
L 1172 3500 
L 2356 3500 
L 2356 3053 
L 1172 3053 
L 1172 1153 
Q 1172 725 1289 603 
Q 1406 481 1766 481 
L 2356 481 
L 2356 0 
L 1766 0 
Q 1100 0 847 248 
Q 594 497 594 1153 
L 594 3053 
L 172 3053 
L 172 3500 
L 594 3500 
L 594 4494 
L 1172 4494 
z
" id="DejaVuSans-74" transform="scale(0.015625)"/>
      <path d="M 1959 3097 
Q 1497 3097 1228 2736 
Q 959 2375 959 1747 
Q 959 1119 1226 758 
Q 1494 397 1959 397 
Q 2419 397 2687 759 
Q 2956 1122 2956 1747 
Q 2956 2369 2687 2733 
Q 2419 3097 1959 3097 
z
M 1959 3584 
Q 2709 3584 3137 3096 
Q 3566 2609 3566 1747 
Q 3566 888 3137 398 
Q 2709 -91 1959 -91 
Q 1206 -91 779 398 
Q 353 888 353 1747 
Q 353 2609 779 3096 
Q 1206 3584 1959 3584 
z
" id="DejaVuSans-6f" transform="scale(0.015625)"/>
      <path d="M 2059 -325 
Q 1816 -950 1584 -1140 
Q 1353 -1331 966 -1331 
L 506 -1331 
L 506 -850 
L 844 -850 
Q 1081 -850 1212 -737 
Q 1344 -625 1503 -206 
L 1606 56 
L 191 3500 
L 800 3500 
L 1894 763 
L 2988 3500 
L 3597 3500 
L 2059 -325 
z
" id="DejaVuSans-79" transform="scale(0.015625)"/>
     </defs>
     <use xlink:href="#DejaVuSans-74"/>
     <use x="39.208984" xlink:href="#DejaVuSans-6f"/>
     <use x="100.390625" xlink:href="#DejaVuSans-72"/>
     <use x="141.503906" xlink:href="#DejaVuSans-79"/>
    </g>
   </g>
   <g id="text_17">
    <!-- prawa -->
    <g transform="translate(304.719176 111.776977)scale(0.0833 -0.0833)">
     <use xlink:href="#DejaVuSans-70"/>
     <use x="63.476562" xlink:href="#DejaVuSans-72"/>
     <use x="104.589844" xlink:href="#DejaVuSans-61"/>
     <use x="165.869141" xlink:href="#DejaVuSans-77"/>
     <use x="247.65625" xlink:href="#DejaVuSans-61"/>
    </g>
   </g>
   <g id="text_18">
    <!-- przód -->
    <g transform="translate(208.293456 15.351257)scale(0.0833 -0.0833)">
     <use xlink:href="#DejaVuSans-70"/>
     <use x="63.476562" xlink:href="#DejaVuSans-72"/>
     <use x="104.589844" xlink:href="#DejaVuSans-7a"/>
     <use x="157.080078" xlink:href="#DejaVuSans-f3"/>
     <use x="218.261719" xlink:href="#DejaVuSans-64"/>
    </g>
   </g>
   <g id="text_19">
    <!-- lewa -->
    <g transform="translate(87.689611 111.776977)scale(0.0833 -0.0833)">
     <use xlink:href="#DejaVuSans-6c"/>
     <use x="27.783203" xlink:href="#DejaVuSans-65"/>
     <use x="89.306641" xlink:href="#DejaVuSans-77"/>
     <use x="171.09375" xlink:href="#DejaVuSans-61"/>
    </g>
   </g>
   <g id="text_20">
    <!-- tory -->
    <g transform="translate(186.754901 221.085862)scale(0.0833 -0.0833)">
     <use xlink:href="#DejaVuSans-74"/>
     <use x="39.208984" xlink:href="#DejaVuSans-6f"/>
     <use x="100.390625" xlink:href="#DejaVuSans-72"/>
     <use x="141.503906" xlink:href="#DejaVuSans-79"/>
    </g>
   </g>
   <g id="text_21">
    <!-- prawa -->
    <g transform="translate(304.719176 111.776977)scale(0.0833 -0.0833)">
     <use xlink:href="#DejaVuSans-70"/>
     <use x="63.476562" xlink:href="#DejaVuSans-72"/>
     <use x="104.589844" xlink:href="#DejaVuSans-61"/>
     <use x="165.869141" xlink:href="#DejaVuSans-77"/>
     <use x="247.65625" xlink:href="#DejaVuSans-61"/>
    </g>
   </g>
   <g id="text_22">
    <!-- przód -->
    <g transform="translate(208.293456 15.351257)scale(0.0833 -0.0833)">
     <use xlink:href="#DejaVuSans-70"/>
     <use x="63.476562" xlink:href="#DejaVuSans-72"/>
     <use x="104.589844" xlink:href="#DejaVuSans-7a"/>
     <use x="157.080078" xlink:href="#DejaVuSans-f3"/>
     <use x="218.261719" xlink:href="#DejaVuSans-64"/>
    </g>
   </g>
   <g id="text_23">
    <!-- lewa -->
    <g transform="translate(87.689611 111.776977)scale(0.0833 -0.0833)">
     <use xlink:href="#DejaVuSans-6c"/>
     <use x="27.783203" xlink:href="#DejaVuSans-65"/>
     <use x="89.306641" xlink:href="#DejaVuSans-77"/>
     <use x="171.09375" xlink:href="#DejaVuSans-61"/>
    </g>
   </g>
   <g id="text_24">
    <!-- tory -->
    <g transform="translate(186.754901 221.085862)scale(0.0833 -0.0833)">
     <use xlink:href="#DejaVuSans-74"/>
     <use x="39.208984" xlink:href="#DejaVuSans-6f"/>
     <use x="100.390625" xlink:href="#DejaVuSans-72"/>
     <use x="141.503906" xlink:href="#DejaVuSans-79"/>
    </g>
   </g>
   <g id="text_25">
    <!-- prawa -->
    <g transform="translate(304.719176 111.776977)scale(0.0833 -0.0833)">
     <use xlink:href="#DejaVuSans-70"/>
     <use x="63.476562" xlink:href="#DejaVuSans-72"/>
     <use x="104.589844" xlink:href="#DejaVuSans-61"/>
     <use x="165.869141" xlink:href="#DejaVuSans-77"/>
     <use x="247.65625" xlink:href="#DejaVuSans-61"/>
    </g>
   </g>
   <g id="text_26">
    <!-- przód -->
    <g transform="translate(208.293456 15.351257)scale(0.0833 -0.0833)">
     <use xlink:href="#DejaVuSans-70"/>
     <use x="63.476562" xlink:href="#DejaVuSans-72"/>
     <use x="104.589844" xlink:href="#DejaVuSans-7a"/>
     <use x="157.080078" xlink:href="#DejaVuSans-f3"/>
     <use x="218.261719" xlink:href="#DejaVuSans-64"/>
    </g>
   </g>
   <g id="text_27">
    <!-- lewa -->
    <g transform="translate(87.689611 111.776977)scale(0.0833 -0.0833)">
     <use xlink:href="#DejaVuSans-6c"/>
     <use x="27.783203" xlink:href="#DejaVuSans-65"/>
     <use x="89.306641" xlink:href="#DejaVuSans-77"/>
     <use x="171.09375" xlink:href="#DejaVuSans-61"/>
    </g>
   </g>
   <g id="text_28">
    <!-- tory -->
    <g transform="translate(186.754901 221.085862)scale(0.0833 -0.0833)">
     <use xlink:href="#DejaVuSans-74"/>
     <use x="39.208984" xlink:href="#DejaVuSans-6f"/>
     <use x="100.390625" xlink:href="#DejaVuSans-72"/>
     <use x="141.503906" xlink:href="#DejaVuSans-79"/>
    </g>
   </g>
   <g id="legend_1">
    <g id="patch_27">
     <path d="M 239.753125 73.9125 
L 366.282812 73.9125 
Q 368.282812 73.9125 368.282812 71.9125 
L 368.282812 14.2 
Q 368.282812 12.2 366.282812 12.2 
L 239.753125 12.2 
Q 237.753125 12.2 237.753125 14.2 
L 237.753125 71.9125 
Q 237.753125 73.9125 239.753125 73.9125 
z
" style="fill:#ffffff;opacity:0.8;stroke:#cccccc;stroke-linejoin:miter;"/>
    </g>
    <g id="PathCollection_5">
     <g>
      <use style="stroke:#000000;" x="251.753125" xlink:href="#m6e0e100b79" y="21.173437"/>
     </g>
    </g>
    <g id="text_29">
     <!-- Total duration -->
     <g transform="translate(269.753125 23.798437)scale(0.1 -0.1)">
      <defs>
       <path d="M -19 4666 
L 3928 4666 
L 3928 4134 
L 2272 4134 
L 2272 0 
L 1638 0 
L 1638 4134 
L -19 4134 
L -19 4666 
z
" id="DejaVuSans-54" transform="scale(0.015625)"/>
       <path id="DejaVuSans-20" transform="scale(0.015625)"/>
       <path d="M 544 1381 
L 544 3500 
L 1119 3500 
L 1119 1403 
Q 1119 906 1312 657 
Q 1506 409 1894 409 
Q 2359 409 2629 706 
Q 2900 1003 2900 1516 
L 2900 3500 
L 3475 3500 
L 3475 0 
L 2900 0 
L 2900 538 
Q 2691 219 2414 64 
Q 2138 -91 1772 -91 
Q 1169 -91 856 284 
Q 544 659 544 1381 
z
M 1991 3584 
L 1991 3584 
z
" id="DejaVuSans-75" transform="scale(0.015625)"/>
       <path d="M 603 3500 
L 1178 3500 
L 1178 0 
L 603 0 
L 603 3500 
z
M 603 4863 
L 1178 4863 
L 1178 4134 
L 603 4134 
L 603 4863 
z
" id="DejaVuSans-69" transform="scale(0.015625)"/>
       <path d="M 3513 2113 
L 3513 0 
L 2938 0 
L 2938 2094 
Q 2938 2591 2744 2837 
Q 2550 3084 2163 3084 
Q 1697 3084 1428 2787 
Q 1159 2491 1159 1978 
L 1159 0 
L 581 0 
L 581 3500 
L 1159 3500 
L 1159 2956 
Q 1366 3272 1645 3428 
Q 1925 3584 2291 3584 
Q 2894 3584 3203 3211 
Q 3513 2838 3513 2113 
z
" id="DejaVuSans-6e" transform="scale(0.015625)"/>
      </defs>
      <use xlink:href="#DejaVuSans-54"/>
      <use x="44.083984" xlink:href="#DejaVuSans-6f"/>
      <use x="105.265625" xlink:href="#DejaVuSans-74"/>
      <use x="144.474609" xlink:href="#DejaVuSans-61"/>
      <use x="205.753906" xlink:href="#DejaVuSans-6c"/>
      <use x="233.537109" xlink:href="#DejaVuSans-20"/>
      <use x="265.324219" xlink:href="#DejaVuSans-64"/>
      <use x="328.800781" xlink:href="#DejaVuSans-75"/>
      <use x="392.179688" xlink:href="#DejaVuSans-72"/>
      <use x="433.292969" xlink:href="#DejaVuSans-61"/>
      <use x="494.572266" xlink:href="#DejaVuSans-74"/>
      <use x="533.78125" xlink:href="#DejaVuSans-69"/>
      <use x="561.564453" xlink:href="#DejaVuSans-6f"/>
      <use x="622.746094" xlink:href="#DejaVuSans-6e"/>
     </g>
    </g>
    <g id="PathCollection_6">
     <g>
      <use style="fill:#0078dd;stroke:#0078dd;" x="251.753125" xlink:href="#me500e6e4fa" y="35.851562"/>
     </g>
    </g>
    <g id="text_30">
     <!-- Minimum duration -->
     <g transform="translate(269.753125 38.476562)scale(0.1 -0.1)">
      <defs>
       <path d="M 628 4666 
L 1569 4666 
L 2759 1491 
L 3956 4666 
L 4897 4666 
L 4897 0 
L 4281 0 
L 4281 4097 
L 3078 897 
L 2444 897 
L 1241 4097 
L 1241 0 
L 628 0 
L 628 4666 
z
" id="DejaVuSans-4d" transform="scale(0.015625)"/>
       <path d="M 3328 2828 
Q 3544 3216 3844 3400 
Q 4144 3584 4550 3584 
Q 5097 3584 5394 3201 
Q 5691 2819 5691 2113 
L 5691 0 
L 5113 0 
L 5113 2094 
Q 5113 2597 4934 2840 
Q 4756 3084 4391 3084 
Q 3944 3084 3684 2787 
Q 3425 2491 3425 1978 
L 3425 0 
L 2847 0 
L 2847 2094 
Q 2847 2600 2669 2842 
Q 2491 3084 2119 3084 
Q 1678 3084 1418 2786 
Q 1159 2488 1159 1978 
L 1159 0 
L 581 0 
L 581 3500 
L 1159 3500 
L 1159 2956 
Q 1356 3278 1631 3431 
Q 1906 3584 2284 3584 
Q 2666 3584 2933 3390 
Q 3200 3197 3328 2828 
z
" id="DejaVuSans-6d" transform="scale(0.015625)"/>
      </defs>
      <use xlink:href="#DejaVuSans-4d"/>
      <use x="86.279297" xlink:href="#DejaVuSans-69"/>
      <use x="114.0625" xlink:href="#DejaVuSans-6e"/>
      <use x="177.441406" xlink:href="#DejaVuSans-69"/>
      <use x="205.224609" xlink:href="#DejaVuSans-6d"/>
      <use x="302.636719" xlink:href="#DejaVuSans-75"/>
      <use x="366.015625" xlink:href="#DejaVuSans-6d"/>
      <use x="463.427734" xlink:href="#DejaVuSans-20"/>
      <use x="495.214844" xlink:href="#DejaVuSans-64"/>
      <use x="558.691406" xlink:href="#DejaVuSans-75"/>
      <use x="622.070312" xlink:href="#DejaVuSans-72"/>
      <use x="663.183594" xlink:href="#DejaVuSans-61"/>
      <use x="724.462891" xlink:href="#DejaVuSans-74"/>
      <use x="763.671875" xlink:href="#DejaVuSans-69"/>
      <use x="791.455078" xlink:href="#DejaVuSans-6f"/>
      <use x="852.636719" xlink:href="#DejaVuSans-6e"/>
     </g>
    </g>
    <g id="PathCollection_7">
     <g>
      <use style="fill:#00bc00;stroke:#00bc00;" x="251.753125" xlink:href="#m43b95d3621" y="50.529687"/>
     </g>
    </g>
    <g id="text_31">
     <!-- Maximum duration -->
     <g transform="translate(269.753125 53.154687)scale(0.1 -0.1)">
      <defs>
       <path d="M 3513 3500 
L 2247 1797 
L 3578 0 
L 2900 0 
L 1881 1375 
L 863 0 
L 184 0 
L 1544 1831 
L 300 3500 
L 978 3500 
L 1906 2253 
L 2834 3500 
L 3513 3500 
z
" id="DejaVuSans-78" transform="scale(0.015625)"/>
      </defs>
      <use xlink:href="#DejaVuSans-4d"/>
      <use x="86.279297" xlink:href="#DejaVuSans-61"/>
      <use x="147.558594" xlink:href="#DejaVuSans-78"/>
      <use x="206.738281" xlink:href="#DejaVuSans-69"/>
      <use x="234.521484" xlink:href="#DejaVuSans-6d"/>
      <use x="331.933594" xlink:href="#DejaVuSans-75"/>
      <use x="395.3125" xlink:href="#DejaVuSans-6d"/>
      <use x="492.724609" xlink:href="#DejaVuSans-20"/>
      <use x="524.511719" xlink:href="#DejaVuSans-64"/>
      <use x="587.988281" xlink:href="#DejaVuSans-75"/>
      <use x="651.367188" xlink:href="#DejaVuSans-72"/>
      <use x="692.480469" xlink:href="#DejaVuSans-61"/>
      <use x="753.759766" xlink:href="#DejaVuSans-74"/>
      <use x="792.96875" xlink:href="#DejaVuSans-69"/>
      <use x="820.751953" xlink:href="#DejaVuSans-6f"/>
      <use x="881.933594" xlink:href="#DejaVuSans-6e"/>
     </g>
    </g>
    <g id="PathCollection_8">
     <g>
      <use style="fill:#ffc900;stroke:#ffc900;" x="251.753125" xlink:href="#mf54c9b2c85" y="65.207812"/>
     </g>
    </g>
    <g id="text_32">
     <!-- Average duration -->
     <g transform="translate(269.753125 67.832812)scale(0.1 -0.1)">
      <defs>
       <path d="M 2188 4044 
L 1331 1722 
L 3047 1722 
L 2188 4044 
z
M 1831 4666 
L 2547 4666 
L 4325 0 
L 3669 0 
L 3244 1197 
L 1141 1197 
L 716 0 
L 50 0 
L 1831 4666 
z
" id="DejaVuSans-41" transform="scale(0.015625)"/>
       <path d="M 191 3500 
L 800 3500 
L 1894 563 
L 2988 3500 
L 3597 3500 
L 2284 0 
L 1503 0 
L 191 3500 
z
" id="DejaVuSans-76" transform="scale(0.015625)"/>
       <path d="M 2906 1791 
Q 2906 2416 2648 2759 
Q 2391 3103 1925 3103 
Q 1463 3103 1205 2759 
Q 947 2416 947 1791 
Q 947 1169 1205 825 
Q 1463 481 1925 481 
Q 2391 481 2648 825 
Q 2906 1169 2906 1791 
z
M 3481 434 
Q 3481 -459 3084 -895 
Q 2688 -1331 1869 -1331 
Q 1566 -1331 1297 -1286 
Q 1028 -1241 775 -1147 
L 775 -588 
Q 1028 -725 1275 -790 
Q 1522 -856 1778 -856 
Q 2344 -856 2625 -561 
Q 2906 -266 2906 331 
L 2906 616 
Q 2728 306 2450 153 
Q 2172 0 1784 0 
Q 1141 0 747 490 
Q 353 981 353 1791 
Q 353 2603 747 3093 
Q 1141 3584 1784 3584 
Q 2172 3584 2450 3431 
Q 2728 3278 2906 2969 
L 2906 3500 
L 3481 3500 
L 3481 434 
z
" id="DejaVuSans-67" transform="scale(0.015625)"/>
      </defs>
      <use xlink:href="#DejaVuSans-41"/>
      <use x="62.533203" xlink:href="#DejaVuSans-76"/>
      <use x="121.712891" xlink:href="#DejaVuSans-65"/>
      <use x="183.236328" xlink:href="#DejaVuSans-72"/>
      <use x="224.349609" xlink:href="#DejaVuSans-61"/>
      <use x="285.628906" xlink:href="#DejaVuSans-67"/>
      <use x="349.105469" xlink:href="#DejaVuSans-65"/>
      <use x="410.628906" xlink:href="#DejaVuSans-20"/>
      <use x="442.416016" xlink:href="#DejaVuSans-64"/>
      <use x="505.892578" xlink:href="#DejaVuSans-75"/>
      <use x="569.271484" xlink:href="#DejaVuSans-72"/>
      <use x="610.384766" xlink:href="#DejaVuSans-61"/>
      <use x="671.664062" xlink:href="#DejaVuSans-74"/>
      <use x="710.873047" xlink:href="#DejaVuSans-69"/>
      <use x="738.65625" xlink:href="#DejaVuSans-6f"/>
      <use x="799.837891" xlink:href="#DejaVuSans-6e"/>
     </g>
    </g>
   </g>
  </g>
 </g>
 <defs>
  <clipPath id="p78f1b0fbc8">
   <rect height="217.44" width="334.8" x="38.482813" y="7.2"/>
  </clipPath>
 </defs>
</svg>
